{
    "patcher": {
        "fileversion": 1,
        "appversion": {
            "major": 9,
            "minor": 1,
            "revision": 2,
            "architecture": "x64",
            "modernui": 1
        },
        "classnamespace": "box",
        "rect": [ 965.0, 159.0, 1000.0, 780.0 ],
        "boxes": [
            {
                "box": {
                    "id": "obj-8",
                    "maxclass": "newobj",
                    "numinlets": 1,
                    "numoutlets": 1,
                    "outlettype": [ "" ],
                    "patching_rect": [ 15.0, 10.0, 28.0, 22.0 ],
                    "saved_object_attributes": {
                        "attr_comment": "",
                        "c": ""
                    },
                    "text": "in 1"
                }
            },
            {
                "box": {
                    "id": "obj-7",
                    "maxclass": "message",
                    "numinlets": 2,
                    "numoutlets": 1,
                    "outlettype": [ "" ],
                    "patching_rect": [ 15.0, 79.0, 70.0, 22.0 ],
                    "text": "cascade $1"
                }
            },
            {
                "box": {
                    "id": "obj-181",
                    "maxclass": "newobj",
                    "numinlets": 1,
                    "numoutlets": 1,
                    "outlettype": [ "float" ],
                    "patcher": {
                        "fileversion": 1,
                        "appversion": {
                            "major": 9,
                            "minor": 1,
                            "revision": 2,
                            "architecture": "x64",
                            "modernui": 1
                        },
                        "classnamespace": "box",
                        "rect": [ 134.0, 134.0, 1852.0, 921.0 ],
                        "boxes": [
                            {
                                "box": {
                                    "id": "obj-174",
                                    "maxclass": "newobj",
                                    "numinlets": 2,
                                    "numoutlets": 1,
                                    "outlettype": [ "float" ],
                                    "patching_rect": [ 101.0, 132.0, 33.0, 22.0 ],
                                    "text": "- 0.6"
                                }
                            },
                            {
                                "box": {
                                    "id": "obj-173",
                                    "maxclass": "newobj",
                                    "numinlets": 2,
                                    "numoutlets": 1,
                                    "outlettype": [ "float" ],
                                    "patching_rect": [ 101.0, 163.0, 44.0, 22.0 ],
                                    "text": "pow 5."
                                }
                            },
                            {
                                "box": {
                                    "id": "obj-164",
                                    "maxclass": "newobj",
                                    "numinlets": 2,
                                    "numoutlets": 1,
                                    "outlettype": [ "float" ],
                                    "patching_rect": [ 50.0, 132.0, 51.0, 22.0 ],
                                    "text": "pow 0.4"
                                }
                            },
                            {
                                "box": {
                                    "id": "obj-160",
                                    "maxclass": "newobj",
                                    "numinlets": 2,
                                    "numoutlets": 1,
                                    "outlettype": [ "float" ],
                                    "patching_rect": [ 101.0, 225.0, 49.0, 22.0 ],
                                    "text": "+ 0.403"
                                }
                            },
                            {
                                "box": {
                                    "id": "obj-159",
                                    "maxclass": "newobj",
                                    "numinlets": 2,
                                    "numoutlets": 1,
                                    "outlettype": [ "float" ],
                                    "patching_rect": [ 101.0, 195.0, 33.0, 22.0 ],
                                    "text": "* 50."
                                }
                            },
                            {
                                "box": {
                                    "id": "obj-158",
                                    "maxclass": "newobj",
                                    "numinlets": 2,
                                    "numoutlets": 1,
                                    "outlettype": [ "float" ],
                                    "patching_rect": [ 50.0, 168.0, 40.0, 22.0 ],
                                    "text": "* 0.45"
                                }
                            },
                            {
                                "box": {
                                    "id": "obj-157",
                                    "maxclass": "newobj",
                                    "numinlets": 3,
                                    "numoutlets": 2,
                                    "outlettype": [ "float", "float" ],
                                    "patching_rect": [ 50.0, 100.0, 70.0, 22.0 ],
                                    "text": "split 0. 0.77"
                                }
                            },
                            {
                                "box": {
                                    "comment": "",
                                    "id": "obj-179",
                                    "index": 1,
                                    "maxclass": "inlet",
                                    "numinlets": 0,
                                    "numoutlets": 1,
                                    "outlettype": [ "" ],
                                    "patching_rect": [ 50.0, 40.0, 30.0, 30.0 ]
                                }
                            },
                            {
                                "box": {
                                    "comment": "",
                                    "id": "obj-180",
                                    "index": 1,
                                    "maxclass": "outlet",
                                    "numinlets": 1,
                                    "numoutlets": 0,
                                    "patching_rect": [ 69.5, 307.0, 30.0, 30.0 ]
                                }
                            }
                        ],
                        "lines": [
                            {
                                "patchline": {
                                    "destination": [ "obj-164", 0 ],
                                    "source": [ "obj-157", 0 ]
                                }
                            },
                            {
                                "patchline": {
                                    "destination": [ "obj-174", 0 ],
                                    "source": [ "obj-157", 1 ]
                                }
                            },
                            {
                                "patchline": {
                                    "destination": [ "obj-180", 0 ],
                                    "source": [ "obj-158", 0 ]
                                }
                            },
                            {
                                "patchline": {
                                    "destination": [ "obj-160", 0 ],
                                    "source": [ "obj-159", 0 ]
                                }
                            },
                            {
                                "patchline": {
                                    "destination": [ "obj-180", 0 ],
                                    "source": [ "obj-160", 0 ]
                                }
                            },
                            {
                                "patchline": {
                                    "destination": [ "obj-158", 0 ],
                                    "source": [ "obj-164", 0 ]
                                }
                            },
                            {
                                "patchline": {
                                    "destination": [ "obj-159", 0 ],
                                    "source": [ "obj-173", 0 ]
                                }
                            },
                            {
                                "patchline": {
                                    "destination": [ "obj-173", 0 ],
                                    "source": [ "obj-174", 0 ]
                                }
                            },
                            {
                                "patchline": {
                                    "destination": [ "obj-157", 0 ],
                                    "source": [ "obj-179", 0 ]
                                }
                            }
                        ]
                    },
                    "patching_rect": [ 15.0, 42.0, 140.0, 22.0 ],
                    "text": "p rescale_cascade_level"
                }
            },
            {
                "box": {
                    "id": "obj-5",
                    "maxclass": "newobj",
                    "numinlets": 1,
                    "numoutlets": 0,
                    "patching_rect": [ 210.0, 185.0, 42.0, 22.0 ],
                    "saved_object_attributes": {
                        "attr_comment": "",
                        "c": ""
                    },
                    "text": "out~ 2"
                }
            },
            {
                "box": {
                    "id": "obj-4",
                    "maxclass": "newobj",
                    "numinlets": 1,
                    "numoutlets": 0,
                    "patching_rect": [ 95.0, 185.0, 42.0, 22.0 ],
                    "saved_object_attributes": {
                        "attr_comment": "",
                        "c": ""
                    },
                    "text": "out~ 1"
                }
            },
            {
                "box": {
                    "id": "obj-3",
                    "maxclass": "newobj",
                    "numinlets": 2,
                    "numoutlets": 2,
                    "outlettype": [ "signal", "signal" ],
                    "patching_rect": [ 95.0, 129.0, 134.0, 22.0 ],
                    "saved_object_attributes": {
                        "cascade": 0.38999998569488525
                    },
                    "text": "airfx.console7cascade~"
                }
            },
            {
                "box": {
                    "id": "obj-2",
                    "maxclass": "newobj",
                    "numinlets": 1,
                    "numoutlets": 1,
                    "outlettype": [ "signal" ],
                    "patching_rect": [ 210.0, 79.0, 35.0, 22.0 ],
                    "saved_object_attributes": {
                        "attr_comment": "",
                        "c": ""
                    },
                    "text": "in~ 2"
                }
            },
            {
                "box": {
                    "id": "obj-1",
                    "maxclass": "newobj",
                    "numinlets": 1,
                    "numoutlets": 1,
                    "outlettype": [ "signal" ],
                    "patching_rect": [ 95.0, 79.0, 35.0, 22.0 ],
                    "saved_object_attributes": {
                        "attr_comment": "",
                        "c": ""
                    },
                    "text": "in~ 1"
                }
            }
        ],
        "lines": [
            {
                "patchline": {
                    "destination": [ "obj-3", 0 ],
                    "source": [ "obj-1", 0 ]
                }
            },
            {
                "patchline": {
                    "destination": [ "obj-7", 0 ],
                    "source": [ "obj-181", 0 ]
                }
            },
            {
                "patchline": {
                    "destination": [ "obj-3", 1 ],
                    "source": [ "obj-2", 0 ]
                }
            },
            {
                "patchline": {
                    "destination": [ "obj-4", 0 ],
                    "source": [ "obj-3", 0 ]
                }
            },
            {
                "patchline": {
                    "destination": [ "obj-5", 0 ],
                    "source": [ "obj-3", 1 ]
                }
            },
            {
                "patchline": {
                    "destination": [ "obj-3", 0 ],
                    "source": [ "obj-7", 0 ]
                }
            },
            {
                "patchline": {
                    "destination": [ "obj-181", 0 ],
                    "source": [ "obj-8", 0 ]
                }
            }
        ],
        "autosave": 0
    }
}