{
	"patcher" : 	{
		"fileversion" : 1,
		"appversion" : 		{
			"major" : 8,
			"minor" : 5,
			"revision" : 6,
			"architecture" : "x64",
			"modernui" : 1
		}
,
		"classnamespace" : "dsp.gen",
		"rect" : [ 40.0, 82.0, 1051.0, 582.0 ],
		"bglocked" : 0,
		"openinpresentation" : 0,
		"default_fontsize" : 12.0,
		"default_fontface" : 0,
		"default_fontname" : "Arial",
		"gridonopen" : 1,
		"gridsize" : [ 15.0, 15.0 ],
		"gridsnaponopen" : 1,
		"objectsnaponopen" : 1,
		"statusbarvisible" : 2,
		"toolbarvisible" : 1,
		"lefttoolbarpinned" : 0,
		"toptoolbarpinned" : 0,
		"righttoolbarpinned" : 0,
		"bottomtoolbarpinned" : 0,
		"toolbars_unpinned_last_save" : 0,
		"tallnewobj" : 0,
		"boxanimatetime" : 200,
		"enablehscroll" : 1,
		"enablevscroll" : 1,
		"devicewidth" : 0.0,
		"description" : "",
		"digest" : "",
		"tags" : "",
		"style" : "",
		"subpatcher_template" : "",
		"assistshowspatchername" : 0,
		"boxes" : [ 			{
				"box" : 				{
					"id" : "obj-6",
					"maxclass" : "newobj",
					"numinlets" : 0,
					"numoutlets" : 1,
					"outlettype" : [ "" ],
					"patching_rect" : [ 129.0, -2.0, 28.0, 22.0 ],
					"text" : "in 4"
				}

			}
, 			{
				"box" : 				{
					"id" : "obj-5",
					"maxclass" : "newobj",
					"numinlets" : 0,
					"numoutlets" : 1,
					"outlettype" : [ "" ],
					"patching_rect" : [ 93.0, -2.0, 28.0, 22.0 ],
					"text" : "in 3"
				}

			}
, 			{
				"box" : 				{
					"id" : "obj-1",
					"maxclass" : "newobj",
					"numinlets" : 0,
					"numoutlets" : 1,
					"outlettype" : [ "" ],
					"patching_rect" : [ 22.0, -2.0, 28.0, 22.0 ],
					"text" : "in 1"
				}

			}
, 			{
				"box" : 				{
					"id" : "obj-2",
					"maxclass" : "newobj",
					"numinlets" : 0,
					"numoutlets" : 1,
					"outlettype" : [ "" ],
					"patching_rect" : [ 55.0, -2.0, 28.0, 22.0 ],
					"text" : "in 2"
				}

			}
, 			{
				"box" : 				{
					"code" : "Buffer midi_meters(\"midi_meters\");\r\nBuffer midi_scopes(\"midi_scopes\");\r\nBuffer midi_scopes_change(\"midi_scopes_change\");\r\n//inputs\r\n//1 = outputno 2 = note 3 = vel 4 = voiceno\r\n\r\nvflag, ch, held, p_min,p_max,v_min,v_max  = midi_meters.peek(1, in4, channels = 7);\r\n\r\nt_ind = (128*in4 + in1);\r\nm_ind = in2;\r\nm_ind += t_ind * 128;\r\n\r\nch = 0;\r\nif(in3 == 0){\r\n\t//remove from scopes\r\n\told = midi_scopes.peek(1,m_ind);\r\n\tif(old != 0){\r\n\t\t//reduce held notecount for that output by 1.\r\n\t\tch=1;\r\n\t\tif(held>0) held = held - 1;\r\n\t}\r\n\t//if it was any kind of min or max, recalculate those\r\n}else{\r\n\tvv=abs(in3);\r\n\r\n\t//add to scopes, if negative send a message to schedule wiping it in a moment\r\n\told = midi_scopes.peek(1,m_ind);\r\n\tif(old==0){//increase note held count\r\n\t\theld+=1;\r\n\t\tmidi_scopes_change.poke(1,t_ind,1);\r\n\t}\r\n\tmidi_scopes.poke(1,m_ind,in3);\r\n\tif((vflag == -1)||(vflag == in1)){\r\n\t\tif(in2 < p_min){\r\n \t\t\tp_min = in2;\r\n\t\t\tch=1;\r\n\t\t}\r\n\t\tif(in2 > p_max){\r\n\t\t\tp_max = in2;\r\n\t\t\tch=1;\r\n\t\t}\r\n\t\tif(vv < v_min){\r\n\t\t\tv_min=vv;\r\n\t\t\tch=1;\r\n\t\t}\r\n\t\tif(vv > v_max){\r\n\t\t\tv_max=vv;\r\n\t\t\tch=1;\r\n\t\t}\r\n\t}\r\n}\r\nif(ch > 0){\r\n\tmidi_meters.poke(1, in4, vflag);\r\n\tmidi_meters.poke(2, in4, ch);\r\n\tmidi_meters.poke(3, in4, held);\r\n\tmidi_meters.poke(4, in4, p_min);\r\n\tmidi_meters.poke(5, in4, p_max);\r\n\tmidi_meters.poke(6, in4, v_min);\r\n\tmidi_meters.poke(7, in4, v_max);\r\n}\r\nif(in3 < 0){\r\n\tout1 = m_ind; //the output is used to turn off negative notes.\r\n}else{\r\n\tout1 = -1;\r\n}",
					"fontface" : 0,
					"fontname" : "<Monospaced>",
					"fontsize" : 12.0,
					"id" : "obj-3",
					"maxclass" : "codebox",
					"numinlets" : 4,
					"numoutlets" : 1,
					"outlettype" : [ "" ],
					"patching_rect" : [ 22.0, 27.0, 1019.0, 542.0 ]
				}

			}
, 			{
				"box" : 				{
					"id" : "obj-4",
					"maxclass" : "newobj",
					"numinlets" : 1,
					"numoutlets" : 0,
					"patching_rect" : [ 22.0, 574.0, 35.0, 22.0 ],
					"text" : "out 1"
				}

			}
 ],
		"lines" : [ 			{
				"patchline" : 				{
					"destination" : [ "obj-3", 0 ],
					"source" : [ "obj-1", 0 ]
				}

			}
, 			{
				"patchline" : 				{
					"destination" : [ "obj-3", 1 ],
					"source" : [ "obj-2", 0 ]
				}

			}
, 			{
				"patchline" : 				{
					"destination" : [ "obj-4", 0 ],
					"source" : [ "obj-3", 0 ]
				}

			}
, 			{
				"patchline" : 				{
					"destination" : [ "obj-3", 2 ],
					"source" : [ "obj-5", 0 ]
				}

			}
, 			{
				"patchline" : 				{
					"destination" : [ "obj-3", 3 ],
					"source" : [ "obj-6", 0 ]
				}

			}
 ]
	}

}
