{
	"patcher" : 	{
		"fileversion" : 1,
		"appversion" : 		{
			"major" : 8,
			"minor" : 5,
			"revision" : 6,
			"architecture" : "x64",
			"modernui" : 1
		}
,
		"classnamespace" : "dsp.gen",
		"rect" : [ 64.0, 82.0, 628.0, 582.0 ],
		"bglocked" : 0,
		"openinpresentation" : 0,
		"default_fontsize" : 12.0,
		"default_fontface" : 0,
		"default_fontname" : "Arial",
		"gridonopen" : 1,
		"gridsize" : [ 15.0, 15.0 ],
		"gridsnaponopen" : 1,
		"objectsnaponopen" : 1,
		"statusbarvisible" : 2,
		"toolbarvisible" : 1,
		"lefttoolbarpinned" : 0,
		"toptoolbarpinned" : 0,
		"righttoolbarpinned" : 0,
		"bottomtoolbarpinned" : 0,
		"toolbars_unpinned_last_save" : 0,
		"tallnewobj" : 0,
		"boxanimatetime" : 200,
		"enablehscroll" : 1,
		"enablevscroll" : 1,
		"devicewidth" : 0.0,
		"description" : "",
		"digest" : "",
		"tags" : "",
		"style" : "",
		"subpatcher_template" : "",
		"assistshowspatchername" : 0,
		"boxes" : [ 			{
				"box" : 				{
					"id" : "obj-8",
					"maxclass" : "newobj",
					"numinlets" : 1,
					"numoutlets" : 0,
					"patching_rect" : [ 562.0, 565.0, 35.0, 22.0 ],
					"text" : "out 2"
				}

			}
, 			{
				"box" : 				{
					"id" : "obj-1",
					"maxclass" : "newobj",
					"numinlets" : 0,
					"numoutlets" : 1,
					"outlettype" : [ "" ],
					"patching_rect" : [ 4.0, 3.0, 28.0, 22.0 ],
					"text" : "in 1"
				}

			}
, 			{
				"box" : 				{
					"code" : "Data paramlast(256);\r\nData outlast(256);\r\n\r\nBuffer paraminfo(\"parameter_info_buffer\");\r\nBuffer value(\"voice_parameter_buffer\");\r\n\r\nParam voiceoffset(0);\r\nParam blockoffset(0);\r\n\r\n//in1 is paramno to check (the for loop has to be outside the gen as it can only generate one message out per message in)\r\n\r\nv = peek(value, in1+voiceoffset,0);\r\nif(v != paramlast.peek(in1)){\r\n\tparamlast.poke(v,in1);\r\n\tmi,ma,ste,cu = peek(paraminfo,in1+blockoffset,0,channels=4);\r\n\tif(cu==1){\r\n \t\tv = pow(2, v) - 1;\r\n\t}else if(cu==2){\r\n\t\tv = 2*(v-0.5);\r\n\t\tif(v>0){\r\n\t\t\tv=pow(2,v) - 1;\r\n\t\t}else{\r\n\t\t\tv=-pow(2,-v) + 1;\r\n\t\t}\r\n\t\tv+=1;\r\n\t\tv*=0.5;\r\n\t}\r\n\tif(ste>0){ // if it's quantised you check for changed output too\r\n\t\tv = floor(v*ste)/ste;\r\n\t\tv = (ma-mi)*v + mi;\r\n\t\tif(outlast.peek(in1) != v){\r\n\t\t\toutlast.poke(v,in1);\r\n\t\t\tout2 = v;\r\n\t\t\tout1 = in1;\r\n\t\t}else{\r\n\t\t\tout1 = -1;\r\n\t\t}\r\n\t}else{\t//otherwise you know it's changed already so just output\r\n\t\tv = (ma-mi)*v + mi;\r\n\t\tout2 = v;\r\n\t\tout1 = in1;\r\n\t}\r\n}else{ //skip\r\n\tout1 = -1;\r\n}\r\n\r\n",
					"fontface" : 0,
					"fontname" : "<Monospaced>",
					"fontsize" : 12.0,
					"id" : "obj-3",
					"maxclass" : "codebox",
					"numinlets" : 1,
					"numoutlets" : 2,
					"outlettype" : [ "", "" ],
					"patching_rect" : [ 4.0, 30.0, 593.0, 530.0 ]
				}

			}
, 			{
				"box" : 				{
					"id" : "obj-4",
					"maxclass" : "newobj",
					"numinlets" : 1,
					"numoutlets" : 0,
					"patching_rect" : [ 4.0, 565.0, 35.0, 22.0 ],
					"text" : "out 1"
				}

			}
 ],
		"lines" : [ 			{
				"patchline" : 				{
					"destination" : [ "obj-3", 0 ],
					"source" : [ "obj-1", 0 ]
				}

			}
, 			{
				"patchline" : 				{
					"destination" : [ "obj-4", 0 ],
					"source" : [ "obj-3", 0 ]
				}

			}
, 			{
				"patchline" : 				{
					"destination" : [ "obj-8", 0 ],
					"source" : [ "obj-3", 1 ]
				}

			}
 ]
	}

}
