{
    "patcher": {
        "fileversion": 1,
        "appversion": {
            "major": 9,
            "minor": 1,
            "revision": 2,
            "architecture": "x64",
            "modernui": 1
        },
        "classnamespace": "box",
        "rect": [ 34.0, 76.0, 1221.0, 701.0 ],
        "boxes": [
            {
                "box": {
                    "id": "obj-70",
                    "maxclass": "newobj",
                    "numinlets": 1,
                    "numoutlets": 1,
                    "outlettype": [ "" ],
                    "patching_rect": [ 605.0, 312.0, 87.0, 22.0 ],
                    "text": "prepend target"
                }
            },
            {
                "box": {
                    "id": "obj-69",
                    "maxclass": "newobj",
                    "numinlets": 1,
                    "numoutlets": 1,
                    "outlettype": [ "list" ],
                    "patching_rect": [ 605.0, 280.0, 66.0, 22.0 ],
                    "text": "listfunnel 0"
                }
            },
            {
                "box": {
                    "id": "obj-67",
                    "maxclass": "message",
                    "numinlets": 2,
                    "numoutlets": 1,
                    "outlettype": [ "" ],
                    "patching_rect": [ 564.0, 216.0, 84.0, 22.0 ],
                    "presentation_linecount": 3,
                    "text": "paramindexes"
                }
            },
            {
                "box": {
                    "id": "obj-68",
                    "maxclass": "newobj",
                    "numinlets": 1,
                    "numoutlets": 4,
                    "outlettype": [ "", "", "", "" ],
                    "patching_rect": [ 605.0, 248.0, 50.5, 22.0 ],
                    "saved_object_attributes": {
                        "embed": 0,
                        "precision": 6
                    },
                    "text": "coll"
                }
            },
            {
                "box": {
                    "id": "obj-66",
                    "maxclass": "newobj",
                    "numinlets": 1,
                    "numoutlets": 0,
                    "patching_rect": [ 623.0, 1177.0, 52.0, 22.0 ],
                    "text": "print out"
                }
            },
            {
                "box": {
                    "id": "obj-20",
                    "maxclass": "message",
                    "numinlets": 2,
                    "numoutlets": 1,
                    "outlettype": [ "" ],
                    "patching_rect": [ 309.0, 432.0, 39.0, 22.0 ],
                    "text": "$2 $1"
                }
            },
            {
                "box": {
                    "id": "obj-57",
                    "maxclass": "newobj",
                    "numinlets": 1,
                    "numoutlets": 1,
                    "outlettype": [ "" ],
                    "patching_rect": [ 373.0, 669.0, 77.0, 22.0 ],
                    "text": "loadmess 10"
                }
            },
            {
                "box": {
                    "id": "obj-48",
                    "linecount": 8,
                    "maxclass": "message",
                    "numinlets": 2,
                    "numoutlets": 1,
                    "outlettype": [ "" ],
                    "patching_rect": [ 1399.0, 362.0, 50.0, 119.0 ],
                    "text": "1 1 1 1 1 1 1 1 1 1 1 1 1 1 1 1 1 1 1 1 1 1 1 1 1 1 1 1 1 1 1 1"
                }
            },
            {
                "box": {
                    "id": "obj-58",
                    "maxclass": "toggle",
                    "numinlets": 1,
                    "numoutlets": 1,
                    "outlettype": [ "int" ],
                    "parameter_enable": 0,
                    "patching_rect": [ 46.0, 406.0, 24.0, 24.0 ]
                }
            },
            {
                "box": {
                    "id": "obj-17",
                    "maxclass": "number",
                    "numinlets": 1,
                    "numoutlets": 2,
                    "outlettype": [ "", "bang" ],
                    "parameter_enable": 0,
                    "patching_rect": [ 373.0, 699.0, 50.0, 22.0 ]
                }
            },
            {
                "box": {
                    "code": "//todo - store param names, display them\r\n//import the colour list and copy over the algo\r\n\r\nvar voice_parameter_buffer = new Buffer(\"voice_parameter_buffer\"); \r\nvar parameter_value_buffer = new Buffer(\"parameter_value_buffer\"); \r\n\r\n\r\nvar config = new Dict;\r\nconfig.name = \"config\";\r\nvar blocks = new Dict;\r\nblocks.name = \"blocks\";\r\nvar blocktypes = new Dict;\r\nblocktypes.name = \"blocktypes\";\r\n//var voicemap = new Dict;\r\n//voicemap.name = \"voicemap\";\r\n\r\nvar MAX_PARAMETERS=256;\r\n\r\nlet knob_properties = [];\r\n\r\nfunction loadbang(){\r\n\tMAX_PARAMETERS = config.get(\"MAX_PARAMETERS\");\r\n}\r\n\r\nfunction msg_int(cs){\r\n    // query doesn't work:\r\n    // outlet(0,[90,01,02,0,0]);\r\n    let m=0; //set mode\r\n    outlet(0,[90,01,03,0,2,m,0]);\r\n    //start config\r\n    let command = [90,01,04,00,00];\r\n    outlet(0,command);\r\n    \r\n    for(let i=1;i<8;i++){\r\n        knob_setup(i,cs);\r\n        post(\"\\nsetup\",i);\r\n    }\r\n    \r\n    //end config\r\n    command = [90,01,05,00,00];\r\n    outlet(0,command);  \r\n}\r\n   //set knob control config:\r\n    /*\r\n    5A 02 07 <CL:2 SI CI CM CC CP NA:2 MN:2 MX:2 CN:0D CS HM IP1 IP2 HS SN:HS*0D>\r\nCL = Command data length, MSB followed by LSB = 001D + (HS * 0D)\r\nSI = Setup index: 00 – 3F\r\nCI = Control index: 00 – 1F\r\nCM = Control Mode: CC-7BIT (00), CC-14BIT (01), NRPN-7BIT (02), NRPN-14-BIT (03)\r\nCC = Control channel: 01 - 10\r\nCP = Control param\r\nNA = Control Mode is NRPN: NRPN address\r\nAll other Control Modes this is unused, set to 0000\r\nMN = Min value, set the MSB to 00 for 7-BIT mode\r\nMX = Max value, set the MSB to 00 for 7-BIT mode\r\nCN = Control name: 0D-byte NULL terminated ASCII string, padded with 00s if needed\r\nCS = CS = Colour scheme: 00 - 52\r\nHM = Haptic mode: KNOB_300 (00), KNOB_N_STEP (01), KNOB_300_CENTRE_INDENT (02)\r\nIP1 = Indent position 1: 00 – 7F, FF if unused, only applies for KNOB_300\r\nIP2 = Indent position 2: 00 – 7F, FF if unused, only applies for KNOB_300\r\nHS = Haptic steps: 02 - 10, only applies for KNOB_N_STEP\r\nSN = An array of HS x 0D-byte NULL terminated ASCII strings, each string padded with 00s if\r\nneeded*/\r\nfunction knob_setup(num,cs){ \r\n    let hm = 0;\r\n    let hs = 0;\r\n    let cl = 28 + (hs * 12);\r\n    let cl2 = Math.floor(cl/256);\r\n    cl = cl % 256;\r\n    command = [90,02,07,cl2,cl,0,num,\r\n        0,//cm\r\n        1,num, 0,0, 0,0, 0,127];\r\n    let cname = !(knob_properties[num]?.pname) ? \"Benny \"+num : knob_properties[num]?.pname;\r\n    post(cname);\r\n    for(let i=0;i<12;i++){\r\n        if(i<cname.length){\r\n            command.push(cname.charCodeAt(i));\r\n        }else{\r\n            command.push(0);\r\n        }\r\n    }\r\n    command.push(0);\r\n    //let cs = 22; //colour scheme 0-52h\r\n    cs = Math.max(0,Math.min(82,cs));\r\n    command.push(cs);\r\n    command.push(0,0,127,0);\r\n    outlet(0,command);\r\n \r\n}\r\n\r\nfunction target(k, index){\r\n\tif(index == -1){\r\n\t\t//outlet(0,\"/monome/ring/all\",arc,0);\r\n\t}else if(index == -0.5){\r\n        //encoder to core mode\r\n\t\t//outlet(0,\"/monome/ring/all\",arc,4);\r\n\t}else if(index>=0){\r\n\t\tvar t_block = Math.floor( index / MAX_PARAMETERS);\r\n\t\tvar t_param = index - t_block * MAX_PARAMETERS;\r\n\t\tvar btype = blocks.get(\"blocks[\"+t_block+\"]::name\");\r\n\t\tvar ptype = blocktypes.get(btype+\"::parameters[\"+t_param+\"]::type\");\r\n\t\tvar pvalues = blocktypes.get(btype+\"::parameters[\"+t_param+\"]::values\");\r\n        var pname = blocktypes.get(btype+\"::parameters[\"+t_param+\"]::name\");\r\n        knob_properties[k] = { t_block, t_param, btype, ptype, pvalues, pname };\r\n        return pname;\r\n\t}else if(index<-1){\r\n\t\tvar t_block = Math.floor( -index / MAX_PARAMETERS);\r\n\t\tvar t_param = -index - t_block * MAX_PARAMETERS;\r\n\t\tvar btype = blocks.get(\"blocks[\"+t_block+\"]::name\");\r\n\t\tvar ptype = blocktypes.get(btype+\"::parameters[\"+t_param+\"]::type\");\r\n\t\tvar pvalues = blocktypes.get(btype+\"::parameters[\"+t_param+\"]::values\");\r\n        var pname = blocktypes.get(btype+\"::parameters[\"+t_param+\"]::name\");\r\n        knob_properties[k] = { t_block, t_param, btype, ptype, pvalues, pname };\r\n        return pname;\r\n\t}\r\n}",
                    "filename": "none",
                    "fontface": 0,
                    "fontname": "<Monospaced>",
                    "fontsize": 12.0,
                    "id": "obj-21",
                    "maxclass": "v8.codebox",
                    "numinlets": 1,
                    "numoutlets": 1,
                    "outlettype": [ "" ],
                    "patching_rect": [ 154.0, 726.0, 1043.0, 393.0 ],
                    "saved_object_attributes": {
                        "parameter_enable": 0
                    }
                }
            },
            {
                "box": {
                    "id": "obj-22",
                    "maxclass": "newobj",
                    "numinlets": 1,
                    "numoutlets": 2,
                    "outlettype": [ "int", "" ],
                    "patching_rect": [ 333.0, 1144.0, 279.0, 22.0 ],
                    "text": "serial e 115200 @databits 8 @parity 0 @stopbits 1"
                }
            },
            {
                "box": {
                    "id": "obj-23",
                    "maxclass": "button",
                    "numinlets": 1,
                    "numoutlets": 1,
                    "outlettype": [ "bang" ],
                    "parameter_enable": 0,
                    "patching_rect": [ 324.0, 1181.0, 24.0, 24.0 ]
                }
            },
            {
                "box": {
                    "id": "obj-27",
                    "maxclass": "newobj",
                    "numinlets": 1,
                    "numoutlets": 0,
                    "patching_rect": [ 440.0, 1177.0, 87.0, 22.0 ],
                    "text": "print 6STATUS"
                }
            },
            {
                "box": {
                    "id": "obj-34",
                    "maxclass": "newobj",
                    "numinlets": 1,
                    "numoutlets": 0,
                    "patching_rect": [ 352.0, 1182.0, 92.0, 22.0 ],
                    "text": "print 6RETURN"
                }
            },
            {
                "box": {
                    "id": "obj-15",
                    "maxclass": "newobj",
                    "numinlets": 1,
                    "numoutlets": 1,
                    "outlettype": [ "" ],
                    "patching_rect": [ 908.0, 561.0, 137.0, 22.0 ],
                    "text": "loadmess disable_ssp 0"
                }
            },
            {
                "box": {
                    "id": "obj-12",
                    "maxclass": "message",
                    "numinlets": 2,
                    "numoutlets": 1,
                    "outlettype": [ "" ],
                    "patching_rect": [ 328.0, 216.0, 37.0, 22.0 ],
                    "text": "voice"
                }
            },
            {
                "box": {
                    "id": "obj-13",
                    "maxclass": "newobj",
                    "numinlets": 1,
                    "numoutlets": 4,
                    "outlettype": [ "", "", "", "" ],
                    "patching_rect": [ 350.0, 251.0, 50.5, 22.0 ],
                    "saved_object_attributes": {
                        "embed": 0,
                        "precision": 6
                    },
                    "text": "coll"
                }
            },
            {
                "box": {
                    "id": "obj-372",
                    "maxclass": "message",
                    "numinlets": 2,
                    "numoutlets": 1,
                    "outlettype": [ "" ],
                    "patching_rect": [ 1400.0, 617.0, 39.0, 22.0 ],
                    "text": "$2 $1"
                }
            },
            {
                "box": {
                    "id": "obj-362",
                    "maxclass": "newobj",
                    "numinlets": 1,
                    "numoutlets": 1,
                    "outlettype": [ "list" ],
                    "patching_rect": [ 1380.0, 318.0, 66.0, 22.0 ],
                    "text": "listfunnel 0"
                }
            },
            {
                "box": {
                    "id": "obj-361",
                    "maxclass": "message",
                    "numinlets": 2,
                    "numoutlets": 1,
                    "outlettype": [ "" ],
                    "patching_rect": [ 1380.0, 252.0, 79.0, 22.0 ],
                    "text": "brightnesslist"
                }
            },
            {
                "box": {
                    "id": "obj-359",
                    "maxclass": "newobj",
                    "numinlets": 1,
                    "numoutlets": 4,
                    "outlettype": [ "", "", "", "" ],
                    "patching_rect": [ 1380.0, 284.0, 129.0, 22.0 ],
                    "saved_object_attributes": {
                        "embed": 0,
                        "precision": 6
                    },
                    "text": "coll #0controllerdata"
                }
            },
            {
                "box": {
                    "id": "obj-100",
                    "maxclass": "newobj",
                    "numinlets": 2,
                    "numoutlets": 1,
                    "outlettype": [ "" ],
                    "patching_rect": [ 1400.0, 579.0, 32.0, 22.0 ],
                    "text": "gate"
                }
            },
            {
                "box": {
                    "id": "obj-133",
                    "maxclass": "newobj",
                    "numinlets": 3,
                    "numoutlets": 0,
                    "patching_rect": [ 1400.0, 654.0, 40.0, 22.0 ],
                    "text": "ctlout"
                }
            },
            {
                "box": {
                    "id": "obj-55",
                    "maxclass": "newobj",
                    "numinlets": 2,
                    "numoutlets": 1,
                    "outlettype": [ "" ],
                    "patching_rect": [ 103.0, 348.0, 54.0, 22.0 ],
                    "text": "pack 0 0"
                }
            },
            {
                "box": {
                    "id": "obj-54",
                    "maxclass": "newobj",
                    "numinlets": 2,
                    "numoutlets": 1,
                    "outlettype": [ "int" ],
                    "patching_rect": [ 103.0, 315.0, 29.5, 22.0 ],
                    "text": "+ 0"
                }
            },
            {
                "box": {
                    "id": "obj-53",
                    "maxclass": "newobj",
                    "numinlets": 1,
                    "numoutlets": 2,
                    "outlettype": [ "int", "int" ],
                    "patching_rect": [ 103.0, 271.0, 67.0, 22.0 ],
                    "text": "unpack 0 0"
                }
            },
            {
                "box": {
                    "id": "obj-51",
                    "maxclass": "newobj",
                    "numinlets": 1,
                    "numoutlets": 1,
                    "outlettype": [ "list" ],
                    "patching_rect": [ 1067.0, 315.0, 66.0, 22.0 ],
                    "text": "listfunnel 0"
                }
            },
            {
                "box": {
                    "id": "obj-50",
                    "maxclass": "newobj",
                    "numinlets": 1,
                    "numoutlets": 1,
                    "outlettype": [ "" ],
                    "patching_rect": [ 1192.0, 647.0, 137.0, 22.0 ],
                    "text": "prepend colours_enable"
                }
            },
            {
                "box": {
                    "id": "obj-47",
                    "maxclass": "newobj",
                    "numinlets": 1,
                    "numoutlets": 2,
                    "outlettype": [ "", "int" ],
                    "patching_rect": [ 1251.0, 161.0, 29.5, 22.0 ],
                    "text": "t l 0"
                }
            },
            {
                "box": {
                    "id": "obj-44",
                    "maxclass": "newobj",
                    "numinlets": 1,
                    "numoutlets": 3,
                    "outlettype": [ "", "", "" ],
                    "patching_rect": [ 1251.0, 196.0, 171.0, 22.0 ],
                    "saved_object_attributes": {
                        "legacy": 0
                    },
                    "text": "dict.unpack colour: brightness:"
                }
            },
            {
                "box": {
                    "id": "obj-141",
                    "maxclass": "newobj",
                    "numinlets": 2,
                    "numoutlets": 1,
                    "outlettype": [ "" ],
                    "patching_rect": [ 1054.0, 357.0, 32.0, 22.0 ],
                    "text": "gate"
                }
            },
            {
                "box": {
                    "id": "obj-49",
                    "maxclass": "newobj",
                    "numinlets": 1,
                    "numoutlets": 2,
                    "outlettype": [ "", "int" ],
                    "patching_rect": [ 1251.0, 226.0, 29.5, 22.0 ],
                    "text": "t l 1"
                }
            },
            {
                "box": {
                    "id": "obj-62",
                    "maxclass": "newobj",
                    "numinlets": 1,
                    "numoutlets": 3,
                    "outlettype": [ "", "", "" ],
                    "patching_rect": [ 1143.0, 315.0, 204.0, 22.0 ],
                    "saved_object_attributes": {
                        "legacy": 1
                    },
                    "text": "dict.unpack channel: first: @legacy 1"
                }
            },
            {
                "box": {
                    "id": "obj-346",
                    "maxclass": "newobj",
                    "numinlets": 1,
                    "numoutlets": 2,
                    "outlettype": [ "bang", "" ],
                    "patching_rect": [ 1067.0, 172.0, 29.5, 22.0 ],
                    "text": "t b l"
                }
            },
            {
                "box": {
                    "id": "obj-302",
                    "maxclass": "newobj",
                    "numinlets": 2,
                    "numoutlets": 2,
                    "outlettype": [ "", "" ],
                    "patching_rect": [ 1067.0, 274.0, 51.0, 22.0 ],
                    "text": "zl group"
                }
            },
            {
                "box": {
                    "id": "obj-25",
                    "maxclass": "newobj",
                    "numinlets": 2,
                    "numoutlets": 2,
                    "outlettype": [ "", "" ],
                    "patching_rect": [ 1078.0, 204.0, 61.0, 22.0 ],
                    "text": "zl group 3"
                }
            },
            {
                "box": {
                    "id": "obj-41",
                    "maxclass": "newobj",
                    "numinlets": 1,
                    "numoutlets": 1,
                    "outlettype": [ "int" ],
                    "patcher": {
                        "fileversion": 1,
                        "appversion": {
                            "major": 9,
                            "minor": 1,
                            "revision": 2,
                            "architecture": "x64",
                            "modernui": 1
                        },
                        "classnamespace": "box",
                        "rect": [ 59.0, 107.0, 640.0, 648.0 ],
                        "boxes": [
                            {
                                "box": {
                                    "id": "obj-5",
                                    "maxclass": "newobj",
                                    "numinlets": 2,
                                    "numoutlets": 2,
                                    "outlettype": [ "", "" ],
                                    "patching_rect": [ 353.0, 157.0, 71.0, 22.0 ],
                                    "text": "routepass 0"
                                }
                            },
                            {
                                "box": {
                                    "id": "obj-4",
                                    "maxclass": "newobj",
                                    "numinlets": 2,
                                    "numoutlets": 1,
                                    "outlettype": [ "" ],
                                    "patching_rect": [ 202.0, 161.838134765625, 32.0, 22.0 ],
                                    "text": "gate"
                                }
                            },
                            {
                                "box": {
                                    "id": "obj-3",
                                    "maxclass": "newobj",
                                    "numinlets": 2,
                                    "numoutlets": 1,
                                    "outlettype": [ "int" ],
                                    "patching_rect": [ 223.0, 126.0, 29.5, 22.0 ],
                                    "text": "> 0"
                                }
                            },
                            {
                                "box": {
                                    "id": "obj-2",
                                    "maxclass": "newobj",
                                    "numinlets": 2,
                                    "numoutlets": 2,
                                    "outlettype": [ "", "" ],
                                    "patching_rect": [ 223.0, 95.0, 43.0, 22.0 ],
                                    "text": "zl sum"
                                }
                            },
                            {
                                "box": {
                                    "id": "obj-1",
                                    "maxclass": "newobj",
                                    "numinlets": 1,
                                    "numoutlets": 2,
                                    "outlettype": [ "", "" ],
                                    "patching_rect": [ 212.0, 63.0, 29.5, 22.0 ],
                                    "text": "t l l"
                                }
                            },
                            {
                                "box": {
                                    "id": "obj-181",
                                    "maxclass": "newobj",
                                    "numinlets": 2,
                                    "numoutlets": 1,
                                    "outlettype": [ "int" ],
                                    "patching_rect": [ 275.0, 452.0, 43.0, 22.0 ],
                                    "text": "% 128"
                                }
                            },
                            {
                                "box": {
                                    "id": "obj-180",
                                    "maxclass": "newobj",
                                    "numinlets": 2,
                                    "numoutlets": 1,
                                    "outlettype": [ "int" ],
                                    "patching_rect": [ 275.0, 424.0, 39.0, 22.0 ],
                                    "text": "!- 208"
                                }
                            },
                            {
                                "box": {
                                    "id": "obj-173",
                                    "maxclass": "newobj",
                                    "numinlets": 2,
                                    "numoutlets": 1,
                                    "outlettype": [ "int" ],
                                    "patching_rect": [ 275.0, 393.0, 29.5, 22.0 ],
                                    "text": "/ 2"
                                }
                            },
                            {
                                "box": {
                                    "id": "obj-172",
                                    "maxclass": "newobj",
                                    "numinlets": 1,
                                    "numoutlets": 7,
                                    "outlettype": [ "", "", "", "", "", "", "" ],
                                    "patching_rect": [ 223.0, 361.0, 82.0, 22.0 ],
                                    "text": "unjoin 6"
                                }
                            },
                            {
                                "box": {
                                    "id": "obj-162",
                                    "maxclass": "newobj",
                                    "numinlets": 1,
                                    "numoutlets": 3,
                                    "outlettype": [ "bang", "bang", "" ],
                                    "patching_rect": [ 202.0, 201.0, 40.0, 22.0 ],
                                    "text": "t b b l"
                                }
                            },
                            {
                                "box": {
                                    "id": "obj-161",
                                    "maxclass": "message",
                                    "numinlets": 2,
                                    "numoutlets": 1,
                                    "outlettype": [ "" ],
                                    "patching_rect": [ 179.0, 271.0, 63.0, 22.0 ],
                                    "text": "getcell 0 0"
                                }
                            },
                            {
                                "box": {
                                    "id": "obj-158",
                                    "maxclass": "newobj",
                                    "numinlets": 1,
                                    "numoutlets": 2,
                                    "outlettype": [ "jit_matrix", "" ],
                                    "patching_rect": [ 50.0, 331.0, 192.0, 22.0 ],
                                    "text": "jit.matrix @dim 1 1 @planecount 4"
                                }
                            },
                            {
                                "box": {
                                    "id": "obj-155",
                                    "maxclass": "newobj",
                                    "numinlets": 8,
                                    "numoutlets": 1,
                                    "outlettype": [ "" ],
                                    "patching_rect": [ 50.0, 201.0, 144.0, 22.0 ],
                                    "text": "pak setcell 0 0 val 1 0 0 0"
                                }
                            },
                            {
                                "box": {
                                    "id": "obj-149",
                                    "maxclass": "newobj",
                                    "numinlets": 1,
                                    "numoutlets": 2,
                                    "outlettype": [ "jit_matrix", "" ],
                                    "patching_rect": [ 50.0, 240.0, 192.0, 22.0 ],
                                    "text": "jit.matrix @dim 1 1 @planecount 4"
                                }
                            },
                            {
                                "box": {
                                    "id": "obj-124",
                                    "maxclass": "newobj",
                                    "numinlets": 1,
                                    "numoutlets": 2,
                                    "outlettype": [ "jit_matrix", "" ],
                                    "patching_rect": [ 50.0, 291.0, 60.0, 22.0 ],
                                    "text": "jit.rgb2hsl"
                                }
                            },
                            {
                                "box": {
                                    "comment": "",
                                    "id": "obj-186",
                                    "index": 1,
                                    "maxclass": "inlet",
                                    "numinlets": 0,
                                    "numoutlets": 1,
                                    "outlettype": [ "" ],
                                    "patching_rect": [ 212.0, 12.0, 30.0, 30.0 ]
                                }
                            },
                            {
                                "box": {
                                    "comment": "",
                                    "id": "obj-187",
                                    "index": 1,
                                    "maxclass": "outlet",
                                    "numinlets": 1,
                                    "numoutlets": 0,
                                    "patching_rect": [ 353.0, 524.0, 30.0, 30.0 ]
                                }
                            }
                        ],
                        "lines": [
                            {
                                "patchline": {
                                    "destination": [ "obj-2", 0 ],
                                    "source": [ "obj-1", 1 ]
                                }
                            },
                            {
                                "patchline": {
                                    "destination": [ "obj-4", 1 ],
                                    "source": [ "obj-1", 0 ]
                                }
                            },
                            {
                                "patchline": {
                                    "destination": [ "obj-158", 0 ],
                                    "source": [ "obj-124", 0 ]
                                }
                            },
                            {
                                "patchline": {
                                    "destination": [ "obj-124", 0 ],
                                    "source": [ "obj-149", 0 ]
                                }
                            },
                            {
                                "patchline": {
                                    "destination": [ "obj-149", 0 ],
                                    "source": [ "obj-155", 0 ]
                                }
                            },
                            {
                                "patchline": {
                                    "destination": [ "obj-172", 0 ],
                                    "source": [ "obj-158", 1 ]
                                }
                            },
                            {
                                "patchline": {
                                    "destination": [ "obj-158", 0 ],
                                    "source": [ "obj-161", 0 ]
                                }
                            },
                            {
                                "patchline": {
                                    "destination": [ "obj-149", 0 ],
                                    "source": [ "obj-162", 1 ]
                                }
                            },
                            {
                                "patchline": {
                                    "destination": [ "obj-155", 5 ],
                                    "source": [ "obj-162", 2 ]
                                }
                            },
                            {
                                "patchline": {
                                    "destination": [ "obj-161", 0 ],
                                    "source": [ "obj-162", 0 ]
                                }
                            },
                            {
                                "patchline": {
                                    "destination": [ "obj-173", 0 ],
                                    "source": [ "obj-172", 5 ]
                                }
                            },
                            {
                                "patchline": {
                                    "destination": [ "obj-180", 0 ],
                                    "source": [ "obj-173", 0 ]
                                }
                            },
                            {
                                "patchline": {
                                    "destination": [ "obj-181", 0 ],
                                    "source": [ "obj-180", 0 ]
                                }
                            },
                            {
                                "patchline": {
                                    "destination": [ "obj-187", 0 ],
                                    "source": [ "obj-181", 0 ]
                                }
                            },
                            {
                                "patchline": {
                                    "destination": [ "obj-1", 0 ],
                                    "source": [ "obj-186", 0 ]
                                }
                            },
                            {
                                "patchline": {
                                    "destination": [ "obj-3", 0 ],
                                    "source": [ "obj-2", 0 ]
                                }
                            },
                            {
                                "patchline": {
                                    "destination": [ "obj-4", 0 ],
                                    "order": 1,
                                    "source": [ "obj-3", 0 ]
                                }
                            },
                            {
                                "patchline": {
                                    "destination": [ "obj-5", 0 ],
                                    "order": 0,
                                    "source": [ "obj-3", 0 ]
                                }
                            },
                            {
                                "patchline": {
                                    "destination": [ "obj-162", 0 ],
                                    "source": [ "obj-4", 0 ]
                                }
                            },
                            {
                                "patchline": {
                                    "destination": [ "obj-187", 0 ],
                                    "source": [ "obj-5", 0 ]
                                }
                            }
                        ]
                    },
                    "patching_rect": [ 1078.0, 240.0, 149.0, 22.0 ],
                    "text": "p RGBtoMidiFighterColour"
                }
            },
            {
                "box": {
                    "id": "obj-14",
                    "maxclass": "message",
                    "numinlets": 2,
                    "numoutlets": 1,
                    "outlettype": [ "" ],
                    "patching_rect": [ 1011.0, 102.0, 56.0, 22.0 ],
                    "text": "colourlist"
                }
            },
            {
                "box": {
                    "id": "obj-16",
                    "maxclass": "newobj",
                    "numinlets": 1,
                    "numoutlets": 2,
                    "outlettype": [ "bang", "" ],
                    "patching_rect": [ 1011.0, 68.0, 29.5, 22.0 ],
                    "text": "t b l"
                }
            },
            {
                "box": {
                    "id": "obj-18",
                    "maxclass": "message",
                    "numinlets": 2,
                    "numoutlets": 1,
                    "outlettype": [ "" ],
                    "patching_rect": [ 1067.0, 102.0, 123.0, 22.0 ],
                    "text": "refer $1controllerdata"
                }
            },
            {
                "box": {
                    "id": "obj-19",
                    "maxclass": "newobj",
                    "numinlets": 1,
                    "numoutlets": 4,
                    "outlettype": [ "", "", "", "" ],
                    "patching_rect": [ 1067.0, 134.0, 50.5, 22.0 ],
                    "saved_object_attributes": {
                        "embed": 0,
                        "precision": 6
                    },
                    "text": "coll"
                }
            },
            {
                "box": {
                    "id": "obj-10",
                    "maxclass": "newobj",
                    "numinlets": 1,
                    "numoutlets": 1,
                    "outlettype": [ "" ],
                    "patching_rect": [ 476.0, 324.0, 19.0, 22.0 ],
                    "text": "t l"
                }
            },
            {
                "box": {
                    "id": "obj-9",
                    "maxclass": "newobj",
                    "numinlets": 2,
                    "numoutlets": 2,
                    "outlettype": [ "", "" ],
                    "patching_rect": [ 476.0, 285.0, 77.0, 22.0 ],
                    "text": "route symbol"
                }
            },
            {
                "box": {
                    "id": "obj-299",
                    "maxclass": "newobj",
                    "numinlets": 1,
                    "numoutlets": 2,
                    "outlettype": [ "", "int" ],
                    "patching_rect": [ 211.0, 285.0, 29.5, 22.0 ],
                    "text": "t l 1"
                }
            },
            {
                "box": {
                    "id": "obj-296",
                    "maxclass": "newobj",
                    "numinlets": 1,
                    "numoutlets": 3,
                    "outlettype": [ "", "", "" ],
                    "patching_rect": [ 211.0, 326.0, 144.0, 22.0 ],
                    "saved_object_attributes": {
                        "legacy": 0
                    },
                    "text": "dict.unpack channel: first:"
                }
            },
            {
                "box": {
                    "id": "obj-82",
                    "maxclass": "newobj",
                    "numinlets": 2,
                    "numoutlets": 1,
                    "outlettype": [ "" ],
                    "patching_rect": [ 200.0, 434.0, 32.0, 22.0 ],
                    "text": "gate"
                }
            },
            {
                "box": {
                    "id": "obj-81",
                    "maxclass": "newobj",
                    "numinlets": 2,
                    "numoutlets": 1,
                    "outlettype": [ "int" ],
                    "patching_rect": [ 200.0, 396.0, 29.5, 22.0 ],
                    "text": "=="
                }
            },
            {
                "box": {
                    "id": "obj-43",
                    "linecount": 12,
                    "maxclass": "newobj",
                    "numinlets": 1,
                    "numoutlets": 0,
                    "patching_rect": [ 328.0, 496.0, 48.0, 174.0 ],
                    "saved_object_attributes": {
                        "attr_comment": "value changes out, as knob no, difference",
                        "c": "value changes out, as knob no, difference"
                    },
                    "text": "out 2 @attr_comment \"value changes out, as knob no, difference\""
                }
            },
            {
                "box": {
                    "id": "obj-42",
                    "linecount": 4,
                    "maxclass": "comment",
                    "numinlets": 1,
                    "numoutlets": 0,
                    "patching_rect": [ 20.0, 271.0, 76.0, 62.0 ],
                    "text": "values out to controller for eg led rings etc"
                }
            },
            {
                "box": {
                    "id": "obj-103",
                    "maxclass": "newobj",
                    "numinlets": 2,
                    "numoutlets": 1,
                    "outlettype": [ "" ],
                    "patching_rect": [ 90.0, 412.0, 32.0, 22.0 ],
                    "text": "gate"
                }
            },
            {
                "box": {
                    "id": "obj-122",
                    "maxclass": "message",
                    "numinlets": 2,
                    "numoutlets": 1,
                    "outlettype": [ "" ],
                    "patching_rect": [ 140.0, 381.0, 39.0, 22.0 ],
                    "text": "$2 $1"
                }
            },
            {
                "box": {
                    "id": "obj-120",
                    "maxclass": "newobj",
                    "numinlets": 3,
                    "numoutlets": 0,
                    "patching_rect": [ 90.0, 449.0, 40.0, 22.0 ],
                    "text": "ctlout"
                }
            },
            {
                "box": {
                    "id": "obj-63",
                    "maxclass": "newobj",
                    "numinlets": 1,
                    "numoutlets": 3,
                    "outlettype": [ "", "", "" ],
                    "patching_rect": [ 20.0, 236.0, 204.0, 22.0 ],
                    "saved_object_attributes": {
                        "legacy": 1
                    },
                    "text": "dict.unpack channel: first: @legacy 1"
                }
            },
            {
                "box": {
                    "id": "obj-24",
                    "maxclass": "newobj",
                    "numinlets": 4,
                    "numoutlets": 1,
                    "outlettype": [ "" ],
                    "patcher": {
                        "fileversion": 1,
                        "appversion": {
                            "major": 9,
                            "minor": 1,
                            "revision": 2,
                            "architecture": "x64",
                            "modernui": 1
                        },
                        "classnamespace": "box",
                        "rect": [ 0.0, 0.0, 1000.0, 780.0 ],
                        "boxes": [
                            {
                                "box": {
                                    "id": "obj-9",
                                    "maxclass": "newobj",
                                    "numinlets": 1,
                                    "numoutlets": 1,
                                    "outlettype": [ "" ],
                                    "patching_rect": [ 50.0, 440.0, 89.0, 22.0 ],
                                    "text": "prepend resets"
                                }
                            },
                            {
                                "box": {
                                    "id": "obj-202",
                                    "maxclass": "newobj",
                                    "numinlets": 2,
                                    "numoutlets": 1,
                                    "outlettype": [ "int" ],
                                    "patching_rect": [ 50.0, 404.0, 29.5, 22.0 ],
                                    "text": "-"
                                }
                            },
                            {
                                "box": {
                                    "id": "obj-210",
                                    "maxclass": "newobj",
                                    "numinlets": 2,
                                    "numoutlets": 1,
                                    "outlettype": [ "" ],
                                    "patching_rect": [ 50.0, 370.0, 32.0, 22.0 ],
                                    "text": "gate"
                                }
                            },
                            {
                                "box": {
                                    "id": "obj-230",
                                    "maxclass": "newobj",
                                    "numinlets": 2,
                                    "numoutlets": 1,
                                    "outlettype": [ "int" ],
                                    "patching_rect": [ 111.0, 372.0, 29.5, 22.0 ],
                                    "text": "> 0"
                                }
                            },
                            {
                                "box": {
                                    "id": "obj-234",
                                    "maxclass": "newobj",
                                    "numinlets": 1,
                                    "numoutlets": 2,
                                    "outlettype": [ "int", "int" ],
                                    "patching_rect": [ 63.0, 340.0, 67.0, 22.0 ],
                                    "text": "unpack 0 0"
                                }
                            },
                            {
                                "box": {
                                    "id": "obj-243",
                                    "maxclass": "newobj",
                                    "numinlets": 2,
                                    "numoutlets": 1,
                                    "outlettype": [ "" ],
                                    "patching_rect": [ 62.0, 310.0, 32.0, 22.0 ],
                                    "text": "gate"
                                }
                            },
                            {
                                "box": {
                                    "id": "obj-252",
                                    "maxclass": "newobj",
                                    "numinlets": 3,
                                    "numoutlets": 1,
                                    "outlettype": [ "" ],
                                    "patching_rect": [ 95.0, 271.0, 62.0, 22.0 ],
                                    "text": "switch 2 0"
                                }
                            },
                            {
                                "box": {
                                    "id": "obj-254",
                                    "maxclass": "newobj",
                                    "numinlets": 1,
                                    "numoutlets": 2,
                                    "outlettype": [ "int", "int" ],
                                    "patching_rect": [ 98.0, 193.0, 67.0, 22.0 ],
                                    "text": "unpack 0 0"
                                }
                            },
                            {
                                "box": {
                                    "id": "obj-255",
                                    "maxclass": "newobj",
                                    "numinlets": 2,
                                    "numoutlets": 1,
                                    "outlettype": [ "list" ],
                                    "patching_rect": [ 98.0, 164.0, 61.0, 22.0 ],
                                    "text": "funnel 2 1"
                                }
                            },
                            {
                                "box": {
                                    "id": "obj-256",
                                    "maxclass": "newobj",
                                    "numinlets": 3,
                                    "numoutlets": 3,
                                    "outlettype": [ "bang", "bang", "" ],
                                    "patching_rect": [ 98.0, 132.0, 66.0, 22.0 ],
                                    "text": "sel note cc"
                                }
                            },
                            {
                                "box": {
                                    "id": "obj-257",
                                    "maxclass": "newobj",
                                    "numinlets": 2,
                                    "numoutlets": 1,
                                    "outlettype": [ "int" ],
                                    "patching_rect": [ 63.0, 271.0, 29.5, 22.0 ],
                                    "text": "=="
                                }
                            },
                            {
                                "box": {
                                    "id": "obj-258",
                                    "maxclass": "newobj",
                                    "numinlets": 1,
                                    "numoutlets": 4,
                                    "outlettype": [ "", "", "", "" ],
                                    "patching_rect": [ 98.0, 100.0, 233.0, 22.0 ],
                                    "saved_object_attributes": {
                                        "legacy": 1
                                    },
                                    "text": "dict.unpack type: channel: first: @legacy 1"
                                }
                            },
                            {
                                "box": {
                                    "comment": "",
                                    "id": "obj-10",
                                    "index": 1,
                                    "maxclass": "inlet",
                                    "numinlets": 0,
                                    "numoutlets": 1,
                                    "outlettype": [ "int" ],
                                    "patching_rect": [ 63.0, 40.0, 30.0, 30.0 ]
                                }
                            },
                            {
                                "box": {
                                    "comment": "",
                                    "id": "obj-13",
                                    "index": 2,
                                    "maxclass": "inlet",
                                    "numinlets": 0,
                                    "numoutlets": 1,
                                    "outlettype": [ "" ],
                                    "patching_rect": [ 98.0, 40.0, 30.0, 30.0 ]
                                }
                            },
                            {
                                "box": {
                                    "comment": "",
                                    "id": "obj-19",
                                    "index": 3,
                                    "maxclass": "inlet",
                                    "numinlets": 0,
                                    "numoutlets": 1,
                                    "outlettype": [ "" ],
                                    "patching_rect": [ 133.0, 40.0, 30.0, 30.0 ]
                                }
                            },
                            {
                                "box": {
                                    "comment": "",
                                    "id": "obj-22",
                                    "index": 4,
                                    "maxclass": "inlet",
                                    "numinlets": 0,
                                    "numoutlets": 1,
                                    "outlettype": [ "" ],
                                    "patching_rect": [ 168.0, 40.0, 30.0, 30.0 ]
                                }
                            },
                            {
                                "box": {
                                    "comment": "",
                                    "id": "obj-23",
                                    "index": 1,
                                    "maxclass": "outlet",
                                    "numinlets": 1,
                                    "numoutlets": 0,
                                    "patching_rect": [ 50.0, 522.0, 30.0, 30.0 ]
                                }
                            }
                        ],
                        "lines": [
                            {
                                "patchline": {
                                    "destination": [ "obj-257", 0 ],
                                    "source": [ "obj-10", 0 ]
                                }
                            },
                            {
                                "patchline": {
                                    "destination": [ "obj-258", 0 ],
                                    "source": [ "obj-13", 0 ]
                                }
                            },
                            {
                                "patchline": {
                                    "destination": [ "obj-252", 1 ],
                                    "source": [ "obj-19", 0 ]
                                }
                            },
                            {
                                "patchline": {
                                    "destination": [ "obj-9", 0 ],
                                    "source": [ "obj-202", 0 ]
                                }
                            },
                            {
                                "patchline": {
                                    "destination": [ "obj-202", 0 ],
                                    "source": [ "obj-210", 0 ]
                                }
                            },
                            {
                                "patchline": {
                                    "destination": [ "obj-252", 2 ],
                                    "source": [ "obj-22", 0 ]
                                }
                            },
                            {
                                "patchline": {
                                    "destination": [ "obj-210", 0 ],
                                    "source": [ "obj-230", 0 ]
                                }
                            },
                            {
                                "patchline": {
                                    "destination": [ "obj-210", 1 ],
                                    "source": [ "obj-234", 0 ]
                                }
                            },
                            {
                                "patchline": {
                                    "destination": [ "obj-230", 0 ],
                                    "source": [ "obj-234", 1 ]
                                }
                            },
                            {
                                "patchline": {
                                    "destination": [ "obj-234", 0 ],
                                    "source": [ "obj-243", 0 ]
                                }
                            },
                            {
                                "patchline": {
                                    "destination": [ "obj-243", 1 ],
                                    "source": [ "obj-252", 0 ]
                                }
                            },
                            {
                                "patchline": {
                                    "destination": [ "obj-252", 0 ],
                                    "source": [ "obj-254", 0 ]
                                }
                            },
                            {
                                "patchline": {
                                    "destination": [ "obj-254", 0 ],
                                    "source": [ "obj-255", 0 ]
                                }
                            },
                            {
                                "patchline": {
                                    "destination": [ "obj-255", 1 ],
                                    "source": [ "obj-256", 1 ]
                                }
                            },
                            {
                                "patchline": {
                                    "destination": [ "obj-255", 0 ],
                                    "source": [ "obj-256", 0 ]
                                }
                            },
                            {
                                "patchline": {
                                    "destination": [ "obj-243", 0 ],
                                    "source": [ "obj-257", 0 ]
                                }
                            },
                            {
                                "patchline": {
                                    "destination": [ "obj-202", 1 ],
                                    "source": [ "obj-258", 2 ]
                                }
                            },
                            {
                                "patchline": {
                                    "destination": [ "obj-256", 0 ],
                                    "source": [ "obj-258", 0 ]
                                }
                            },
                            {
                                "patchline": {
                                    "destination": [ "obj-257", 1 ],
                                    "source": [ "obj-258", 1 ]
                                }
                            },
                            {
                                "patchline": {
                                    "destination": [ "obj-23", 0 ],
                                    "source": [ "obj-9", 0 ]
                                }
                            }
                        ]
                    },
                    "patching_rect": [ 583.0, 489.0, 91.0, 22.0 ],
                    "text": "p reset_buttons"
                }
            },
            {
                "box": {
                    "id": "obj-7",
                    "maxclass": "newobj",
                    "numinlets": 1,
                    "numoutlets": 1,
                    "outlettype": [ "" ],
                    "patching_rect": [ 808.0, 633.0, 54.0, 22.0 ],
                    "text": "deferlow"
                }
            },
            {
                "box": {
                    "id": "obj-37",
                    "maxclass": "message",
                    "numinlets": 2,
                    "numoutlets": 1,
                    "outlettype": [ "" ],
                    "patching_rect": [ 691.0, 155.0, 45.0, 22.0 ],
                    "text": "cname"
                }
            },
            {
                "box": {
                    "id": "obj-38",
                    "maxclass": "newobj",
                    "numinlets": 1,
                    "numoutlets": 2,
                    "outlettype": [ "bang", "" ],
                    "patching_rect": [ 691.0, 121.0, 29.5, 22.0 ],
                    "text": "t b l"
                }
            },
            {
                "box": {
                    "id": "obj-39",
                    "maxclass": "message",
                    "numinlets": 2,
                    "numoutlets": 1,
                    "outlettype": [ "" ],
                    "patching_rect": [ 732.0, 129.0, 123.0, 22.0 ],
                    "text": "refer $1controllerdata"
                }
            },
            {
                "box": {
                    "id": "obj-40",
                    "maxclass": "newobj",
                    "numinlets": 1,
                    "numoutlets": 4,
                    "outlettype": [ "", "", "", "" ],
                    "patching_rect": [ 732.0, 187.0, 50.5, 22.0 ],
                    "saved_object_attributes": {
                        "embed": 0,
                        "precision": 6
                    },
                    "text": "coll"
                }
            },
            {
                "box": {
                    "id": "obj-33",
                    "maxclass": "message",
                    "numinlets": 2,
                    "numoutlets": 1,
                    "outlettype": [ "" ],
                    "patching_rect": [ 476.0, 216.0, 29.5, 22.0 ],
                    "text": "port"
                }
            },
            {
                "box": {
                    "id": "obj-36",
                    "maxclass": "newobj",
                    "numinlets": 1,
                    "numoutlets": 4,
                    "outlettype": [ "", "", "", "" ],
                    "patching_rect": [ 476.0, 251.0, 50.5, 22.0 ],
                    "saved_object_attributes": {
                        "embed": 0,
                        "precision": 6
                    },
                    "text": "coll"
                }
            },
            {
                "box": {
                    "id": "obj-28",
                    "maxclass": "message",
                    "numinlets": 2,
                    "numoutlets": 1,
                    "outlettype": [ "" ],
                    "patching_rect": [ 367.0, 216.0, 105.0, 22.0 ],
                    "text": "controller_present"
                }
            },
            {
                "box": {
                    "id": "obj-29",
                    "maxclass": "newobj",
                    "numinlets": 1,
                    "numoutlets": 2,
                    "outlettype": [ "bang", "" ],
                    "patching_rect": [ 367.0, 182.0, 29.5, 22.0 ],
                    "text": "t b l"
                }
            },
            {
                "box": {
                    "id": "obj-30",
                    "maxclass": "message",
                    "numinlets": 2,
                    "numoutlets": 1,
                    "outlettype": [ "" ],
                    "patching_rect": [ 399.0, 182.0, 123.0, 22.0 ],
                    "text": "refer $1controllerdata"
                }
            },
            {
                "box": {
                    "id": "obj-32",
                    "maxclass": "newobj",
                    "numinlets": 1,
                    "numoutlets": 4,
                    "outlettype": [ "", "", "", "" ],
                    "patching_rect": [ 408.0, 251.0, 50.5, 22.0 ],
                    "saved_object_attributes": {
                        "embed": 0,
                        "precision": 6
                    },
                    "text": "coll"
                }
            },
            {
                "box": {
                    "id": "obj-275",
                    "maxclass": "newobj",
                    "numinlets": 2,
                    "numoutlets": 1,
                    "outlettype": [ "" ],
                    "patching_rect": [ 463.0, 392.0, 32.0, 22.0 ],
                    "text": "gate"
                }
            },
            {
                "box": {
                    "id": "obj-31",
                    "maxclass": "newobj",
                    "numinlets": 1,
                    "numoutlets": 1,
                    "outlettype": [ "int" ],
                    "patching_rect": [ 476.0, 362.0, 42.0, 22.0 ],
                    "text": "midiin"
                }
            },
            {
                "box": {
                    "id": "obj-300",
                    "maxclass": "newobj",
                    "numinlets": 1,
                    "numoutlets": 8,
                    "outlettype": [ "", "", "", "int", "int", "", "int", "int" ],
                    "patching_rect": [ 463.0, 429.0, 159.0, 22.0 ],
                    "text": "midiselect @ctl all @note all"
                }
            },
            {
                "box": {
                    "id": "obj-79",
                    "maxclass": "newobj",
                    "numinlets": 5,
                    "numoutlets": 1,
                    "outlettype": [ "" ],
                    "patching_rect": [ 425.0, 489.0, 87.0, 22.0 ],
                    "text": "global_buttons"
                }
            },
            {
                "box": {
                    "id": "obj-8",
                    "maxclass": "newobj",
                    "numinlets": 1,
                    "numoutlets": 1,
                    "outlettype": [ "" ],
                    "patching_rect": [ 808.0, 561.0, 93.0, 22.0 ],
                    "text": "loadmess ready"
                }
            },
            {
                "box": {
                    "id": "obj-11",
                    "maxclass": "newobj",
                    "numinlets": 1,
                    "numoutlets": 1,
                    "outlettype": [ "" ],
                    "patcher": {
                        "fileversion": 1,
                        "appversion": {
                            "major": 9,
                            "minor": 1,
                            "revision": 2,
                            "architecture": "x64",
                            "modernui": 1
                        },
                        "classnamespace": "box",
                        "rect": [ 59.0, 107.0, 1000.0, 780.0 ],
                        "boxes": [
                            {
                                "box": {
                                    "id": "obj-1",
                                    "maxclass": "newobj",
                                    "numinlets": 1,
                                    "numoutlets": 1,
                                    "outlettype": [ "" ],
                                    "patching_rect": [ 50.0, 74.0, 36.0, 22.0 ],
                                    "text": "defer"
                                }
                            },
                            {
                                "box": {
                                    "id": "obj-24",
                                    "maxclass": "newobj",
                                    "numinlets": 1,
                                    "numoutlets": 1,
                                    "outlettype": [ "" ],
                                    "patching_rect": [ 50.0, 133.0, 73.0, 22.0 ],
                                    "text": "prepend get"
                                }
                            },
                            {
                                "box": {
                                    "id": "obj-23",
                                    "maxclass": "newobj",
                                    "numinlets": 2,
                                    "numoutlets": 2,
                                    "outlettype": [ "", "" ],
                                    "patching_rect": [ 61.0, 197.0, 55.0, 22.0 ],
                                    "text": "zl slice 1"
                                }
                            },
                            {
                                "box": {
                                    "id": "obj-22",
                                    "maxclass": "newobj",
                                    "numinlets": 1,
                                    "numoutlets": 1,
                                    "outlettype": [ "" ],
                                    "patching_rect": [ 50.0, 100.0, 165.0, 22.0 ],
                                    "text": "sprintf symout controllers::%s"
                                }
                            },
                            {
                                "box": {
                                    "id": "obj-21",
                                    "maxclass": "newobj",
                                    "numinlets": 2,
                                    "numoutlets": 5,
                                    "outlettype": [ "dictionary", "", "", "", "" ],
                                    "patching_rect": [ 50.0, 165.0, 61.0, 22.0 ],
                                    "saved_object_attributes": {
                                        "legacy": 0,
                                        "parameter_enable": 0,
                                        "parameter_mappable": 0
                                    },
                                    "text": "dict io"
                                }
                            },
                            {
                                "box": {
                                    "id": "obj-107",
                                    "maxclass": "newobj",
                                    "numinlets": 1,
                                    "numoutlets": 3,
                                    "outlettype": [ "", "int", "int" ],
                                    "patching_rect": [ 98.0, 239.0, 40.0, 22.0 ],
                                    "text": "t l 1 0"
                                }
                            },
                            {
                                "box": {
                                    "comment": "",
                                    "id": "obj-8",
                                    "index": 1,
                                    "maxclass": "inlet",
                                    "numinlets": 0,
                                    "numoutlets": 1,
                                    "outlettype": [ "" ],
                                    "patching_rect": [ 50.0, 40.0, 30.0, 30.0 ]
                                }
                            },
                            {
                                "box": {
                                    "comment": "",
                                    "id": "obj-10",
                                    "index": 1,
                                    "maxclass": "outlet",
                                    "numinlets": 1,
                                    "numoutlets": 0,
                                    "patching_rect": [ 98.0, 321.0, 30.0, 30.0 ]
                                }
                            }
                        ],
                        "lines": [
                            {
                                "patchline": {
                                    "destination": [ "obj-22", 0 ],
                                    "source": [ "obj-1", 0 ]
                                }
                            },
                            {
                                "patchline": {
                                    "destination": [ "obj-10", 0 ],
                                    "source": [ "obj-107", 0 ]
                                }
                            },
                            {
                                "patchline": {
                                    "destination": [ "obj-23", 0 ],
                                    "source": [ "obj-21", 1 ]
                                }
                            },
                            {
                                "patchline": {
                                    "destination": [ "obj-24", 0 ],
                                    "source": [ "obj-22", 0 ]
                                }
                            },
                            {
                                "patchline": {
                                    "destination": [ "obj-107", 0 ],
                                    "source": [ "obj-23", 1 ]
                                }
                            },
                            {
                                "patchline": {
                                    "destination": [ "obj-21", 0 ],
                                    "source": [ "obj-24", 0 ]
                                }
                            },
                            {
                                "patchline": {
                                    "destination": [ "obj-1", 0 ],
                                    "source": [ "obj-8", 0 ]
                                }
                            }
                        ]
                    },
                    "patching_rect": [ 732.0, 226.0, 79.0, 22.0 ],
                    "text": "p dict_lookup"
                }
            },
            {
                "box": {
                    "id": "obj-6",
                    "maxclass": "newobj",
                    "numinlets": 1,
                    "numoutlets": 0,
                    "patching_rect": [ 808.0, 677.0, 206.0, 22.0 ],
                    "saved_object_attributes": {
                        "attr_comment": "metadata out",
                        "c": "metadata out"
                    },
                    "text": "out 4 @attr_comment \"metadata out\""
                }
            },
            {
                "box": {
                    "id": "obj-45",
                    "maxclass": "newobj",
                    "numinlets": 1,
                    "numoutlets": 1,
                    "outlettype": [ "" ],
                    "patching_rect": [ 732.0, 340.0, 126.0, 22.0 ],
                    "text": "prepend num_params"
                }
            },
            {
                "box": {
                    "id": "obj-26",
                    "maxclass": "newobj",
                    "numinlets": 1,
                    "numoutlets": 5,
                    "outlettype": [ "", "", "", "", "" ],
                    "patching_rect": [ 732.0, 285.0, 236.0, 22.0 ],
                    "saved_object_attributes": {
                        "legacy": 0
                    },
                    "text": "dict.unpack outputs: resets: buttons: value:"
                }
            },
            {
                "box": {
                    "id": "obj-3",
                    "maxclass": "newobj",
                    "numinlets": 1,
                    "numoutlets": 0,
                    "patching_rect": [ 411.5, 632.0, 339.0, 22.0 ],
                    "saved_object_attributes": {
                        "attr_comment": "button pushes out, as button no, value",
                        "c": "button pushes out, as button no, value"
                    },
                    "text": "out 3 @attr_comment \"button pushes out, as button no, value\""
                }
            },
            {
                "box": {
                    "id": "obj-5",
                    "maxclass": "newobj",
                    "numinlets": 5,
                    "numoutlets": 5,
                    "outlettype": [ "", "", "", "", "" ],
                    "patching_rect": [ 360.5, 47.0, 277.0, 22.0 ],
                    "text": "route outgate hash colourupdate brightnessupdate"
                }
            },
            {
                "box": {
                    "id": "obj-4",
                    "maxclass": "newobj",
                    "numinlets": 1,
                    "numoutlets": 1,
                    "outlettype": [ "" ],
                    "patching_rect": [ 360.5, 15.0, 173.0, 22.0 ],
                    "saved_object_attributes": {
                        "attr_comment": "config in",
                        "c": "config in"
                    },
                    "text": "in 2 @attr_comment \"config in\""
                }
            },
            {
                "box": {
                    "id": "obj-2",
                    "maxclass": "newobj",
                    "numinlets": 1,
                    "numoutlets": 0,
                    "patching_rect": [ 12.5, 633.0, 291.0, 22.0 ],
                    "saved_object_attributes": {
                        "attr_comment": "values out, as knob no, value",
                        "c": "values out, as knob no, value"
                    },
                    "text": "out 1 @attr_comment \"values out, as knob no, value\""
                }
            },
            {
                "box": {
                    "id": "obj-1",
                    "maxclass": "newobj",
                    "numinlets": 1,
                    "numoutlets": 1,
                    "outlettype": [ "" ],
                    "patching_rect": [ 66.0, 11.0, 277.0, 22.0 ],
                    "saved_object_attributes": {
                        "attr_comment": "values in, as knob no, value",
                        "c": "values in, as knob no, value"
                    },
                    "text": "in 1 @attr_comment \"values in, as knob no, value\""
                }
            },
            {
                "box": {
                    "id": "obj-52",
                    "maxclass": "message",
                    "numinlets": 2,
                    "numoutlets": 1,
                    "outlettype": [ "" ],
                    "patching_rect": [ 1132.0, 274.0, 54.0, 22.0 ],
                    "text": "offset $1"
                }
            },
            {
                "box": {
                    "attr": "poll",
                    "id": "obj-56",
                    "maxclass": "attrui",
                    "numinlets": 1,
                    "numoutlets": 1,
                    "outlettype": [ "" ],
                    "parameter_enable": 0,
                    "patching_rect": [ 623.0, 1144.0, 150.0, 22.0 ]
                }
            }
        ],
        "lines": [
            {
                "patchline": {
                    "destination": [ "obj-53", 0 ],
                    "source": [ "obj-1", 0 ]
                }
            },
            {
                "patchline": {
                    "destination": [ "obj-120", 0 ],
                    "order": 2,
                    "source": [ "obj-10", 0 ]
                }
            },
            {
                "patchline": {
                    "destination": [ "obj-133", 0 ],
                    "order": 0,
                    "source": [ "obj-10", 0 ]
                }
            },
            {
                "patchline": {
                    "destination": [ "obj-31", 0 ],
                    "order": 1,
                    "source": [ "obj-10", 0 ]
                }
            },
            {
                "patchline": {
                    "destination": [ "obj-372", 0 ],
                    "source": [ "obj-100", 0 ]
                }
            },
            {
                "patchline": {
                    "destination": [ "obj-120", 0 ],
                    "source": [ "obj-103", 0 ]
                }
            },
            {
                "patchline": {
                    "destination": [ "obj-26", 0 ],
                    "order": 1,
                    "source": [ "obj-11", 0 ]
                }
            },
            {
                "patchline": {
                    "destination": [ "obj-299", 0 ],
                    "order": 2,
                    "source": [ "obj-11", 0 ]
                }
            },
            {
                "patchline": {
                    "destination": [ "obj-47", 0 ],
                    "order": 0,
                    "source": [ "obj-11", 0 ]
                }
            },
            {
                "patchline": {
                    "destination": [ "obj-13", 0 ],
                    "source": [ "obj-12", 0 ]
                }
            },
            {
                "patchline": {
                    "destination": [ "obj-79", 4 ],
                    "source": [ "obj-13", 0 ]
                }
            },
            {
                "patchline": {
                    "destination": [ "obj-19", 0 ],
                    "source": [ "obj-14", 0 ]
                }
            },
            {
                "patchline": {
                    "destination": [ "obj-7", 0 ],
                    "source": [ "obj-15", 0 ]
                }
            },
            {
                "patchline": {
                    "destination": [ "obj-14", 0 ],
                    "source": [ "obj-16", 0 ]
                }
            },
            {
                "patchline": {
                    "destination": [ "obj-18", 0 ],
                    "source": [ "obj-16", 1 ]
                }
            },
            {
                "patchline": {
                    "destination": [ "obj-21", 0 ],
                    "source": [ "obj-17", 0 ]
                }
            },
            {
                "patchline": {
                    "destination": [ "obj-19", 0 ],
                    "source": [ "obj-18", 0 ]
                }
            },
            {
                "patchline": {
                    "destination": [ "obj-346", 0 ],
                    "source": [ "obj-19", 0 ]
                }
            },
            {
                "patchline": {
                    "destination": [ "obj-82", 1 ],
                    "source": [ "obj-20", 0 ]
                }
            },
            {
                "patchline": {
                    "destination": [ "obj-22", 0 ],
                    "order": 1,
                    "source": [ "obj-21", 0 ]
                }
            },
            {
                "patchline": {
                    "destination": [ "obj-66", 0 ],
                    "order": 0,
                    "source": [ "obj-21", 0 ]
                }
            },
            {
                "patchline": {
                    "destination": [ "obj-27", 0 ],
                    "source": [ "obj-22", 1 ]
                }
            },
            {
                "patchline": {
                    "destination": [ "obj-34", 0 ],
                    "source": [ "obj-22", 0 ]
                }
            },
            {
                "patchline": {
                    "destination": [ "obj-22", 0 ],
                    "source": [ "obj-23", 0 ]
                }
            },
            {
                "patchline": {
                    "destination": [ "obj-6", 0 ],
                    "source": [ "obj-24", 0 ]
                }
            },
            {
                "patchline": {
                    "destination": [ "obj-41", 0 ],
                    "source": [ "obj-25", 0 ]
                }
            },
            {
                "patchline": {
                    "destination": [ "obj-24", 1 ],
                    "source": [ "obj-26", 1 ]
                }
            },
            {
                "patchline": {
                    "destination": [ "obj-45", 0 ],
                    "source": [ "obj-26", 0 ]
                }
            },
            {
                "patchline": {
                    "destination": [ "obj-63", 0 ],
                    "source": [ "obj-26", 3 ]
                }
            },
            {
                "patchline": {
                    "destination": [ "obj-79", 1 ],
                    "source": [ "obj-26", 2 ]
                }
            },
            {
                "patchline": {
                    "destination": [ "obj-300", 0 ],
                    "source": [ "obj-275", 0 ]
                }
            },
            {
                "patchline": {
                    "destination": [ "obj-32", 0 ],
                    "source": [ "obj-28", 0 ]
                }
            },
            {
                "patchline": {
                    "destination": [ "obj-12", 0 ],
                    "order": 3,
                    "source": [ "obj-29", 0 ]
                }
            },
            {
                "patchline": {
                    "destination": [ "obj-28", 0 ],
                    "order": 2,
                    "source": [ "obj-29", 0 ]
                }
            },
            {
                "patchline": {
                    "destination": [ "obj-30", 0 ],
                    "source": [ "obj-29", 1 ]
                }
            },
            {
                "patchline": {
                    "destination": [ "obj-33", 0 ],
                    "order": 1,
                    "source": [ "obj-29", 0 ]
                }
            },
            {
                "patchline": {
                    "destination": [ "obj-67", 0 ],
                    "order": 0,
                    "source": [ "obj-29", 0 ]
                }
            },
            {
                "patchline": {
                    "destination": [ "obj-81", 1 ],
                    "source": [ "obj-296", 0 ]
                }
            },
            {
                "patchline": {
                    "destination": [ "obj-296", 0 ],
                    "source": [ "obj-299", 0 ]
                }
            },
            {
                "patchline": {
                    "destination": [ "obj-13", 0 ],
                    "order": 3,
                    "source": [ "obj-30", 0 ]
                }
            },
            {
                "patchline": {
                    "destination": [ "obj-32", 0 ],
                    "order": 2,
                    "source": [ "obj-30", 0 ]
                }
            },
            {
                "patchline": {
                    "destination": [ "obj-36", 0 ],
                    "order": 1,
                    "source": [ "obj-30", 0 ]
                }
            },
            {
                "patchline": {
                    "destination": [ "obj-68", 0 ],
                    "order": 0,
                    "source": [ "obj-30", 0 ]
                }
            },
            {
                "patchline": {
                    "destination": [ "obj-20", 0 ],
                    "order": 2,
                    "source": [ "obj-300", 2 ]
                }
            },
            {
                "patchline": {
                    "destination": [ "obj-24", 0 ],
                    "order": 0,
                    "source": [ "obj-300", 6 ]
                }
            },
            {
                "patchline": {
                    "destination": [ "obj-24", 3 ],
                    "order": 0,
                    "source": [ "obj-300", 2 ]
                }
            },
            {
                "patchline": {
                    "destination": [ "obj-24", 2 ],
                    "order": 0,
                    "source": [ "obj-300", 0 ]
                }
            },
            {
                "patchline": {
                    "destination": [ "obj-79", 0 ],
                    "order": 1,
                    "source": [ "obj-300", 6 ]
                }
            },
            {
                "patchline": {
                    "destination": [ "obj-79", 3 ],
                    "order": 1,
                    "source": [ "obj-300", 2 ]
                }
            },
            {
                "patchline": {
                    "destination": [ "obj-79", 2 ],
                    "order": 1,
                    "source": [ "obj-300", 0 ]
                }
            },
            {
                "patchline": {
                    "destination": [ "obj-81", 0 ],
                    "order": 2,
                    "source": [ "obj-300", 6 ]
                }
            },
            {
                "patchline": {
                    "destination": [ "obj-51", 0 ],
                    "source": [ "obj-302", 0 ]
                }
            },
            {
                "patchline": {
                    "destination": [ "obj-275", 1 ],
                    "source": [ "obj-31", 0 ]
                }
            },
            {
                "patchline": {
                    "destination": [ "obj-275", 0 ],
                    "source": [ "obj-32", 0 ]
                }
            },
            {
                "patchline": {
                    "destination": [ "obj-36", 0 ],
                    "source": [ "obj-33", 0 ]
                }
            },
            {
                "patchline": {
                    "destination": [ "obj-25", 0 ],
                    "source": [ "obj-346", 1 ]
                }
            },
            {
                "patchline": {
                    "destination": [ "obj-302", 0 ],
                    "source": [ "obj-346", 0 ]
                }
            },
            {
                "patchline": {
                    "destination": [ "obj-362", 0 ],
                    "order": 1,
                    "source": [ "obj-359", 0 ]
                }
            },
            {
                "patchline": {
                    "destination": [ "obj-48", 1 ],
                    "order": 0,
                    "source": [ "obj-359", 0 ]
                }
            },
            {
                "patchline": {
                    "destination": [ "obj-9", 0 ],
                    "source": [ "obj-36", 0 ]
                }
            },
            {
                "patchline": {
                    "destination": [ "obj-359", 0 ],
                    "source": [ "obj-361", 0 ]
                }
            },
            {
                "patchline": {
                    "destination": [ "obj-40", 0 ],
                    "source": [ "obj-37", 0 ]
                }
            },
            {
                "patchline": {
                    "destination": [ "obj-133", 0 ],
                    "source": [ "obj-372", 0 ]
                }
            },
            {
                "patchline": {
                    "destination": [ "obj-37", 0 ],
                    "source": [ "obj-38", 0 ]
                }
            },
            {
                "patchline": {
                    "destination": [ "obj-39", 0 ],
                    "source": [ "obj-38", 1 ]
                }
            },
            {
                "patchline": {
                    "destination": [ "obj-40", 0 ],
                    "source": [ "obj-39", 0 ]
                }
            },
            {
                "patchline": {
                    "destination": [ "obj-5", 0 ],
                    "source": [ "obj-4", 0 ]
                }
            },
            {
                "patchline": {
                    "destination": [ "obj-11", 0 ],
                    "source": [ "obj-40", 0 ]
                }
            },
            {
                "patchline": {
                    "destination": [ "obj-302", 0 ],
                    "source": [ "obj-41", 0 ]
                }
            },
            {
                "patchline": {
                    "destination": [ "obj-49", 0 ],
                    "source": [ "obj-44", 0 ]
                }
            },
            {
                "patchline": {
                    "destination": [ "obj-6", 0 ],
                    "source": [ "obj-45", 0 ]
                }
            },
            {
                "patchline": {
                    "destination": [ "obj-44", 0 ],
                    "source": [ "obj-47", 0 ]
                }
            },
            {
                "patchline": {
                    "destination": [ "obj-50", 0 ],
                    "source": [ "obj-47", 1 ]
                }
            },
            {
                "patchline": {
                    "destination": [ "obj-50", 0 ],
                    "source": [ "obj-49", 1 ]
                }
            },
            {
                "patchline": {
                    "destination": [ "obj-62", 0 ],
                    "source": [ "obj-49", 0 ]
                }
            },
            {
                "patchline": {
                    "destination": [ "obj-100", 0 ],
                    "order": 0,
                    "source": [ "obj-5", 0 ]
                }
            },
            {
                "patchline": {
                    "destination": [ "obj-103", 0 ],
                    "order": 2,
                    "source": [ "obj-5", 0 ]
                }
            },
            {
                "patchline": {
                    "destination": [ "obj-14", 0 ],
                    "source": [ "obj-5", 2 ]
                }
            },
            {
                "patchline": {
                    "destination": [ "obj-141", 0 ],
                    "order": 1,
                    "source": [ "obj-5", 0 ]
                }
            },
            {
                "patchline": {
                    "destination": [ "obj-16", 0 ],
                    "order": 0,
                    "source": [ "obj-5", 1 ]
                }
            },
            {
                "patchline": {
                    "destination": [ "obj-29", 0 ],
                    "order": 2,
                    "source": [ "obj-5", 1 ]
                }
            },
            {
                "patchline": {
                    "destination": [ "obj-361", 0 ],
                    "source": [ "obj-5", 3 ]
                }
            },
            {
                "patchline": {
                    "destination": [ "obj-38", 0 ],
                    "order": 1,
                    "source": [ "obj-5", 1 ]
                }
            },
            {
                "patchline": {
                    "destination": [ "obj-6", 0 ],
                    "source": [ "obj-50", 0 ]
                }
            },
            {
                "patchline": {
                    "destination": [ "obj-141", 1 ],
                    "source": [ "obj-51", 0 ]
                }
            },
            {
                "patchline": {
                    "destination": [ "obj-51", 0 ],
                    "source": [ "obj-52", 0 ]
                }
            },
            {
                "patchline": {
                    "destination": [ "obj-54", 0 ],
                    "source": [ "obj-53", 0 ]
                }
            },
            {
                "patchline": {
                    "destination": [ "obj-55", 1 ],
                    "source": [ "obj-53", 1 ]
                }
            },
            {
                "patchline": {
                    "destination": [ "obj-55", 0 ],
                    "source": [ "obj-54", 0 ]
                }
            },
            {
                "patchline": {
                    "destination": [ "obj-103", 1 ],
                    "source": [ "obj-55", 0 ]
                }
            },
            {
                "patchline": {
                    "destination": [ "obj-22", 0 ],
                    "source": [ "obj-56", 0 ]
                }
            },
            {
                "patchline": {
                    "destination": [ "obj-17", 0 ],
                    "source": [ "obj-57", 0 ]
                }
            },
            {
                "patchline": {
                    "destination": [ "obj-103", 0 ],
                    "source": [ "obj-58", 0 ]
                }
            },
            {
                "patchline": {
                    "destination": [ "obj-52", 0 ],
                    "source": [ "obj-62", 1 ]
                }
            },
            {
                "patchline": {
                    "destination": [ "obj-120", 2 ],
                    "source": [ "obj-63", 0 ]
                }
            },
            {
                "patchline": {
                    "destination": [ "obj-54", 1 ],
                    "source": [ "obj-63", 1 ]
                }
            },
            {
                "patchline": {
                    "destination": [ "obj-68", 0 ],
                    "source": [ "obj-67", 0 ]
                }
            },
            {
                "patchline": {
                    "destination": [ "obj-69", 0 ],
                    "source": [ "obj-68", 0 ]
                }
            },
            {
                "patchline": {
                    "destination": [ "obj-70", 0 ],
                    "source": [ "obj-69", 0 ]
                }
            },
            {
                "patchline": {
                    "destination": [ "obj-6", 0 ],
                    "source": [ "obj-7", 0 ]
                }
            },
            {
                "patchline": {
                    "destination": [ "obj-21", 0 ],
                    "source": [ "obj-70", 0 ]
                }
            },
            {
                "patchline": {
                    "destination": [ "obj-3", 0 ],
                    "source": [ "obj-79", 0 ]
                }
            },
            {
                "patchline": {
                    "destination": [ "obj-7", 0 ],
                    "source": [ "obj-8", 0 ]
                }
            },
            {
                "patchline": {
                    "destination": [ "obj-82", 0 ],
                    "source": [ "obj-81", 0 ]
                }
            },
            {
                "patchline": {
                    "destination": [ "obj-2", 0 ],
                    "source": [ "obj-82", 0 ]
                }
            },
            {
                "patchline": {
                    "destination": [ "obj-10", 0 ],
                    "source": [ "obj-9", 1 ]
                }
            },
            {
                "patchline": {
                    "destination": [ "obj-10", 0 ],
                    "source": [ "obj-9", 0 ]
                }
            }
        ]
    }
}