{
	"patcher" : 	{
		"fileversion" : 1,
		"appversion" : 		{
			"major" : 9,
			"minor" : 0,
			"revision" : 7,
			"architecture" : "x64",
			"modernui" : 1
		}
,
		"classnamespace" : "dsp.gen",
		"rect" : [ 55.0, 375.0, 1061.0, 595.0 ],
		"gridsize" : [ 15.0, 15.0 ],
		"boxes" : [ 			{
				"box" : 				{
					"id" : "obj-3",
					"maxclass" : "newobj",
					"numinlets" : 1,
					"numoutlets" : 0,
					"patching_rect" : [ 614.0, 573.0, 35.0, 22.0 ],
					"text" : "out 2"
				}

			}
, 			{
				"box" : 				{
					"code" : "require \"sm_sallenkey_functions\";\r\nBuffer prm(\"voice_parameter_buffer\");\r\nBuffer changed_flags(\"changed_flags\");\r\nParam voice_offset(0);\r\nParam voice_is(0);\r\nParam p(0);\r\n\r\nHistory c, cut,res,drv,mix,kf(0),upda(0);\r\n\r\nif(upda<=0){\r\n\tupda = vectorsize+5;\r\n\tif(peek(changed_flags,voice_is,0)>0){\r\n\t\tchanged_flags.poke(0,voice_is);\r\n\t\tc = peek(prm,voice_offset, 0, channels=1);\r\n\t\tres = clip(peek(prm,1+voice_offset, 0, channels=1),0,0.99);\r\n\t\tdrv = 2*peek(prm,2+voice_offset, 0, channels=1);\r\n\t\tmix = peek(prm,3+voice_offset, 0, channels=1);\r\n\t\tkf = peek(prm,4+voice_offset, 0, channels=1)*2 -1;\r\n\t\tkf /= 64;\r\n\t}\r\n}\r\nupda-=1;\r\ncut = clip(440*pow(2,(slide(c,1000,1000)+in2+p*kf)*16-8), 1, 20000);\r\n\r\nflp,fbp,fhp = skfTanNltoCoefMulti(in1,cut,slide(res,1000,1000),drv);\r\nm = slide(mix,1000,1000);\r\nout1 = flp*(1-m)+fhp*m;\r\nout2 = fbp;",
					"fontface" : 0,
					"fontname" : "<Monospaced>",
					"fontsize" : 12.0,
					"id" : "obj-5",
					"maxclass" : "codebox",
					"numinlets" : 2,
					"numoutlets" : 2,
					"outlettype" : [ "", "" ],
					"patching_rect" : [ 50.0, 46.0, 583.0, 512.0 ]
				}

			}
, 			{
				"box" : 				{
					"id" : "obj-1",
					"maxclass" : "newobj",
					"numinlets" : 0,
					"numoutlets" : 1,
					"outlettype" : [ "" ],
					"patching_rect" : [ 50.0, 14.0, 28.0, 22.0 ],
					"text" : "in 1"
				}

			}
, 			{
				"box" : 				{
					"id" : "obj-2",
					"maxclass" : "newobj",
					"numinlets" : 0,
					"numoutlets" : 1,
					"outlettype" : [ "" ],
					"patching_rect" : [ 614.0, 14.0, 28.0, 22.0 ],
					"text" : "in 2"
				}

			}
, 			{
				"box" : 				{
					"id" : "obj-4",
					"maxclass" : "newobj",
					"numinlets" : 1,
					"numoutlets" : 0,
					"patching_rect" : [ 46.5, 573.0, 35.0, 22.0 ],
					"text" : "out 1"
				}

			}
 ],
		"lines" : [ 			{
				"patchline" : 				{
					"destination" : [ "obj-5", 0 ],
					"source" : [ "obj-1", 0 ]
				}

			}
, 			{
				"patchline" : 				{
					"destination" : [ "obj-5", 1 ],
					"source" : [ "obj-2", 0 ]
				}

			}
, 			{
				"patchline" : 				{
					"destination" : [ "obj-3", 0 ],
					"source" : [ "obj-5", 1 ]
				}

			}
, 			{
				"patchline" : 				{
					"destination" : [ "obj-4", 0 ],
					"source" : [ "obj-5", 0 ]
				}

			}
 ]
	}

}
