{
	"patcher" : 	{
		"fileversion" : 1,
		"appversion" : 		{
			"major" : 8,
			"minor" : 5,
			"revision" : 7,
			"architecture" : "x64",
			"modernui" : 1
		}
,
		"classnamespace" : "dsp.gen",
		"rect" : [ 40.0, 82.0, 1061.0, 595.0 ],
		"bglocked" : 0,
		"openinpresentation" : 0,
		"default_fontsize" : 12.0,
		"default_fontface" : 0,
		"default_fontname" : "Arial",
		"gridonopen" : 1,
		"gridsize" : [ 15.0, 15.0 ],
		"gridsnaponopen" : 1,
		"objectsnaponopen" : 1,
		"statusbarvisible" : 2,
		"toolbarvisible" : 1,
		"lefttoolbarpinned" : 0,
		"toptoolbarpinned" : 0,
		"righttoolbarpinned" : 0,
		"bottomtoolbarpinned" : 0,
		"toolbars_unpinned_last_save" : 0,
		"tallnewobj" : 0,
		"boxanimatetime" : 200,
		"enablehscroll" : 1,
		"enablevscroll" : 1,
		"devicewidth" : 0.0,
		"description" : "",
		"digest" : "",
		"tags" : "",
		"style" : "",
		"subpatcher_template" : "",
		"assistshowspatchername" : 0,
		"boxes" : [ 			{
				"box" : 				{
					"id" : "obj-7",
					"maxclass" : "newobj",
					"numinlets" : 1,
					"numoutlets" : 0,
					"patching_rect" : [ 515.0, 662.0, 35.0, 22.0 ],
					"text" : "out 2"
				}

			}
, 			{
				"box" : 				{
					"id" : "obj-1",
					"maxclass" : "newobj",
					"numinlets" : 0,
					"numoutlets" : 1,
					"outlettype" : [ "" ],
					"patching_rect" : [ 3.0, 4.0, 28.0, 22.0 ],
					"text" : "in 1"
				}

			}
, 			{
				"box" : 				{
					"id" : "obj-2",
					"maxclass" : "newobj",
					"numinlets" : 0,
					"numoutlets" : 1,
					"outlettype" : [ "" ],
					"patching_rect" : [ 37.0, 4.0, 28.0, 22.0 ],
					"text" : "in 2"
				}

			}
, 			{
				"box" : 				{
					"code" : "Buffer buff(\"Waves.1\");\r\nBuffer prm(\"voice_parameter_buffer\");\r\n\r\nHistory current_position(0);\r\nHistory next_position(0);\r\nHistory current_read(0);\r\nHistory current_write(0);\r\nHistory playing(1);\r\n\r\nHistory slowcounter(0);\r\nHistory channel,rate,start,end,looplen,enabled(0),record,preserve,xfade;\r\n\r\nParam voice_is(0, min=0,default=0,max=4096);\r\nParam voice_offset(0);\r\nParam t(0);\r\n\r\nParam length(0);\r\n\r\nslowcounter-=1;\r\nif(slowcounter<0){\r\n\tslowcounter=vectorsize;\r\n\tchannel = floor((peek(prm,1+ voice_offset,0, channels=1)*2));\r\n\trate = (2*peek(prm, 2+ voice_offset, 0,channels=1)-1);\r\n\tif(rate>=0){\r\n\t\trate = pow(2,rate) - 1;\r\n\t}else{\r\n\t\trate = -pow(2,-rate) + 1;\r\n\t}\r\n\trate *= 16;\r\n\tstart = length * peek(prm, 3+ voice_offset,0, channels=1);\r\n\tend = length * peek(prm, 4+ voice_offset,0, channels=1);\r\n\tif(end>=start){\r\n\t\tlooplen = end-start;\r\n\t}else{\r\n\t\tlooplen = length - start + end;\r\n\t}\t\r\n\toe=enabled;\r\n\tenabled = (peek(prm, 5+ voice_offset,0, channels=1)>0.5);\r\n\tif(enabled>oe) playing=1;\r\n\trecord = rate * peek(prm, 6+ voice_offset,0, channels=1);\r\n\tpreserve = peek(prm, 7+ voice_offset,0, channels=1);\r\n\txfade = samplerate*0.1*peek(prm, 8+voice_offset,0, channels=1);\r\n}\r\n\r\nif(playing){\r\n\tnext_position += rate;\r\n\tnp = floor(next_position);\r\n\t\r\n\tcurrent_write += in1*record;\r\n\t\r\n\tif(np != current_position){\r\n\t\tif((next_position<start)&&(rate<0)){\r\n\t\t\tnext_position += looplen;\r\n\t\t}\r\n\t\tif((next_position>end)&&(rate>0)){\r\n\t\t\tnext_position -= looplen;\r\n\t\t}\r\n\t\tpoke(buff,current_write, current_position, channel);\r\n\t\tcurrent_position = np;\r\n\t\tcurrent_read = peek(buff, np, channel);\r\n\t\tcurrent_write = preserve * current_read;\r\n\t}\r\n}\r\n\r\nout1 = current_read;\r\nout2 = current_position;\r\n",
					"fontface" : 0,
					"fontname" : "<Monospaced>",
					"fontsize" : 12.0,
					"id" : "obj-3",
					"maxclass" : "codebox",
					"numinlets" : 1,
					"numoutlets" : 2,
					"outlettype" : [ "", "" ],
					"patching_rect" : [ 3.0, 32.0, 790.0, 592.0 ]
				}

			}
, 			{
				"box" : 				{
					"id" : "obj-4",
					"maxclass" : "newobj",
					"numinlets" : 1,
					"numoutlets" : 0,
					"patching_rect" : [ 50.0, 662.0, 35.0, 22.0 ],
					"text" : "out 1"
				}

			}
 ],
		"lines" : [ 			{
				"patchline" : 				{
					"destination" : [ "obj-3", 0 ],
					"source" : [ "obj-1", 0 ]
				}

			}
, 			{
				"patchline" : 				{
					"destination" : [ "obj-4", 0 ],
					"source" : [ "obj-3", 0 ]
				}

			}
, 			{
				"patchline" : 				{
					"destination" : [ "obj-7", 0 ],
					"source" : [ "obj-3", 1 ]
				}

			}
 ]
	}

}
