{
	"patcher" : 	{
		"fileversion" : 1,
		"appversion" : 		{
			"major" : 9,
			"minor" : 0,
			"revision" : 7,
			"architecture" : "x64",
			"modernui" : 1
		}
,
		"classnamespace" : "dsp.gen",
		"rect" : [ 665.0, 228.0, 728.0, 696.0 ],
		"gridsize" : [ 15.0, 15.0 ],
		"boxes" : [ 			{
				"box" : 				{
					"id" : "obj-7",
					"maxclass" : "newobj",
					"numinlets" : 1,
					"numoutlets" : 0,
					"patching_rect" : [ 486.0, 604.0, 35.0, 22.0 ],
					"text" : "out 4"
				}

			}
, 			{
				"box" : 				{
					"id" : "obj-6",
					"maxclass" : "newobj",
					"numinlets" : 1,
					"numoutlets" : 0,
					"patching_rect" : [ 254.0, 631.0, 35.0, 22.0 ],
					"text" : "out 3"
				}

			}
, 			{
				"box" : 				{
					"id" : "obj-5",
					"maxclass" : "newobj",
					"numinlets" : 1,
					"numoutlets" : 0,
					"patching_rect" : [ 564.0, 604.0, 35.0, 22.0 ],
					"text" : "out 5"
				}

			}
, 			{
				"box" : 				{
					"id" : "obj-1",
					"maxclass" : "newobj",
					"numinlets" : 0,
					"numoutlets" : 1,
					"outlettype" : [ "" ],
					"patching_rect" : [ 5.0, 2.0, 28.0, 22.0 ],
					"text" : "in 1"
				}

			}
, 			{
				"box" : 				{
					"id" : "obj-2",
					"maxclass" : "newobj",
					"numinlets" : 1,
					"numoutlets" : 0,
					"patching_rect" : [ 240.0, 550.0, 35.0, 22.0 ],
					"text" : "out 2"
				}

			}
, 			{
				"box" : 				{
					"code" : "Buffer voice_parameter_buffer(\"voice_parameter_buffer\");\r\nBuffer changed_flags(\"changed_flags\");\r\nParam voice_is(0);\r\nParam voice_offset(0);\r\nParam pointer;\r\nHistory o_p(-1), o_po(0);\r\n\r\nHistory slow(300), st(0), le(15), mi(1);\r\nHistory no(0),ve(0),on(0);\r\n\r\nmo = 0;\r\npo = floor(pointer + (in1 * le));\r\nti = 0;\r\nif(o_p != po){\r\n\to_p = po;\r\n\tpo += st + le + le;\r\n\tpo = po % le;\r\n\to_po = po;\r\n\tno = peek(voice_parameter_buffer,voice_offset+3+po,0);\r\n\tve = peek(voice_parameter_buffer,voice_offset+19+po,0);\r\n\ton = peek(voice_parameter_buffer,voice_offset+35+po,0)>0.5;\r\n\tti = (mi>0);\r\n\tmo = (ti*(on>0));\r\n}\r\n\t\r\nslow-=1;\r\nif(slow<=0){\r\n\tslow = vectorsize+324;\r\n\tif(peek(changed_flags,voice_is,0)>0){\r\n\t\tchanged_flags.poke(0,voice_is);\r\n\t\tst = floor(16*peek(voice_parameter_buffer,voice_offset,0));\r\n \t\tle = 1 + floor(15.9999*peek(voice_parameter_buffer,voice_offset+1,0));\t\r\n\t\tmi = peek(voice_parameter_buffer,voice_offset+2,0)>0.5;\r\n\t}\r\n}\r\n\r\nout1 = no*2-1;\r\nout2 = ve;\r\nout3 = o_po;\r\nout4 = mo;\r\nout5 = ti;",
					"fontface" : 0,
					"fontname" : "<Monospaced>",
					"fontsize" : 12.0,
					"id" : "obj-3",
					"maxclass" : "codebox",
					"numinlets" : 1,
					"numoutlets" : 5,
					"outlettype" : [ "", "", "", "", "" ],
					"patching_rect" : [ 18.0, 14.0, 654.0, 558.0 ]
				}

			}
, 			{
				"box" : 				{
					"id" : "obj-4",
					"maxclass" : "newobj",
					"numinlets" : 1,
					"numoutlets" : 0,
					"patching_rect" : [ 6.0, 560.0, 35.0, 22.0 ],
					"text" : "out 1"
				}

			}
 ],
		"lines" : [ 			{
				"patchline" : 				{
					"destination" : [ "obj-3", 0 ],
					"source" : [ "obj-1", 0 ]
				}

			}
, 			{
				"patchline" : 				{
					"destination" : [ "obj-2", 0 ],
					"source" : [ "obj-3", 1 ]
				}

			}
, 			{
				"patchline" : 				{
					"destination" : [ "obj-4", 0 ],
					"source" : [ "obj-3", 0 ]
				}

			}
, 			{
				"patchline" : 				{
					"destination" : [ "obj-5", 0 ],
					"source" : [ "obj-3", 4 ]
				}

			}
, 			{
				"patchline" : 				{
					"destination" : [ "obj-6", 0 ],
					"source" : [ "obj-3", 2 ]
				}

			}
, 			{
				"patchline" : 				{
					"destination" : [ "obj-7", 0 ],
					"source" : [ "obj-3", 3 ]
				}

			}
 ]
	}

}
