{
	"patcher" : 	{
		"fileversion" : 1,
		"appversion" : 		{
			"major" : 9,
			"minor" : 0,
			"revision" : 7,
			"architecture" : "x64",
			"modernui" : 1
		}
,
		"classnamespace" : "dsp.gen",
		"rect" : [ 202.0, 289.0, 1061.0, 595.0 ],
		"gridsize" : [ 15.0, 15.0 ],
		"boxes" : [ 			{
				"box" : 				{
					"id" : "obj-7",
					"maxclass" : "newobj",
					"numinlets" : 1,
					"numoutlets" : 0,
					"patching_rect" : [ 614.0, 578.0, 35.0, 22.0 ],
					"text" : "out 4"
				}

			}
, 			{
				"box" : 				{
					"id" : "obj-6",
					"maxclass" : "newobj",
					"numinlets" : 1,
					"numoutlets" : 0,
					"patching_rect" : [ 426.0, 578.0, 35.0, 22.0 ],
					"text" : "out 3"
				}

			}
, 			{
				"box" : 				{
					"id" : "obj-3",
					"maxclass" : "newobj",
					"numinlets" : 1,
					"numoutlets" : 0,
					"patching_rect" : [ 238.0, 578.0, 35.0, 22.0 ],
					"text" : "out 2"
				}

			}
, 			{
				"box" : 				{
					"code" : "Buffer prm(\"voice_parameter_buffer\");\r\nBuffer vdata(\"voice_data_buffer\");\r\nBuffer changed_flags(\"changed_flags\");\r\nParam voice_offset(0);\r\nParam voice_is(0);\r\nParam data_offset(0);\r\nParam tr(0);\r\nParam v(0);\r\nParam panic(0);\r\n\r\nHistory col, c1, c2, len, prob, blnd, shp, t2, t3,rng;\r\nHistory ov(0), ovv(0), oi1(0), held(0),point(0);\r\n\r\nHistory pink(0);\r\nHistory dark(0);\r\nHistory pois1(0);\r\nHistory pois(0);\r\nHistory upda(0);\r\n\r\nif(upda<=0){\r\n\tupda = vectorsize + 43;\r\n\tif(peek(changed_flags,voice_is,0)>0){\r\n\t\tchanged_flags.poke(0,voice_is);\r\n\t\tcol = 5.99*peek(prm,0+voice_offset, 0, channels=1);\r\n\t\tc1 = floor(col);\r\n\t\tc2 = abs(col-5)/2;\r\n\t\tt2 = col - c1;\r\n\t\tt3 = 1-t2;\r\n\t\tlen = floor(30.99*peek(prm,1+voice_offset, 0, channels=1))+1;\r\n\t\tprob = peek(prm,2+voice_offset, 0, channels=1);\r\n\t\tblnd = peek(prm,3+voice_offset, 0, channels=1);\r\n\t\tshp = pow(10,5*peek(prm, 4+voice_offset, 0, channels=1));\r\n\t\trng = (2+126*peek(prm, 5+voice_offset, 0, channels=1))/128;\r\n\t}\r\n}\r\nupda-=1;\r\nwhite = (noise() + noise() + noise() + noise() + noise() + noise() + noise() + noise())/6;\r\npink += 0.1*white - 0.01*pink;\r\ndark += 0.01* pink - dark*0.01;\r\nblue = white*white*white;\r\npois1 += white*c2;\r\nif(pois1> 1){\r\n\tpois=1;\r\n\tpois1=0;\r\n}else if(pois1< -1){\r\n\tpois=-1;\r\n\tpois1=0;\r\n}else{\r\n\tpois=0;\r\n}\r\n\r\n\r\nx=0;\r\nif(c1==0){\r\n\tx = t3*dark + t2*pink;\r\n}else if(c1==1){\r\n\tx = t3*pink + t2*white;\r\n}else if(c1==2){\r\n\tx = t3*white + t2*blue;\r\n}else if(c1==3){\r\n\tx = t3*blue + t2*pois;\r\n}else if(c1==4){\r\n\tx = t3*pois + t2*in2;\r\n}else{\r\n\tx = t3*in2 + t2*dark;\r\n}\r\nout1 = x;\r\n\r\nx = clip(x*0.5+0.5,0,1);\r\n\r\no3=0;\r\nti1 = (in1>0);\r\ntv = (v!=ovv) && (v!=0);\r\novv=v;\r\nif(tr+tv+(ti1!=oi1)>ov){\r\n\to3=1;\r\n\toi1=ti1;\r\n\t//trigger s&h\r\n\tpoint += 1;\r\n\t\r\n\tif(abs(noise())<= prob){\r\n\t\tpoke(vdata, (1-blnd)*peek(vdata,data_offset+point,0) + blnd*x, data_offset+point, 0);//(1-blnd)*peek(register,point,0) + blnd*x);\r\n\t}\r\n\theld = peek(vdata,data_offset+point,0);\r\n\tpoke(vdata, point-1,data_offset);\r\n\tif(point>=len){\r\n\t\tpoint=0;\r\n\t}\r\n}\r\nov=tr+tv;\r\nout4=o3;\r\nout3=rng*held;\r\nout2=slide(2*held-1,shp,shp);\r\n",
					"fontface" : 0,
					"fontname" : "<Monospaced>",
					"fontsize" : 12.0,
					"id" : "obj-5",
					"maxclass" : "codebox",
					"numinlets" : 2,
					"numoutlets" : 4,
					"outlettype" : [ "", "", "", "" ],
					"patching_rect" : [ 50.0, 47.0, 970.0, 523.0 ]
				}

			}
, 			{
				"box" : 				{
					"id" : "obj-1",
					"maxclass" : "newobj",
					"numinlets" : 0,
					"numoutlets" : 1,
					"outlettype" : [ "" ],
					"patching_rect" : [ 50.0, 14.0, 28.0, 22.0 ],
					"text" : "in 1"
				}

			}
, 			{
				"box" : 				{
					"id" : "obj-2",
					"maxclass" : "newobj",
					"numinlets" : 0,
					"numoutlets" : 1,
					"outlettype" : [ "" ],
					"patching_rect" : [ 614.0, 14.0, 28.0, 22.0 ],
					"text" : "in 2"
				}

			}
, 			{
				"box" : 				{
					"id" : "obj-4",
					"maxclass" : "newobj",
					"numinlets" : 1,
					"numoutlets" : 0,
					"patching_rect" : [ 50.0, 578.0, 35.0, 22.0 ],
					"text" : "out 1"
				}

			}
 ],
		"lines" : [ 			{
				"patchline" : 				{
					"destination" : [ "obj-5", 0 ],
					"source" : [ "obj-1", 0 ]
				}

			}
, 			{
				"patchline" : 				{
					"destination" : [ "obj-5", 1 ],
					"source" : [ "obj-2", 0 ]
				}

			}
, 			{
				"patchline" : 				{
					"destination" : [ "obj-3", 0 ],
					"source" : [ "obj-5", 1 ]
				}

			}
, 			{
				"patchline" : 				{
					"destination" : [ "obj-4", 0 ],
					"source" : [ "obj-5", 0 ]
				}

			}
, 			{
				"patchline" : 				{
					"destination" : [ "obj-6", 0 ],
					"source" : [ "obj-5", 2 ]
				}

			}
, 			{
				"patchline" : 				{
					"destination" : [ "obj-7", 0 ],
					"source" : [ "obj-5", 3 ]
				}

			}
 ]
	}

}
