{
	"patcher" : 	{
		"fileversion" : 1,
		"appversion" : 		{
			"major" : 8,
			"minor" : 6,
			"revision" : 4,
			"architecture" : "x64",
			"modernui" : 1
		}
,
		"classnamespace" : "dsp.gen",
		"rect" : [ 134.0, 134.0, 1061.0, 595.0 ],
		"bglocked" : 0,
		"openinpresentation" : 0,
		"default_fontsize" : 12.0,
		"default_fontface" : 0,
		"default_fontname" : "Arial",
		"gridonopen" : 1,
		"gridsize" : [ 15.0, 15.0 ],
		"gridsnaponopen" : 1,
		"objectsnaponopen" : 1,
		"statusbarvisible" : 2,
		"toolbarvisible" : 1,
		"lefttoolbarpinned" : 0,
		"toptoolbarpinned" : 0,
		"righttoolbarpinned" : 0,
		"bottomtoolbarpinned" : 0,
		"toolbars_unpinned_last_save" : 0,
		"tallnewobj" : 0,
		"boxanimatetime" : 200,
		"enablehscroll" : 1,
		"enablevscroll" : 1,
		"devicewidth" : 0.0,
		"description" : "",
		"digest" : "",
		"tags" : "",
		"style" : "",
		"subpatcher_template" : "",
		"assistshowspatchername" : 0,
		"boxes" : [ 			{
				"box" : 				{
					"id" : "obj-9",
					"maxclass" : "newobj",
					"numinlets" : 1,
					"numoutlets" : 0,
					"patching_rect" : [ 511.5, 565.0, 35.0, 22.0 ],
					"text" : "out 5"
				}

			}
, 			{
				"box" : 				{
					"id" : "obj-8",
					"maxclass" : "newobj",
					"numinlets" : 1,
					"numoutlets" : 0,
					"patching_rect" : [ 395.5, 564.0, 35.0, 22.0 ],
					"text" : "out 4"
				}

			}
, 			{
				"box" : 				{
					"id" : "obj-6",
					"maxclass" : "newobj",
					"numinlets" : 1,
					"numoutlets" : 0,
					"patching_rect" : [ 279.5, 564.0, 35.0, 22.0 ],
					"text" : "out 3"
				}

			}
, 			{
				"box" : 				{
					"id" : "obj-7",
					"maxclass" : "newobj",
					"numinlets" : 1,
					"numoutlets" : 0,
					"patching_rect" : [ 162.5, 564.0, 35.0, 22.0 ],
					"text" : "out 2"
				}

			}
, 			{
				"box" : 				{
					"id" : "obj-1",
					"maxclass" : "newobj",
					"numinlets" : 0,
					"numoutlets" : 1,
					"outlettype" : [ "" ],
					"patching_rect" : [ 50.0, 14.0, 28.0, 22.0 ],
					"text" : "in 1"
				}

			}
, 			{
				"box" : 				{
					"id" : "obj-2",
					"maxclass" : "newobj",
					"numinlets" : 0,
					"numoutlets" : 1,
					"outlettype" : [ "" ],
					"patching_rect" : [ 515.0, 14.0, 28.0, 22.0 ],
					"text" : "in 2"
				}

			}
, 			{
				"box" : 				{
					"code" : "Buffer prm(\"voice_parameter_buffer\");\r\nBuffer logexp(\"logexp\");\r\n\r\nHistory at,su,de,cu,lo,ve,ac,i1,i2,o2,off,cu_t(0),cu_f(0),amt;\r\n//i1 now holds vca shape\r\n\r\nHistory ov(0);  //last non-zero velocity\r\nHistory oov(0); //just for detect change\r\nHistory otrig(0); //likewise\r\nHistory env(0);\r\nHistory attdone(1); \r\nHistory decdone(1); \r\nHistory target(0);\r\nHistory attrate(0.00001); \r\nHistory decrate(0.00001);\r\nHistory upda(0);\r\n\r\nParam voice_offset(0);\r\nParam tr(0);\r\nParam v(0);\r\nParam panic(0);\r\n\r\nif(upda<=0){\r\n\tupda=vectorsize + 53;\r\n\tat = peek(prm, voice_offset, 0, channels=1);\r\n\tat = (pow(1000,at)-1+0.0000000001)*60.06006006006006006006006006006;\r\n\tsu = peek(prm, 1+voice_offset, 0, channels=1);\r\n\tde = peek(prm, 2+voice_offset, 0, channels=1);\r\n\tde = (pow(1000,de)-1+0.0000000001)*60.06006006006006006006006006006;\r\n\tcu = peek(prm, 3+voice_offset, 0, channels=1);\r\n\tlo = peek(prm, 4+voice_offset, 0, channels=1);\r\n\tve = peek(prm, 5+voice_offset, 0, channels=1)*2 - 1;\r\n\tac = peek(prm, 6+voice_offset, 0, channels=1)*2 - 1;\r\n\ti1 = peek(prm, 7+voice_offset, 0, channels=1);\r\n\ti2 = floor(9*peek(prm, 8+voice_offset, 0, channels=1));\r\n\to2 = floor(5*peek(prm, 9+voice_offset, 0, channels=1));\r\n\toff = 2*peek(prm, 10+voice_offset, 0, channels=1)-1;\r\n\tamt = 2*peek(prm, 11+voice_offset, 0, channels=1)-1;\t\r\n\tcu_f=cu*4;\t\r\n\tcu_t=floor(cu_f);\r\n\tcu_f-=cu_t;\r\n\tcu_t+=1;\r\n\tt=1+abs(cu-0.45)*23;\r\n\tattrate=t/mstosamps(at);\r\n\tdecrate=-t/mstosamps(de);\t\r\n}\r\nupda-=1;\r\n\r\nvi=0;\r\nlevscale = 0;\r\ntrig=tr*attdone;\r\nif((delta(lo>0)>0)&&(env==0)){\r\n\ttrig=1;\r\n}\r\n\r\nif(i2==0){\r\n\ttrig+=in2;\r\n\tlevscale=1;\r\n}else if(i2==1){\r\n\tvi += in2;\r\n}else if(i2==2){\r\n\tattrate /= (1+in2);\r\n}else if(i2==3){\r\n\tdecrate /= (1+in2);\r\n}else if(i2==4){\r\n\tattrate /= (1+in2);\r\n\tdecrate /= (1+in2);\r\n}else if(i2==5){\r\n\tsu *= (1+in2);\r\n}else if(i2==6){\r\n\tcu *= (1+in2);\r\n}else if(i2==7){\r\n\tlo *= (1+in2);\r\n}else{\r\n\tac *= (1+in2);\t\r\n}\r\nif(panic) {\r\n\ttarget=0;\r\n\tdecdone=0;\r\n\tdecrate=-0.001;\r\n\tenv*=0.999;\r\n}\r\n\r\nif(v>0){\r\n\tlevscale = v * ve + (1-clip(ve,0,2));\r\n\tif(su>0){\r\n\t\tvi += levscale; \r\n\t}else{\r\n\t\ttrig += levscale;\r\n\t}\r\n}else{\r\n\tif((attdone) && (su>0)){\r\n\t\ttarget = 0;\r\n\t\tdecdone = 0;\r\n\t}\r\n}\r\n\r\nif(vi!=oov){ //follow behaviour\r\n\toov=vi;\r\n\tov=vi;\r\n\ttarget=vi;\r\n\tif(target<=env){\r\n\t\tattdone=1;\r\n\t\tdecdone=0;\r\n\t}else{\r\n\t\tdecdone=1;\r\n\t\tattdone=0;\r\n\t}\r\n}\r\nif((trig!=otrig)&&(attdone==1)){//trigger behaviour\r\n\tif(trig>0){\r\n\t\tattdone=0;\r\n\t\tdecdone=1;\r\n\t\totrig=trig;\r\n\t\tov = levscale+ac*env;\r\n\t\tov /= 2;\r\n\t\tov = clip(ov,-2,2);\r\n\t\tov = ov - (ov*ov*ov/3);\r\n\t\tov *= 2;\r\n\t\ttarget=ov;\r\n\t}\r\n}\r\nif(!attdone){\r\n\tt=clip(target-env,-0.9999,0.9999);\r\n\tif(t>0.00001){\r\n\t\tdx = selector(cu_t,(1-t)*(1-t*cu_f),1+t*(cu_f-1),1+cu_f*(t-1),(t+0.01)*(1+cu_f*(t-0.99)));//,(t+0.1)*(t+0.01));\r\n\t\tdx*=attrate;\r\n\t\tdx=clip(dx,0.0000001,t);\r\n\t\tenv+=dx;\r\n\t}else{\r\n\t\tenv=target;\r\n\t\tattdone=1;\r\n\t\tdecdone=0;\r\n\t\ttarget = su*v;\r\n\t}\r\n}\r\nif(!decdone){\r\n\tt=clip(target-env,-0.9999,0.9999);\r\n\tif(t<-0.001){\r\n\t\tdx = selector(cu_t,((t+1)*(t+1)-1)*(1-cu_f)+cu_f*t,t-cu_f*(t+1),-1-cu_f*t,-1-t*(1+cu_f+cu_f*t));\r\n\t\tdx*= -decrate;\r\n\t\tdx=clip(dx,t,-0.0000000001);\r\n\t\tenv+=dx;\r\n\t}else{\r\n\t\tenv=target;\r\n\t\tdecdone=1;\r\n\t\tif(lo){\r\n\t\t\tov = ov*lo;\r\n\t\t\tif(ov>0.001){\r\n\t\t\t\tattdone=0;\r\n\t\t\t\ttarget=ov*lo;\r\n\t\t\t}\r\n\t\t}\r\n\t}\r\n}\r\n\r\n\r\ntg=env*amt + off;\r\nif(i1<0.5){\r\n\ttg = 2 *(lookup(logexp, clip(tg,-1,1), 0, channels=1) * (0.5-i1) + i1*tg);\r\n}else{\r\n\ttg = 2 *(lookup(logexp, clip(tg,-1,1), 1, channels=1) * (i1-0.5) + (1-i1)*tg);\t\r\n}\r\nout1 = in1*tg; // (amt*tg+off);\r\n\r\nif(o2==0){\r\n\tout2 = amt*env+off;\r\n}else if(o2==1){\r\n\tout2 = tg;//vi+trig;\r\n}else if(o2==2){\r\n\tout2 = attdone;\r\n}else if(o2==3){\r\n\tout2 = decdone;\r\n}else{\r\n\tout2 = delta(env);\r\n}\r\n\r\n\r\nout3 = attdone;\r\nout4 = decdone;\r\nout5 = (off+env<0.001) * (attdone) * (lo==0);",
					"fontface" : 0,
					"fontname" : "<Monospaced>",
					"fontsize" : 12.0,
					"id" : "obj-3",
					"maxclass" : "codebox",
					"numinlets" : 2,
					"numoutlets" : 5,
					"outlettype" : [ "", "", "", "", "" ],
					"patching_rect" : [ 50.0, 44.0, 915.0, 512.0 ]
				}

			}
, 			{
				"box" : 				{
					"id" : "obj-4",
					"maxclass" : "newobj",
					"numinlets" : 1,
					"numoutlets" : 0,
					"patching_rect" : [ 46.5, 564.0, 35.0, 22.0 ],
					"text" : "out 1"
				}

			}
 ],
		"lines" : [ 			{
				"patchline" : 				{
					"destination" : [ "obj-3", 0 ],
					"source" : [ "obj-1", 0 ]
				}

			}
, 			{
				"patchline" : 				{
					"destination" : [ "obj-3", 1 ],
					"source" : [ "obj-2", 0 ]
				}

			}
, 			{
				"patchline" : 				{
					"destination" : [ "obj-4", 0 ],
					"source" : [ "obj-3", 0 ]
				}

			}
, 			{
				"patchline" : 				{
					"destination" : [ "obj-6", 0 ],
					"source" : [ "obj-3", 2 ]
				}

			}
, 			{
				"patchline" : 				{
					"destination" : [ "obj-7", 0 ],
					"source" : [ "obj-3", 1 ]
				}

			}
, 			{
				"patchline" : 				{
					"destination" : [ "obj-8", 0 ],
					"source" : [ "obj-3", 3 ]
				}

			}
, 			{
				"patchline" : 				{
					"destination" : [ "obj-9", 0 ],
					"source" : [ "obj-3", 4 ]
				}

			}
 ],
		"autosave" : 0
	}

}
