{
	"patcher" : 	{
		"fileversion" : 1,
		"appversion" : 		{
			"major" : 8,
			"minor" : 6,
			"revision" : 5,
			"architecture" : "x64",
			"modernui" : 1
		}
,
		"classnamespace" : "dsp.gen",
		"rect" : [ 59.0, 85.0, 1080.0, 905.0 ],
		"bglocked" : 0,
		"openinpresentation" : 0,
		"default_fontsize" : 12.0,
		"default_fontface" : 0,
		"default_fontname" : "Arial",
		"gridonopen" : 1,
		"gridsize" : [ 15.0, 15.0 ],
		"gridsnaponopen" : 1,
		"objectsnaponopen" : 1,
		"statusbarvisible" : 2,
		"toolbarvisible" : 1,
		"lefttoolbarpinned" : 0,
		"toptoolbarpinned" : 0,
		"righttoolbarpinned" : 0,
		"bottomtoolbarpinned" : 0,
		"toolbars_unpinned_last_save" : 0,
		"tallnewobj" : 0,
		"boxanimatetime" : 200,
		"enablehscroll" : 1,
		"enablevscroll" : 1,
		"devicewidth" : 0.0,
		"description" : "",
		"digest" : "",
		"tags" : "",
		"style" : "",
		"subpatcher_template" : "",
		"assistshowspatchername" : 0,
		"boxes" : [ 			{
				"box" : 				{
					"id" : "obj-5",
					"maxclass" : "newobj",
					"numinlets" : 1,
					"numoutlets" : 0,
					"patching_rect" : [ 549.0, 628.0, 35.0, 22.0 ],
					"text" : "out 2"
				}

			}
, 			{
				"box" : 				{
					"id" : "obj-1",
					"maxclass" : "newobj",
					"numinlets" : 0,
					"numoutlets" : 1,
					"outlettype" : [ "" ],
					"patching_rect" : [ 29.0, 6.0, 28.0, 22.0 ],
					"text" : "in 1"
				}

			}
, 			{
				"box" : 				{
					"id" : "obj-2",
					"maxclass" : "newobj",
					"numinlets" : 0,
					"numoutlets" : 1,
					"outlettype" : [ "" ],
					"patching_rect" : [ 357.0, 6.0, 28.0, 22.0 ],
					"text" : "in 2"
				}

			}
, 			{
				"box" : 				{
					"code" : "Data gai(1024);\r\n\r\nParam mode(0); //0=stereo 1=modulation\r\nParam transition(0.7);\r\nParam midgain(0); //0=0.5+0.5, 1=1+1\r\nParam voicecount(2);\r\nParam voicenum(0);\r\nParam fade(0);\r\n\r\nHistory otm(-1),offset(0.25);\r\n\r\ntm=transition+voicecount+midgain;\r\nif(otm!=tm){\r\n\totm=tm;\r\n\t//fill a lookup table\r\n\toffset = (voicenum/voicecount);\r\n\tmg=midgain;//0.5+0.5*midgain;\r\n\ta = 512 / voicecount;\r\n\tW=floor(1.999*a*transition);\r\n\tW2=a-0.5*W;\r\n\tW3 = W2 + W;\r\n\tr = 2*(1-mg)/W;\r\n\tv = 1;\r\n\tr2 = 2*mg/W;\r\n\tfor(i=0;i<513;i+=1){\r\n\t\tif(i<W2){\r\n\t\t\tv=1;\r\n\t\t}else if(i<a){\r\n\t\t\tv-=r;\r\n\t\t}else if(i<W3){\r\n\t\t\tv-=r2;\r\n\t\t}else{\r\n\t\t\tv=0;\r\n\t\t}\r\n \t\tpoke(gai,v,i,0);\r\n\t\tpoke(gai,v,1024-i,0);\r\n\t}\r\n}\r\n\r\nf = fade;\r\nif(mode!=0) f+=in2;\r\nf1 = (f+offset)%1;\r\ng = peek(gai,f1*1023,0,interp=\"linear\");\r\no2 = (mode==0)?in2:in1;\r\no2 *= g;\r\nout1 = in1*g;\r\nout2 = o2;",
					"fontface" : 0,
					"fontname" : "<Monospaced>",
					"fontsize" : 12.0,
					"id" : "obj-3",
					"maxclass" : "codebox",
					"numinlets" : 2,
					"numoutlets" : 2,
					"outlettype" : [ "", "" ],
					"patching_rect" : [ 29.0, 38.0, 543.0, 548.0 ]
				}

			}
, 			{
				"box" : 				{
					"id" : "obj-4",
					"maxclass" : "newobj",
					"numinlets" : 1,
					"numoutlets" : 0,
					"patching_rect" : [ 30.0, 616.0, 35.0, 22.0 ],
					"text" : "out 1"
				}

			}
 ],
		"lines" : [ 			{
				"patchline" : 				{
					"destination" : [ "obj-3", 0 ],
					"source" : [ "obj-1", 0 ]
				}

			}
, 			{
				"patchline" : 				{
					"destination" : [ "obj-3", 1 ],
					"source" : [ "obj-2", 0 ]
				}

			}
, 			{
				"patchline" : 				{
					"destination" : [ "obj-4", 0 ],
					"source" : [ "obj-3", 0 ]
				}

			}
, 			{
				"patchline" : 				{
					"destination" : [ "obj-5", 0 ],
					"source" : [ "obj-3", 1 ]
				}

			}
 ],
		"autosave" : 0
	}

}
