{
	"patcher" : 	{
		"fileversion" : 1,
		"appversion" : 		{
			"major" : 8,
			"minor" : 6,
			"revision" : 4,
			"architecture" : "x64",
			"modernui" : 1
		}
,
		"classnamespace" : "box",
		"rect" : [ 66.0, 112.0, 868.0, 556.0 ],
		"bglocked" : 0,
		"openinpresentation" : 0,
		"default_fontsize" : 12.0,
		"default_fontface" : 0,
		"default_fontname" : "Arial",
		"gridonopen" : 1,
		"gridsize" : [ 15.0, 15.0 ],
		"gridsnaponopen" : 1,
		"objectsnaponopen" : 1,
		"statusbarvisible" : 2,
		"toolbarvisible" : 1,
		"lefttoolbarpinned" : 0,
		"toptoolbarpinned" : 0,
		"righttoolbarpinned" : 0,
		"bottomtoolbarpinned" : 0,
		"toolbars_unpinned_last_save" : 0,
		"tallnewobj" : 0,
		"boxanimatetime" : 200,
		"enablehscroll" : 1,
		"enablevscroll" : 1,
		"devicewidth" : 0.0,
		"description" : "",
		"digest" : "",
		"tags" : "",
		"style" : "",
		"subpatcher_template" : "",
		"assistshowspatchername" : 0,
		"boxes" : [ 			{
				"box" : 				{
					"id" : "obj-135",
					"maxclass" : "newobj",
					"numinlets" : 2,
					"numoutlets" : 1,
					"outlettype" : [ "bang" ],
					"patching_rect" : [ 148.0, 441.0, 55.0, 22.0 ],
					"text" : "del 5000"
				}

			}
, 			{
				"box" : 				{
					"id" : "obj-134",
					"maxclass" : "newobj",
					"numinlets" : 1,
					"numoutlets" : 1,
					"outlettype" : [ "bang" ],
					"patching_rect" : [ 148.0, 409.0, 22.0, 22.0 ],
					"text" : "t b"
				}

			}
, 			{
				"box" : 				{
					"id" : "obj-132",
					"maxclass" : "newobj",
					"numinlets" : 3,
					"numoutlets" : 2,
					"outlettype" : [ "", "int" ],
					"patcher" : 					{
						"fileversion" : 1,
						"appversion" : 						{
							"major" : 8,
							"minor" : 6,
							"revision" : 4,
							"architecture" : "x64",
							"modernui" : 1
						}
,
						"classnamespace" : "box",
						"rect" : [ 59.0, 107.0, 640.0, 480.0 ],
						"bglocked" : 0,
						"openinpresentation" : 0,
						"default_fontsize" : 12.0,
						"default_fontface" : 0,
						"default_fontname" : "Arial",
						"gridonopen" : 1,
						"gridsize" : [ 15.0, 15.0 ],
						"gridsnaponopen" : 1,
						"objectsnaponopen" : 1,
						"statusbarvisible" : 2,
						"toolbarvisible" : 1,
						"lefttoolbarpinned" : 0,
						"toptoolbarpinned" : 0,
						"righttoolbarpinned" : 0,
						"bottomtoolbarpinned" : 0,
						"toolbars_unpinned_last_save" : 0,
						"tallnewobj" : 0,
						"boxanimatetime" : 200,
						"enablehscroll" : 1,
						"enablevscroll" : 1,
						"devicewidth" : 0.0,
						"description" : "",
						"digest" : "",
						"tags" : "",
						"style" : "",
						"subpatcher_template" : "",
						"assistshowspatchername" : 0,
						"boxes" : [ 							{
								"box" : 								{
									"comment" : "",
									"id" : "obj-1",
									"index" : 2,
									"maxclass" : "outlet",
									"numinlets" : 1,
									"numoutlets" : 0,
									"patching_rect" : [ 382.0, 559.0, 30.0, 30.0 ]
								}

							}
, 							{
								"box" : 								{
									"id" : "obj-111",
									"maxclass" : "newobj",
									"numinlets" : 1,
									"numoutlets" : 1,
									"outlettype" : [ "int" ],
									"patching_rect" : [ 270.0, 481.0, 22.0, 22.0 ],
									"text" : "t 1"
								}

							}
, 							{
								"box" : 								{
									"id" : "obj-110",
									"maxclass" : "newobj",
									"numinlets" : 2,
									"numoutlets" : 2,
									"outlettype" : [ "bang", "" ],
									"patching_rect" : [ 270.0, 449.0, 49.0, 22.0 ],
									"text" : "sel midi"
								}

							}
, 							{
								"box" : 								{
									"id" : "obj-109",
									"maxclass" : "newobj",
									"numinlets" : 2,
									"numoutlets" : 1,
									"outlettype" : [ "" ],
									"patching_rect" : [ 163.0, 449.0, 32.0, 22.0 ],
									"text" : "gate"
								}

							}
, 							{
								"box" : 								{
									"id" : "obj-108",
									"maxclass" : "newobj",
									"numinlets" : 1,
									"numoutlets" : 1,
									"outlettype" : [ "int" ],
									"patching_rect" : [ 386.0, 415.0, 22.0, 22.0 ],
									"text" : "t 0"
								}

							}
, 							{
								"box" : 								{
									"id" : "obj-107",
									"maxclass" : "newobj",
									"numinlets" : 1,
									"numoutlets" : 3,
									"outlettype" : [ "", "", "" ],
									"patching_rect" : [ 176.0, 415.0, 206.0, 22.0 ],
									"saved_object_attributes" : 									{
										"legacy" : 1
									}
,
									"text" : "dict.unpack number: type: @legacy 1"
								}

							}
, 							{
								"box" : 								{
									"id" : "obj-103",
									"maxclass" : "newobj",
									"numinlets" : 1,
									"numoutlets" : 1,
									"outlettype" : [ "" ],
									"patching_rect" : [ 347.0, 294.0, 71.0, 22.0 ],
									"text" : "fromsymbol"
								}

							}
, 							{
								"box" : 								{
									"id" : "obj-102",
									"maxclass" : "newobj",
									"numinlets" : 1,
									"numoutlets" : 0,
									"patching_rect" : [ 226.5, 328.75, 32.0, 22.0 ],
									"text" : "print"
								}

							}
, 							{
								"box" : 								{
									"id" : "obj-99",
									"maxclass" : "newobj",
									"numinlets" : 2,
									"numoutlets" : 1,
									"outlettype" : [ "" ],
									"patching_rect" : [ 176.0, 306.5, 32.0, 22.0 ],
									"text" : "gate"
								}

							}
, 							{
								"box" : 								{
									"id" : "obj-98",
									"maxclass" : "toggle",
									"numinlets" : 1,
									"numoutlets" : 1,
									"outlettype" : [ "int" ],
									"parameter_enable" : 0,
									"patching_rect" : [ 267.333333333333371, 387.5, 24.0, 24.0 ]
								}

							}
, 							{
								"box" : 								{
									"id" : "obj-96",
									"maxclass" : "newobj",
									"numinlets" : 2,
									"numoutlets" : 1,
									"outlettype" : [ "int" ],
									"patching_rect" : [ 267.333333333333371, 355.5, 29.5, 22.0 ],
									"text" : "&&"
								}

							}
, 							{
								"box" : 								{
									"id" : "obj-94",
									"maxclass" : "newobj",
									"numinlets" : 2,
									"numoutlets" : 1,
									"outlettype" : [ "int" ],
									"patching_rect" : [ 267.333333333333371, 323.5, 29.5, 22.0 ],
									"text" : "=="
								}

							}
, 							{
								"box" : 								{
									"id" : "obj-92",
									"maxclass" : "newobj",
									"numinlets" : 1,
									"numoutlets" : 1,
									"outlettype" : [ "int" ],
									"patching_rect" : [ 452.0, 253.0, 22.0, 22.0 ],
									"text" : "t 0"
								}

							}
, 							{
								"box" : 								{
									"id" : "obj-91",
									"maxclass" : "newobj",
									"numinlets" : 1,
									"numoutlets" : 1,
									"outlettype" : [ "int" ],
									"patching_rect" : [ 345.666666666666629, 363.75, 22.0, 22.0 ],
									"text" : "t 1"
								}

							}
, 							{
								"box" : 								{
									"id" : "obj-87",
									"maxclass" : "newobj",
									"numinlets" : 3,
									"numoutlets" : 3,
									"outlettype" : [ "bang", "bang", "" ],
									"patching_rect" : [ 345.666666666666629, 328.75, 53.0, 22.0 ],
									"text" : "sel all -1"
								}

							}
, 							{
								"box" : 								{
									"id" : "obj-84",
									"maxclass" : "newobj",
									"numinlets" : 1,
									"numoutlets" : 1,
									"outlettype" : [ "" ],
									"patching_rect" : [ 267.333333333333371, 293.5, 71.0, 22.0 ],
									"text" : "fromsymbol"
								}

							}
, 							{
								"box" : 								{
									"id" : "obj-81",
									"maxclass" : "newobj",
									"numinlets" : 1,
									"numoutlets" : 4,
									"outlettype" : [ "", "", "", "" ],
									"patching_rect" : [ 189.0, 253.0, 254.0, 22.0 ],
									"saved_object_attributes" : 									{
										"legacy" : 1
									}
,
									"text" : "dict.unpack output: number: voice: @legacy 1"
								}

							}
, 							{
								"box" : 								{
									"id" : "obj-80",
									"maxclass" : "newobj",
									"numinlets" : 1,
									"numoutlets" : 2,
									"outlettype" : [ "", "" ],
									"patching_rect" : [ 189.0, 221.0, 107.0, 22.0 ],
									"saved_object_attributes" : 									{
										"legacy" : 0
									}
,
									"text" : "dict.unpack from:"
								}

							}
, 							{
								"box" : 								{
									"id" : "obj-79",
									"maxclass" : "newobj",
									"numinlets" : 2,
									"numoutlets" : 2,
									"outlettype" : [ "", "" ],
									"patching_rect" : [ 153.0, 189.0, 55.0, 22.0 ],
									"text" : "zl slice 1"
								}

							}
, 							{
								"box" : 								{
									"id" : "obj-78",
									"maxclass" : "newobj",
									"numinlets" : 1,
									"numoutlets" : 1,
									"outlettype" : [ "" ],
									"patching_rect" : [ 96.0, 250.0, 153.0, 22.0 ],
									"text" : "sprintf get connections[%d]"
								}

							}
, 							{
								"box" : 								{
									"id" : "obj-77",
									"maxclass" : "newobj",
									"numinlets" : 1,
									"numoutlets" : 3,
									"outlettype" : [ "bang", "int", "int" ],
									"patching_rect" : [ 69.0, 189.0, 40.0, 22.0 ],
									"text" : "t b i 0"
								}

							}
, 							{
								"box" : 								{
									"id" : "obj-75",
									"maxclass" : "newobj",
									"numinlets" : 2,
									"numoutlets" : 3,
									"outlettype" : [ "bang", "bang", "int" ],
									"patching_rect" : [ 69.0, 221.0, 46.0, 22.0 ],
									"text" : "Uzi 1 0"
								}

							}
, 							{
								"box" : 								{
									"id" : "obj-74",
									"maxclass" : "newobj",
									"numinlets" : 2,
									"numoutlets" : 2,
									"outlettype" : [ "", "" ],
									"patching_rect" : [ 69.0, 164.0, 103.0, 22.0 ],
									"text" : "route connections"
								}

							}
, 							{
								"box" : 								{
									"id" : "obj-73",
									"maxclass" : "message",
									"numinlets" : 2,
									"numoutlets" : 1,
									"outlettype" : [ "" ],
									"patching_rect" : [ 50.0, 100.0, 114.0, 22.0 ],
									"text" : "getsize connections"
								}

							}
, 							{
								"box" : 								{
									"id" : "obj-69",
									"maxclass" : "newobj",
									"numinlets" : 2,
									"numoutlets" : 5,
									"outlettype" : [ "dictionary", "", "", "", "" ],
									"patching_rect" : [ 50.0, 132.0, 95.0, 22.0 ],
									"saved_object_attributes" : 									{
										"embed" : 0,
										"legacy" : 0,
										"parameter_enable" : 0,
										"parameter_mappable" : 0
									}
,
									"text" : "dict connections"
								}

							}
, 							{
								"box" : 								{
									"comment" : "",
									"id" : "obj-128",
									"index" : 1,
									"maxclass" : "inlet",
									"numinlets" : 0,
									"numoutlets" : 1,
									"outlettype" : [ "bang" ],
									"patching_rect" : [ 50.0, 40.0, 30.0, 30.0 ]
								}

							}
, 							{
								"box" : 								{
									"comment" : "",
									"id" : "obj-129",
									"index" : 2,
									"maxclass" : "inlet",
									"numinlets" : 0,
									"numoutlets" : 1,
									"outlettype" : [ "" ],
									"patching_rect" : [ 277.333312999999976, 40.0, 30.0, 30.0 ]
								}

							}
, 							{
								"box" : 								{
									"comment" : "",
									"id" : "obj-130",
									"index" : 3,
									"maxclass" : "inlet",
									"numinlets" : 0,
									"numoutlets" : 1,
									"outlettype" : [ "int" ],
									"patching_rect" : [ 379.666687000000024, 40.0, 30.0, 30.0 ]
								}

							}
, 							{
								"box" : 								{
									"comment" : "",
									"id" : "obj-131",
									"index" : 1,
									"maxclass" : "outlet",
									"numinlets" : 1,
									"numoutlets" : 0,
									"patching_rect" : [ 163.0, 570.478516000000013, 30.0, 30.0 ]
								}

							}
 ],
						"lines" : [ 							{
								"patchline" : 								{
									"destination" : [ "obj-87", 0 ],
									"source" : [ "obj-103", 0 ]
								}

							}
, 							{
								"patchline" : 								{
									"destination" : [ "obj-109", 1 ],
									"source" : [ "obj-107", 0 ]
								}

							}
, 							{
								"patchline" : 								{
									"destination" : [ "obj-110", 0 ],
									"source" : [ "obj-107", 1 ]
								}

							}
, 							{
								"patchline" : 								{
									"destination" : [ "obj-109", 0 ],
									"source" : [ "obj-108", 0 ]
								}

							}
, 							{
								"patchline" : 								{
									"destination" : [ "obj-131", 0 ],
									"source" : [ "obj-109", 0 ]
								}

							}
, 							{
								"patchline" : 								{
									"destination" : [ "obj-111", 0 ],
									"source" : [ "obj-110", 0 ]
								}

							}
, 							{
								"patchline" : 								{
									"destination" : [ "obj-109", 0 ],
									"source" : [ "obj-111", 0 ]
								}

							}
, 							{
								"patchline" : 								{
									"destination" : [ "obj-73", 0 ],
									"source" : [ "obj-128", 0 ]
								}

							}
, 							{
								"patchline" : 								{
									"destination" : [ "obj-94", 1 ],
									"source" : [ "obj-129", 0 ]
								}

							}
, 							{
								"patchline" : 								{
									"destination" : [ "obj-87", 2 ],
									"source" : [ "obj-130", 0 ]
								}

							}
, 							{
								"patchline" : 								{
									"destination" : [ "obj-74", 0 ],
									"source" : [ "obj-69", 1 ]
								}

							}
, 							{
								"patchline" : 								{
									"destination" : [ "obj-69", 0 ],
									"source" : [ "obj-73", 0 ]
								}

							}
, 							{
								"patchline" : 								{
									"destination" : [ "obj-77", 0 ],
									"source" : [ "obj-74", 0 ]
								}

							}
, 							{
								"patchline" : 								{
									"destination" : [ "obj-79", 0 ],
									"source" : [ "obj-74", 1 ]
								}

							}
, 							{
								"patchline" : 								{
									"destination" : [ "obj-78", 0 ],
									"source" : [ "obj-75", 2 ]
								}

							}
, 							{
								"patchline" : 								{
									"destination" : [ "obj-1", 0 ],
									"source" : [ "obj-77", 2 ]
								}

							}
, 							{
								"patchline" : 								{
									"destination" : [ "obj-75", 1 ],
									"source" : [ "obj-77", 1 ]
								}

							}
, 							{
								"patchline" : 								{
									"destination" : [ "obj-75", 0 ],
									"source" : [ "obj-77", 0 ]
								}

							}
, 							{
								"patchline" : 								{
									"destination" : [ "obj-69", 0 ],
									"source" : [ "obj-78", 0 ]
								}

							}
, 							{
								"patchline" : 								{
									"destination" : [ "obj-80", 0 ],
									"source" : [ "obj-79", 1 ]
								}

							}
, 							{
								"patchline" : 								{
									"destination" : [ "obj-81", 0 ],
									"order" : 1,
									"source" : [ "obj-80", 0 ]
								}

							}
, 							{
								"patchline" : 								{
									"destination" : [ "obj-92", 0 ],
									"order" : 0,
									"source" : [ "obj-80", 0 ]
								}

							}
, 							{
								"patchline" : 								{
									"destination" : [ "obj-102", 0 ],
									"order" : 1,
									"source" : [ "obj-81", 2 ]
								}

							}
, 							{
								"patchline" : 								{
									"destination" : [ "obj-103", 0 ],
									"order" : 0,
									"source" : [ "obj-81", 2 ]
								}

							}
, 							{
								"patchline" : 								{
									"destination" : [ "obj-84", 0 ],
									"source" : [ "obj-81", 1 ]
								}

							}
, 							{
								"patchline" : 								{
									"destination" : [ "obj-99", 1 ],
									"source" : [ "obj-81", 0 ]
								}

							}
, 							{
								"patchline" : 								{
									"destination" : [ "obj-102", 0 ],
									"order" : 1,
									"source" : [ "obj-84", 0 ]
								}

							}
, 							{
								"patchline" : 								{
									"destination" : [ "obj-94", 0 ],
									"order" : 0,
									"source" : [ "obj-84", 0 ]
								}

							}
, 							{
								"patchline" : 								{
									"destination" : [ "obj-91", 0 ],
									"source" : [ "obj-87", 1 ]
								}

							}
, 							{
								"patchline" : 								{
									"destination" : [ "obj-91", 0 ],
									"source" : [ "obj-87", 0 ]
								}

							}
, 							{
								"patchline" : 								{
									"destination" : [ "obj-102", 0 ],
									"order" : 1,
									"source" : [ "obj-91", 0 ]
								}

							}
, 							{
								"patchline" : 								{
									"destination" : [ "obj-96", 1 ],
									"order" : 0,
									"source" : [ "obj-91", 0 ]
								}

							}
, 							{
								"patchline" : 								{
									"destination" : [ "obj-96", 1 ],
									"source" : [ "obj-92", 0 ]
								}

							}
, 							{
								"patchline" : 								{
									"destination" : [ "obj-102", 0 ],
									"order" : 1,
									"source" : [ "obj-94", 0 ]
								}

							}
, 							{
								"patchline" : 								{
									"destination" : [ "obj-96", 0 ],
									"order" : 0,
									"source" : [ "obj-94", 0 ]
								}

							}
, 							{
								"patchline" : 								{
									"destination" : [ "obj-102", 0 ],
									"order" : 1,
									"source" : [ "obj-96", 0 ]
								}

							}
, 							{
								"patchline" : 								{
									"destination" : [ "obj-98", 0 ],
									"order" : 0,
									"source" : [ "obj-96", 0 ]
								}

							}
, 							{
								"patchline" : 								{
									"destination" : [ "obj-99", 0 ],
									"order" : 2,
									"source" : [ "obj-96", 0 ]
								}

							}
, 							{
								"patchline" : 								{
									"destination" : [ "obj-107", 0 ],
									"order" : 1,
									"source" : [ "obj-99", 0 ]
								}

							}
, 							{
								"patchline" : 								{
									"destination" : [ "obj-108", 0 ],
									"order" : 0,
									"source" : [ "obj-99", 0 ]
								}

							}
 ]
					}
,
					"patching_rect" : [ 45.0, 377.0, 187.0, 22.0 ],
					"saved_object_attributes" : 					{
						"description" : "",
						"digest" : "",
						"globalpatchername" : "",
						"tags" : ""
					}
,
					"text" : "p are_these_outputs_connected?"
				}

			}
, 			{
				"box" : 				{
					"id" : "obj-118",
					"maxclass" : "newobj",
					"numinlets" : 1,
					"numoutlets" : 2,
					"outlettype" : [ "int", "stop" ],
					"patching_rect" : [ 96.0, 441.0, 48.0, 22.0 ],
					"text" : "t 1 stop"
				}

			}
, 			{
				"box" : 				{
					"id" : "obj-116",
					"maxclass" : "newobj",
					"numinlets" : 1,
					"numoutlets" : 2,
					"outlettype" : [ "int", "stop" ],
					"patching_rect" : [ 45.0, 441.0, 48.0, 22.0 ],
					"text" : "t 1 stop"
				}

			}
, 			{
				"box" : 				{
					"id" : "obj-115",
					"maxclass" : "newobj",
					"numinlets" : 3,
					"numoutlets" : 3,
					"outlettype" : [ "bang", "bang", "" ],
					"patching_rect" : [ 45.0, 409.0, 44.0, 22.0 ],
					"text" : "sel 1 2"
				}

			}
, 			{
				"box" : 				{
					"id" : "obj-93",
					"maxclass" : "newobj",
					"numinlets" : 4,
					"numoutlets" : 10,
					"outlettype" : [ "", "bang", "", "", "", "", "", "int", "", "" ],
					"patching_rect" : [ 183.0, 46.0, 134.0, 22.0 ],
					"text" : "voiceheader_noparams"
				}

			}
, 			{
				"box" : 				{
					"id" : "obj-60",
					"maxclass" : "newobj",
					"numinlets" : 2,
					"numoutlets" : 2,
					"outlettype" : [ "bang", "" ],
					"patching_rect" : [ 8.0, 545.0, 34.0, 22.0 ],
					"text" : "sel 1"
				}

			}
, 			{
				"box" : 				{
					"id" : "obj-58",
					"maxclass" : "newobj",
					"numinlets" : 2,
					"numoutlets" : 1,
					"outlettype" : [ "int" ],
					"patching_rect" : [ 8.0, 513.0, 32.0, 22.0 ],
					"text" : "> 50"
				}

			}
, 			{
				"box" : 				{
					"id" : "obj-65",
					"linecount" : 4,
					"maxclass" : "comment",
					"numinlets" : 1,
					"numoutlets" : 0,
					"patching_rect" : [ 45.0, 523.0, 150.0, 75.0 ],
					"text" : "if rate of EOA/EOR outputs goes high, it checks to see if they're used\n"
				}

			}
, 			{
				"box" : 				{
					"id" : "obj-63",
					"maxclass" : "newobj",
					"numinlets" : 2,
					"numoutlets" : 1,
					"outlettype" : [ "int" ],
					"patching_rect" : [ 663.0, 312.0, 33.0, 22.0 ],
					"text" : "== 1"
				}

			}
, 			{
				"box" : 				{
					"id" : "obj-62",
					"maxclass" : "newobj",
					"numinlets" : 2,
					"numoutlets" : 1,
					"outlettype" : [ "signal" ],
					"patching_rect" : [ 266.0, 426.0, 59.0, 22.0 ],
					"text" : "gate~ 1 1"
				}

			}
, 			{
				"box" : 				{
					"id" : "obj-61",
					"maxclass" : "newobj",
					"numinlets" : 2,
					"numoutlets" : 1,
					"outlettype" : [ "signal" ],
					"patching_rect" : [ 204.0, 431.0, 59.0, 22.0 ],
					"text" : "gate~ 1 1"
				}

			}
, 			{
				"box" : 				{
					"id" : "obj-33",
					"maxclass" : "newobj",
					"numinlets" : 1,
					"numoutlets" : 1,
					"outlettype" : [ "int" ],
					"patcher" : 					{
						"fileversion" : 1,
						"appversion" : 						{
							"major" : 8,
							"minor" : 6,
							"revision" : 4,
							"architecture" : "x64",
							"modernui" : 1
						}
,
						"classnamespace" : "box",
						"rect" : [ 59.0, 107.0, 640.0, 480.0 ],
						"bglocked" : 0,
						"openinpresentation" : 0,
						"default_fontsize" : 12.0,
						"default_fontface" : 0,
						"default_fontname" : "Arial",
						"gridonopen" : 1,
						"gridsize" : [ 15.0, 15.0 ],
						"gridsnaponopen" : 1,
						"objectsnaponopen" : 1,
						"statusbarvisible" : 2,
						"toolbarvisible" : 1,
						"lefttoolbarpinned" : 0,
						"toptoolbarpinned" : 0,
						"righttoolbarpinned" : 0,
						"bottomtoolbarpinned" : 0,
						"toolbars_unpinned_last_save" : 0,
						"tallnewobj" : 0,
						"boxanimatetime" : 200,
						"enablehscroll" : 1,
						"enablevscroll" : 1,
						"devicewidth" : 0.0,
						"description" : "",
						"digest" : "",
						"tags" : "",
						"style" : "",
						"subpatcher_template" : "",
						"assistshowspatchername" : 0,
						"boxes" : [ 							{
								"box" : 								{
									"id" : "obj-29",
									"maxclass" : "newobj",
									"numinlets" : 1,
									"numoutlets" : 1,
									"outlettype" : [ "bang" ],
									"patching_rect" : [ 87.0, 100.0, 22.0, 22.0 ],
									"text" : "t b"
								}

							}
, 							{
								"box" : 								{
									"id" : "obj-28",
									"maxclass" : "newobj",
									"numinlets" : 2,
									"numoutlets" : 1,
									"outlettype" : [ "int" ],
									"patching_rect" : [ 63.0, 188.0, 29.5, 22.0 ],
									"text" : "i"
								}

							}
, 							{
								"box" : 								{
									"id" : "obj-27",
									"maxclass" : "newobj",
									"numinlets" : 5,
									"numoutlets" : 4,
									"outlettype" : [ "int", "", "", "int" ],
									"patching_rect" : [ 87.0, 157.0, 61.0, 22.0 ],
									"text" : "counter"
								}

							}
, 							{
								"box" : 								{
									"id" : "obj-26",
									"maxclass" : "newobj",
									"numinlets" : 1,
									"numoutlets" : 2,
									"outlettype" : [ "int", "bang" ],
									"patching_rect" : [ 50.0, 157.0, 32.0, 22.0 ],
									"text" : "t 0 b"
								}

							}
, 							{
								"box" : 								{
									"id" : "obj-25",
									"maxclass" : "newobj",
									"numinlets" : 2,
									"numoutlets" : 1,
									"outlettype" : [ "bang" ],
									"patching_rect" : [ 50.0, 125.0, 251.0, 22.0 ],
									"text" : "metro 1000 @active 1 @autostart 1 @defer 1"
								}

							}
, 							{
								"box" : 								{
									"comment" : "",
									"id" : "obj-32",
									"index" : 1,
									"maxclass" : "inlet",
									"numinlets" : 0,
									"numoutlets" : 1,
									"outlettype" : [ "bang" ],
									"patching_rect" : [ 87.0, 40.0, 30.0, 30.0 ]
								}

							}
, 							{
								"box" : 								{
									"comment" : "",
									"id" : "obj-33",
									"index" : 1,
									"maxclass" : "outlet",
									"numinlets" : 1,
									"numoutlets" : 0,
									"patching_rect" : [ 63.0, 270.0, 30.0, 30.0 ]
								}

							}
 ],
						"lines" : [ 							{
								"patchline" : 								{
									"destination" : [ "obj-26", 0 ],
									"source" : [ "obj-25", 0 ]
								}

							}
, 							{
								"patchline" : 								{
									"destination" : [ "obj-27", 2 ],
									"source" : [ "obj-26", 0 ]
								}

							}
, 							{
								"patchline" : 								{
									"destination" : [ "obj-28", 0 ],
									"source" : [ "obj-26", 1 ]
								}

							}
, 							{
								"patchline" : 								{
									"destination" : [ "obj-28", 1 ],
									"source" : [ "obj-27", 0 ]
								}

							}
, 							{
								"patchline" : 								{
									"destination" : [ "obj-33", 0 ],
									"source" : [ "obj-28", 0 ]
								}

							}
, 							{
								"patchline" : 								{
									"destination" : [ "obj-27", 0 ],
									"source" : [ "obj-29", 0 ]
								}

							}
, 							{
								"patchline" : 								{
									"destination" : [ "obj-29", 0 ],
									"source" : [ "obj-32", 0 ]
								}

							}
 ]
					}
,
					"patching_rect" : [ 8.0, 477.0, 69.0, 22.0 ],
					"saved_object_attributes" : 					{
						"description" : "",
						"digest" : "",
						"globalpatchername" : "",
						"tags" : ""
					}
,
					"text" : "p ratecount"
				}

			}
, 			{
				"box" : 				{
					"id" : "obj-42",
					"maxclass" : "newobj",
					"numinlets" : 2,
					"numoutlets" : 1,
					"outlettype" : [ "float" ],
					"patching_rect" : [ 374.0, 458.0, 29.5, 22.0 ],
					"text" : "!- 0."
				}

			}
, 			{
				"box" : 				{
					"id" : "obj-41",
					"maxclass" : "newobj",
					"numinlets" : 2,
					"numoutlets" : 2,
					"outlettype" : [ "", "" ],
					"patching_rect" : [ 341.0, 426.0, 52.0, 22.0 ],
					"text" : "gate 2 1"
				}

			}
, 			{
				"box" : 				{
					"id" : "obj-45",
					"maxclass" : "newobj",
					"numinlets" : 1,
					"numoutlets" : 1,
					"outlettype" : [ "int" ],
					"patching_rect" : [ 298.0, 8.0, 40.0, 22.0 ],
					"text" : "active"
				}

			}
, 			{
				"box" : 				{
					"id" : "obj-54",
					"maxclass" : "newobj",
					"numinlets" : 1,
					"numoutlets" : 3,
					"outlettype" : [ "bang", "", "int" ],
					"patcher" : 					{
						"fileversion" : 1,
						"appversion" : 						{
							"major" : 8,
							"minor" : 6,
							"revision" : 4,
							"architecture" : "x64",
							"modernui" : 1
						}
,
						"classnamespace" : "box",
						"rect" : [ 59.0, 107.0, 640.0, 480.0 ],
						"bglocked" : 0,
						"openinpresentation" : 0,
						"default_fontsize" : 12.0,
						"default_fontface" : 0,
						"default_fontname" : "Arial",
						"gridonopen" : 1,
						"gridsize" : [ 15.0, 15.0 ],
						"gridsnaponopen" : 1,
						"objectsnaponopen" : 1,
						"statusbarvisible" : 2,
						"toolbarvisible" : 1,
						"lefttoolbarpinned" : 0,
						"toptoolbarpinned" : 0,
						"righttoolbarpinned" : 0,
						"bottomtoolbarpinned" : 0,
						"toolbars_unpinned_last_save" : 0,
						"tallnewobj" : 0,
						"boxanimatetime" : 200,
						"enablehscroll" : 1,
						"enablevscroll" : 1,
						"devicewidth" : 0.0,
						"description" : "",
						"digest" : "",
						"tags" : "",
						"style" : "",
						"subpatcher_template" : "",
						"assistshowspatchername" : 0,
						"boxes" : [ 							{
								"box" : 								{
									"id" : "obj-13",
									"maxclass" : "newobj",
									"numinlets" : 2,
									"numoutlets" : 1,
									"outlettype" : [ "int" ],
									"patching_rect" : [ 99.0, 266.0, 33.0, 22.0 ],
									"text" : "== 1"
								}

							}
, 							{
								"box" : 								{
									"comment" : "",
									"id" : "obj-12",
									"index" : 3,
									"maxclass" : "outlet",
									"numinlets" : 1,
									"numoutlets" : 0,
									"patching_rect" : [ 249.0, 351.0, 30.0, 30.0 ]
								}

							}
, 							{
								"box" : 								{
									"id" : "obj-7",
									"maxclass" : "newobj",
									"numinlets" : 2,
									"numoutlets" : 1,
									"outlettype" : [ "int" ],
									"patching_rect" : [ 249.0, 293.0, 29.5, 22.0 ],
									"text" : "+ 1"
								}

							}
, 							{
								"box" : 								{
									"id" : "obj-11",
									"maxclass" : "newobj",
									"numinlets" : 1,
									"numoutlets" : 1,
									"outlettype" : [ "" ],
									"patching_rect" : [ 99.0, 306.0, 116.0, 22.0 ],
									"text" : "expr 100 + 2000*$i1"
								}

							}
, 							{
								"box" : 								{
									"comment" : "",
									"id" : "obj-10",
									"index" : 2,
									"maxclass" : "outlet",
									"numinlets" : 1,
									"numoutlets" : 0,
									"patching_rect" : [ 99.0, 351.0, 30.0, 30.0 ]
								}

							}
, 							{
								"box" : 								{
									"id" : "obj-4",
									"maxclass" : "newobj",
									"numinlets" : 2,
									"numoutlets" : 1,
									"outlettype" : [ "float" ],
									"patching_rect" : [ 50.0, 227.0, 29.5, 22.0 ],
									"text" : "* 5."
								}

							}
, 							{
								"box" : 								{
									"id" : "obj-50",
									"maxclass" : "newobj",
									"numinlets" : 2,
									"numoutlets" : 2,
									"outlettype" : [ "bang", "" ],
									"patching_rect" : [ 50.0, 298.0, 34.0, 22.0 ],
									"text" : "sel 1"
								}

							}
, 							{
								"box" : 								{
									"id" : "obj-45",
									"maxclass" : "newobj",
									"numinlets" : 2,
									"numoutlets" : 1,
									"outlettype" : [ "bang" ],
									"patching_rect" : [ 110.0, 164.0, 122.0, 22.0 ],
									"text" : "metro 1278 @defer 1"
								}

							}
, 							{
								"box" : 								{
									"id" : "obj-43",
									"maxclass" : "newobj",
									"numinlets" : 1,
									"numoutlets" : 1,
									"outlettype" : [ "int" ],
									"patching_rect" : [ 110.0, 132.0, 22.0, 22.0 ],
									"text" : "t 1"
								}

							}
, 							{
								"box" : 								{
									"id" : "obj-42",
									"maxclass" : "newobj",
									"numinlets" : 2,
									"numoutlets" : 1,
									"outlettype" : [ "int" ],
									"patching_rect" : [ 50.0, 264.0, 33.0, 22.0 ],
									"text" : "<= 1"
								}

							}
, 							{
								"box" : 								{
									"id" : "obj-41",
									"maxclass" : "newobj",
									"numinlets" : 3,
									"numoutlets" : 1,
									"outlettype" : [ "float" ],
									"patching_rect" : [ 50.0, 196.0, 171.0, 22.0 ],
									"text" : "peek~ voice_parameter_buffer"
								}

							}
, 							{
								"box" : 								{
									"id" : "obj-40",
									"maxclass" : "newobj",
									"numinlets" : 2,
									"numoutlets" : 1,
									"outlettype" : [ "int" ],
									"patching_rect" : [ 50.0, 164.0, 29.5, 22.0 ],
									"text" : "i"
								}

							}
, 							{
								"box" : 								{
									"id" : "obj-33",
									"maxclass" : "newobj",
									"numinlets" : 2,
									"numoutlets" : 1,
									"outlettype" : [ "int" ],
									"patching_rect" : [ 61.0, 132.0, 29.5, 22.0 ],
									"text" : "+ 7"
								}

							}
, 							{
								"box" : 								{
									"id" : "obj-26",
									"maxclass" : "newobj",
									"numinlets" : 2,
									"numoutlets" : 2,
									"outlettype" : [ "", "" ],
									"patching_rect" : [ 61.0, 100.0, 103.0, 22.0 ],
									"text" : "route voice_offset"
								}

							}
, 							{
								"box" : 								{
									"comment" : "",
									"id" : "obj-52",
									"index" : 1,
									"maxclass" : "inlet",
									"numinlets" : 0,
									"numoutlets" : 1,
									"outlettype" : [ "" ],
									"patching_rect" : [ 61.0, 40.0, 30.0, 30.0 ]
								}

							}
, 							{
								"box" : 								{
									"comment" : "",
									"id" : "obj-53",
									"index" : 1,
									"maxclass" : "outlet",
									"numinlets" : 1,
									"numoutlets" : 0,
									"patching_rect" : [ 50.0, 342.0, 30.0, 30.0 ]
								}

							}
 ],
						"lines" : [ 							{
								"patchline" : 								{
									"destination" : [ "obj-10", 0 ],
									"source" : [ "obj-11", 0 ]
								}

							}
, 							{
								"patchline" : 								{
									"destination" : [ "obj-7", 0 ],
									"source" : [ "obj-13", 0 ]
								}

							}
, 							{
								"patchline" : 								{
									"destination" : [ "obj-33", 0 ],
									"order" : 1,
									"source" : [ "obj-26", 0 ]
								}

							}
, 							{
								"patchline" : 								{
									"destination" : [ "obj-43", 0 ],
									"order" : 0,
									"source" : [ "obj-26", 0 ]
								}

							}
, 							{
								"patchline" : 								{
									"destination" : [ "obj-40", 1 ],
									"source" : [ "obj-33", 0 ]
								}

							}
, 							{
								"patchline" : 								{
									"destination" : [ "obj-13", 0 ],
									"order" : 0,
									"source" : [ "obj-4", 0 ]
								}

							}
, 							{
								"patchline" : 								{
									"destination" : [ "obj-42", 0 ],
									"order" : 1,
									"source" : [ "obj-4", 0 ]
								}

							}
, 							{
								"patchline" : 								{
									"destination" : [ "obj-41", 0 ],
									"source" : [ "obj-40", 0 ]
								}

							}
, 							{
								"patchline" : 								{
									"destination" : [ "obj-4", 0 ],
									"source" : [ "obj-41", 0 ]
								}

							}
, 							{
								"patchline" : 								{
									"destination" : [ "obj-11", 0 ],
									"order" : 0,
									"source" : [ "obj-42", 0 ]
								}

							}
, 							{
								"patchline" : 								{
									"destination" : [ "obj-50", 0 ],
									"order" : 1,
									"source" : [ "obj-42", 0 ]
								}

							}
, 							{
								"patchline" : 								{
									"destination" : [ "obj-45", 0 ],
									"source" : [ "obj-43", 0 ]
								}

							}
, 							{
								"patchline" : 								{
									"destination" : [ "obj-40", 0 ],
									"source" : [ "obj-45", 0 ]
								}

							}
, 							{
								"patchline" : 								{
									"destination" : [ "obj-53", 0 ],
									"source" : [ "obj-50", 0 ]
								}

							}
, 							{
								"patchline" : 								{
									"destination" : [ "obj-26", 0 ],
									"source" : [ "obj-52", 0 ]
								}

							}
, 							{
								"patchline" : 								{
									"destination" : [ "obj-12", 0 ],
									"source" : [ "obj-7", 0 ]
								}

							}
 ]
					}
,
					"patching_rect" : [ 537.0, 244.0, 145.0, 22.0 ],
					"saved_object_attributes" : 					{
						"description" : "",
						"digest" : "",
						"globalpatchername" : "",
						"tags" : ""
					}
,
					"text" : "p unmute_if_follow_mode"
				}

			}
, 			{
				"box" : 				{
					"id" : "obj-26",
					"maxclass" : "newobj",
					"numinlets" : 1,
					"numoutlets" : 1,
					"outlettype" : [ "" ],
					"patching_rect" : [ 390.0, 347.0, 63.0, 22.0 ],
					"text" : "prepend 0"
				}

			}
, 			{
				"box" : 				{
					"id" : "obj-53",
					"maxclass" : "newobj",
					"numinlets" : 1,
					"numoutlets" : 1,
					"outlettype" : [ "int" ],
					"patching_rect" : [ 567.0, 503.0, 22.0, 22.0 ],
					"text" : "t 0"
				}

			}
, 			{
				"box" : 				{
					"id" : "obj-52",
					"maxclass" : "newobj",
					"numinlets" : 2,
					"numoutlets" : 2,
					"outlettype" : [ "bang", "" ],
					"patching_rect" : [ 567.0, 471.0, 34.0, 22.0 ],
					"text" : "sel 1"
				}

			}
, 			{
				"box" : 				{
					"id" : "obj-48",
					"maxclass" : "newobj",
					"numinlets" : 2,
					"numoutlets" : 1,
					"outlettype" : [ "" ],
					"patching_rect" : [ 467.0, 244.0, 32.0, 22.0 ],
					"text" : "gate"
				}

			}
, 			{
				"box" : 				{
					"id" : "obj-47",
					"maxclass" : "newobj",
					"numinlets" : 1,
					"numoutlets" : 1,
					"outlettype" : [ "int" ],
					"patching_rect" : [ 427.0, 177.0, 22.0, 22.0 ],
					"text" : "t 0"
				}

			}
, 			{
				"box" : 				{
					"id" : "obj-46",
					"maxclass" : "newobj",
					"numinlets" : 1,
					"numoutlets" : 1,
					"outlettype" : [ "int" ],
					"patching_rect" : [ 503.0, 213.0, 22.0, 22.0 ],
					"text" : "t 1"
				}

			}
, 			{
				"box" : 				{
					"id" : "obj-25",
					"maxclass" : "newobj",
					"numinlets" : 1,
					"numoutlets" : 3,
					"outlettype" : [ "", "int", "int" ],
					"patching_rect" : [ 555.0, 408.0, 62.0, 22.0 ],
					"text" : "change -1"
				}

			}
, 			{
				"box" : 				{
					"id" : "obj-117",
					"maxclass" : "newobj",
					"numinlets" : 1,
					"numoutlets" : 1,
					"outlettype" : [ "bang" ],
					"patching_rect" : [ 530.0, 408.0, 22.0, 22.0 ],
					"text" : "t b"
				}

			}
, 			{
				"box" : 				{
					"id" : "obj-90",
					"maxclass" : "newobj",
					"numinlets" : 1,
					"numoutlets" : 0,
					"patching_rect" : [ 530.0, 471.0, 35.0, 22.0 ],
					"saved_object_attributes" : 					{
						"attr_comment" : ""
					}
,
					"text" : "out 2"
				}

			}
, 			{
				"box" : 				{
					"id" : "obj-89",
					"maxclass" : "newobj",
					"numinlets" : 2,
					"numoutlets" : 1,
					"outlettype" : [ "int" ],
					"patching_rect" : [ 569.0, 439.0, 29.5, 22.0 ],
					"text" : "i"
				}

			}
, 			{
				"box" : 				{
					"id" : "obj-44",
					"maxclass" : "newobj",
					"numinlets" : 1,
					"numoutlets" : 1,
					"outlettype" : [ "float" ],
					"patcher" : 					{
						"fileversion" : 1,
						"appversion" : 						{
							"major" : 8,
							"minor" : 6,
							"revision" : 4,
							"architecture" : "x64",
							"modernui" : 1
						}
,
						"classnamespace" : "box",
						"rect" : [ 59.0, 107.0, 640.0, 480.0 ],
						"bglocked" : 0,
						"openinpresentation" : 0,
						"default_fontsize" : 12.0,
						"default_fontface" : 0,
						"default_fontname" : "Arial",
						"gridonopen" : 1,
						"gridsize" : [ 15.0, 15.0 ],
						"gridsnaponopen" : 1,
						"objectsnaponopen" : 1,
						"statusbarvisible" : 2,
						"toolbarvisible" : 1,
						"lefttoolbarpinned" : 0,
						"toptoolbarpinned" : 0,
						"righttoolbarpinned" : 0,
						"bottomtoolbarpinned" : 0,
						"toolbars_unpinned_last_save" : 0,
						"tallnewobj" : 0,
						"boxanimatetime" : 200,
						"enablehscroll" : 1,
						"enablevscroll" : 1,
						"devicewidth" : 0.0,
						"description" : "",
						"digest" : "",
						"tags" : "",
						"style" : "",
						"subpatcher_template" : "",
						"assistshowspatchername" : 0,
						"boxes" : [ 							{
								"box" : 								{
									"id" : "obj-34",
									"maxclass" : "newobj",
									"numinlets" : 2,
									"numoutlets" : 1,
									"outlettype" : [ "float" ],
									"patching_rect" : [ 116.0, 226.0, 29.5, 22.0 ],
									"text" : "+ 0."
								}

							}
, 							{
								"box" : 								{
									"id" : "obj-33",
									"maxclass" : "newobj",
									"numinlets" : 2,
									"numoutlets" : 1,
									"outlettype" : [ "float" ],
									"patching_rect" : [ 126.5, 196.0, 53.0, 22.0 ],
									"text" : "* 0.0001"
								}

							}
, 							{
								"box" : 								{
									"id" : "obj-32",
									"maxclass" : "newobj",
									"numinlets" : 5,
									"numoutlets" : 4,
									"outlettype" : [ "int", "", "", "int" ],
									"patching_rect" : [ 126.5, 164.0, 65.0, 22.0 ],
									"text" : "counter 10"
								}

							}
, 							{
								"box" : 								{
									"id" : "obj-31",
									"maxclass" : "newobj",
									"numinlets" : 1,
									"numoutlets" : 2,
									"outlettype" : [ "float", "bang" ],
									"patching_rect" : [ 116.0, 132.0, 29.5, 22.0 ],
									"text" : "t f b"
								}

							}
, 							{
								"box" : 								{
									"id" : "obj-51",
									"maxclass" : "newobj",
									"numinlets" : 3,
									"numoutlets" : 3,
									"outlettype" : [ "", "", "" ],
									"patching_rect" : [ 50.0, 100.0, 85.0, 22.0 ],
									"text" : "routepass 0 0."
								}

							}
, 							{
								"box" : 								{
									"comment" : "",
									"id" : "obj-35",
									"index" : 1,
									"maxclass" : "inlet",
									"numinlets" : 0,
									"numoutlets" : 1,
									"outlettype" : [ "float" ],
									"patching_rect" : [ 50.0, 40.0, 30.0, 30.0 ]
								}

							}
, 							{
								"box" : 								{
									"comment" : "",
									"id" : "obj-36",
									"index" : 1,
									"maxclass" : "outlet",
									"numinlets" : 1,
									"numoutlets" : 0,
									"patching_rect" : [ 66.0, 308.0, 30.0, 30.0 ]
								}

							}
 ],
						"lines" : [ 							{
								"patchline" : 								{
									"destination" : [ "obj-32", 0 ],
									"source" : [ "obj-31", 1 ]
								}

							}
, 							{
								"patchline" : 								{
									"destination" : [ "obj-34", 0 ],
									"source" : [ "obj-31", 0 ]
								}

							}
, 							{
								"patchline" : 								{
									"destination" : [ "obj-33", 0 ],
									"source" : [ "obj-32", 0 ]
								}

							}
, 							{
								"patchline" : 								{
									"destination" : [ "obj-34", 1 ],
									"source" : [ "obj-33", 0 ]
								}

							}
, 							{
								"patchline" : 								{
									"destination" : [ "obj-36", 0 ],
									"source" : [ "obj-34", 0 ]
								}

							}
, 							{
								"patchline" : 								{
									"destination" : [ "obj-51", 0 ],
									"source" : [ "obj-35", 0 ]
								}

							}
, 							{
								"patchline" : 								{
									"destination" : [ "obj-31", 0 ],
									"source" : [ "obj-51", 2 ]
								}

							}
, 							{
								"patchline" : 								{
									"destination" : [ "obj-36", 0 ],
									"source" : [ "obj-51", 1 ]
								}

							}
, 							{
								"patchline" : 								{
									"destination" : [ "obj-36", 0 ],
									"source" : [ "obj-51", 0 ]
								}

							}
 ]
					}
,
					"patching_rect" : [ 402.0, 213.0, 93.0, 22.0 ],
					"saved_object_attributes" : 					{
						"description" : "",
						"digest" : "",
						"globalpatchername" : "",
						"tags" : ""
					}
,
					"text" : "p smallrandomv"
				}

			}
, 			{
				"box" : 				{
					"id" : "obj-32",
					"maxclass" : "newobj",
					"numinlets" : 2,
					"numoutlets" : 1,
					"outlettype" : [ "float" ],
					"patching_rect" : [ 462.0, 143.0, 29.5, 22.0 ],
					"text" : "+ 0."
				}

			}
, 			{
				"box" : 				{
					"id" : "obj-31",
					"maxclass" : "newobj",
					"numinlets" : 1,
					"numoutlets" : 2,
					"outlettype" : [ "float", "bang" ],
					"patching_rect" : [ 462.0, 53.0, 29.5, 22.0 ],
					"text" : "t f b"
				}

			}
, 			{
				"box" : 				{
					"id" : "obj-30",
					"maxclass" : "newobj",
					"numinlets" : 2,
					"numoutlets" : 1,
					"outlettype" : [ "float" ],
					"patching_rect" : [ 472.0, 115.0, 51.0, 22.0 ],
					"text" : "* -0.001"
				}

			}
, 			{
				"box" : 				{
					"id" : "obj-29",
					"maxclass" : "newobj",
					"numinlets" : 5,
					"numoutlets" : 4,
					"outlettype" : [ "int", "", "", "int" ],
					"patching_rect" : [ 472.0, 83.0, 65.0, 22.0 ],
					"text" : "counter 10"
				}

			}
, 			{
				"box" : 				{
					"id" : "obj-39",
					"maxclass" : "newobj",
					"numinlets" : 1,
					"numoutlets" : 1,
					"outlettype" : [ "int" ],
					"patching_rect" : [ 626.0, 209.0, 22.0, 22.0 ],
					"text" : "t 0"
				}

			}
, 			{
				"box" : 				{
					"id" : "obj-36",
					"maxclass" : "newobj",
					"numinlets" : 2,
					"numoutlets" : 1,
					"outlettype" : [ "bang" ],
					"patching_rect" : [ 626.0, 177.0, 41.0, 22.0 ],
					"text" : "del 10"
				}

			}
, 			{
				"box" : 				{
					"id" : "obj-35",
					"maxclass" : "newobj",
					"numinlets" : 1,
					"numoutlets" : 1,
					"outlettype" : [ "" ],
					"patching_rect" : [ 536.0, 209.0, 85.0, 22.0 ],
					"text" : "prepend panic"
				}

			}
, 			{
				"box" : 				{
					"id" : "obj-34",
					"maxclass" : "newobj",
					"numinlets" : 1,
					"numoutlets" : 3,
					"outlettype" : [ "int", "bang", "int" ],
					"patching_rect" : [ 536.0, 177.0, 42.0, 22.0 ],
					"text" : "t 1 b 0"
				}

			}
, 			{
				"box" : 				{
					"id" : "obj-27",
					"maxclass" : "newobj",
					"numinlets" : 0,
					"numoutlets" : 1,
					"outlettype" : [ "" ],
					"patching_rect" : [ 536.0, 144.0, 45.0, 22.0 ],
					"text" : "r panic"
				}

			}
, 			{
				"box" : 				{
					"id" : "obj-21",
					"maxclass" : "newobj",
					"numinlets" : 1,
					"numoutlets" : 1,
					"outlettype" : [ "" ],
					"patching_rect" : [ 462.0, 177.0, 63.0, 22.0 ],
					"text" : "prepend tr"
				}

			}
, 			{
				"box" : 				{
					"id" : "obj-18",
					"maxclass" : "newobj",
					"numinlets" : 2,
					"numoutlets" : 1,
					"outlettype" : [ "float" ],
					"patching_rect" : [ 462.0, 26.0, 43.0, 22.0 ],
					"text" : "/ -128."
				}

			}
, 			{
				"box" : 				{
					"id" : "obj-13",
					"maxclass" : "newobj",
					"numinlets" : 3,
					"numoutlets" : 2,
					"outlettype" : [ "float", "float" ],
					"patching_rect" : [ 316.0, 244.0, 70.0, 22.0 ],
					"text" : "split 0. 999."
				}

			}
, 			{
				"box" : 				{
					"id" : "obj-24",
					"maxclass" : "message",
					"numinlets" : 2,
					"numoutlets" : 1,
					"outlettype" : [ "" ],
					"patching_rect" : [ 606.0, 347.0, 45.0, 22.0 ],
					"text" : "mute 1"
				}

			}
, 			{
				"box" : 				{
					"id" : "obj-22",
					"maxclass" : "message",
					"numinlets" : 2,
					"numoutlets" : 1,
					"outlettype" : [ "" ],
					"patching_rect" : [ 651.0, 280.0, 31.0, 22.0 ],
					"text" : "stop"
				}

			}
, 			{
				"box" : 				{
					"id" : "obj-20",
					"maxclass" : "newobj",
					"numinlets" : 2,
					"numoutlets" : 1,
					"outlettype" : [ "bang" ],
					"patching_rect" : [ 606.0, 312.0, 48.0, 22.0 ],
					"text" : "del 100"
				}

			}
, 			{
				"box" : 				{
					"id" : "obj-19",
					"maxclass" : "newobj",
					"numinlets" : 1,
					"numoutlets" : 2,
					"outlettype" : [ "bang", "bang" ],
					"patching_rect" : [ 606.0, 280.0, 42.0, 22.0 ],
					"text" : "edge~"
				}

			}
, 			{
				"box" : 				{
					"id" : "obj-17",
					"maxclass" : "message",
					"numinlets" : 2,
					"numoutlets" : 1,
					"outlettype" : [ "" ],
					"patching_rect" : [ 258.0, 499.0, 53.0, 22.0 ],
					"text" : "2 0 -127"
				}

			}
, 			{
				"box" : 				{
					"id" : "obj-15",
					"maxclass" : "message",
					"numinlets" : 2,
					"numoutlets" : 1,
					"outlettype" : [ "" ],
					"patching_rect" : [ 204.0, 499.0, 53.0, 22.0 ],
					"text" : "1 0 -127"
				}

			}
, 			{
				"box" : 				{
					"id" : "obj-12",
					"maxclass" : "newobj",
					"numinlets" : 1,
					"numoutlets" : 2,
					"outlettype" : [ "bang", "bang" ],
					"patching_rect" : [ 252.0, 467.0, 42.0, 22.0 ],
					"text" : "edge~"
				}

			}
, 			{
				"box" : 				{
					"id" : "obj-11",
					"maxclass" : "newobj",
					"numinlets" : 1,
					"numoutlets" : 2,
					"outlettype" : [ "bang", "bang" ],
					"patching_rect" : [ 204.0, 467.0, 42.0, 22.0 ],
					"text" : "edge~"
				}

			}
, 			{
				"box" : 				{
					"id" : "obj-10",
					"maxclass" : "newobj",
					"numinlets" : 2,
					"numoutlets" : 1,
					"outlettype" : [ "float" ],
					"patching_rect" : [ 402.0, 244.0, 39.0, 22.0 ],
					"text" : "/ 128."
				}

			}
, 			{
				"box" : 				{
					"id" : "obj-51",
					"maxclass" : "newobj",
					"numinlets" : 1,
					"numoutlets" : 1,
					"outlettype" : [ "" ],
					"patching_rect" : [ 402.0, 277.0, 62.0, 22.0 ],
					"text" : "prepend v"
				}

			}
, 			{
				"box" : 				{
					"id" : "obj-49",
					"maxclass" : "newobj",
					"numinlets" : 1,
					"numoutlets" : 2,
					"outlettype" : [ "float", "float" ],
					"patching_rect" : [ 316.0, 213.0, 74.0, 22.0 ],
					"text" : "unpack 0. 0."
				}

			}
, 			{
				"box" : 				{
					"id" : "obj-16",
					"maxclass" : "newobj",
					"numinlets" : 2,
					"numoutlets" : 5,
					"outlettype" : [ "signal", "signal", "signal", "signal", "signal" ],
					"patching_rect" : [ 227.0, 277.0, 107.0, 22.0 ],
					"text" : "gen~ utility.env.asr"
				}

			}
, 			{
				"box" : 				{
					"id" : "obj-9",
					"maxclass" : "newobj",
					"numinlets" : 1,
					"numoutlets" : 0,
					"patching_rect" : [ 456.0, 377.0, 35.0, 22.0 ],
					"saved_object_attributes" : 					{
						"attr_comment" : ""
					}
,
					"text" : "out 1"
				}

			}
, 			{
				"box" : 				{
					"id" : "obj-3",
					"maxclass" : "newobj",
					"numinlets" : 1,
					"numoutlets" : 3,
					"outlettype" : [ "int", "int", "int" ],
					"patching_rect" : [ 536.0, 377.0, 56.0, 22.0 ],
					"text" : "thispoly~"
				}

			}
, 			{
				"box" : 				{
					"id" : "obj-7",
					"maxclass" : "newobj",
					"numinlets" : 1,
					"numoutlets" : 0,
					"patching_rect" : [ 246.0, 337.0, 42.0, 22.0 ],
					"text" : "out~ 2"
				}

			}
, 			{
				"box" : 				{
					"id" : "obj-5",
					"maxclass" : "newobj",
					"numinlets" : 1,
					"numoutlets" : 1,
					"outlettype" : [ "signal" ],
					"patching_rect" : [ 283.0, 209.0, 35.0, 22.0 ],
					"text" : "in~ 2"
				}

			}
, 			{
				"box" : 				{
					"id" : "obj-4",
					"maxclass" : "newobj",
					"numinlets" : 1,
					"numoutlets" : 0,
					"patching_rect" : [ 227.0, 313.0, 42.0, 22.0 ],
					"text" : "out~ 1"
				}

			}
, 			{
				"box" : 				{
					"id" : "obj-2",
					"maxclass" : "newobj",
					"numinlets" : 1,
					"numoutlets" : 1,
					"outlettype" : [ "signal" ],
					"patching_rect" : [ 246.0, 209.0, 35.0, 22.0 ],
					"text" : "in~ 1"
				}

			}
, 			{
				"box" : 				{
					"id" : "obj-1",
					"maxclass" : "newobj",
					"numinlets" : 1,
					"numoutlets" : 1,
					"outlettype" : [ "" ],
					"patching_rect" : [ 183.0, 8.0, 28.0, 22.0 ],
					"text" : "in 1"
				}

			}
, 			{
				"box" : 				{
					"id" : "obj-6",
					"maxclass" : "message",
					"numinlets" : 2,
					"numoutlets" : 1,
					"outlettype" : [ "" ],
					"patching_rect" : [ 536.0, 347.0, 45.0, 22.0 ],
					"text" : "mute 0"
				}

			}
, 			{
				"box" : 				{
					"id" : "obj-28",
					"maxclass" : "message",
					"numinlets" : 2,
					"numoutlets" : 1,
					"outlettype" : [ "" ],
					"patching_rect" : [ 188.0, 277.0, 35.0, 22.0 ],
					"text" : "reset"
				}

			}
 ],
		"lines" : [ 			{
				"patchline" : 				{
					"destination" : [ "obj-93", 0 ],
					"source" : [ "obj-1", 0 ]
				}

			}
, 			{
				"patchline" : 				{
					"destination" : [ "obj-51", 0 ],
					"order" : 1,
					"source" : [ "obj-10", 0 ]
				}

			}
, 			{
				"patchline" : 				{
					"destination" : [ "obj-6", 0 ],
					"order" : 0,
					"source" : [ "obj-10", 0 ]
				}

			}
, 			{
				"patchline" : 				{
					"destination" : [ "obj-15", 0 ],
					"order" : 0,
					"source" : [ "obj-11", 0 ]
				}

			}
, 			{
				"patchline" : 				{
					"destination" : [ "obj-33", 0 ],
					"order" : 1,
					"source" : [ "obj-11", 0 ]
				}

			}
, 			{
				"patchline" : 				{
					"destination" : [ "obj-116", 0 ],
					"source" : [ "obj-115", 0 ]
				}

			}
, 			{
				"patchline" : 				{
					"destination" : [ "obj-118", 0 ],
					"source" : [ "obj-115", 1 ]
				}

			}
, 			{
				"patchline" : 				{
					"destination" : [ "obj-135", 0 ],
					"source" : [ "obj-116", 1 ]
				}

			}
, 			{
				"patchline" : 				{
					"destination" : [ "obj-61", 0 ],
					"source" : [ "obj-116", 0 ]
				}

			}
, 			{
				"patchline" : 				{
					"destination" : [ "obj-89", 0 ],
					"source" : [ "obj-117", 0 ]
				}

			}
, 			{
				"patchline" : 				{
					"destination" : [ "obj-135", 0 ],
					"source" : [ "obj-118", 1 ]
				}

			}
, 			{
				"patchline" : 				{
					"destination" : [ "obj-62", 0 ],
					"source" : [ "obj-118", 0 ]
				}

			}
, 			{
				"patchline" : 				{
					"destination" : [ "obj-17", 0 ],
					"order" : 0,
					"source" : [ "obj-12", 0 ]
				}

			}
, 			{
				"patchline" : 				{
					"destination" : [ "obj-33", 0 ],
					"order" : 1,
					"source" : [ "obj-12", 0 ]
				}

			}
, 			{
				"patchline" : 				{
					"destination" : [ "obj-41", 1 ],
					"source" : [ "obj-13", 1 ]
				}

			}
, 			{
				"patchline" : 				{
					"destination" : [ "obj-44", 0 ],
					"source" : [ "obj-13", 0 ]
				}

			}
, 			{
				"patchline" : 				{
					"destination" : [ "obj-115", 0 ],
					"source" : [ "obj-132", 0 ]
				}

			}
, 			{
				"patchline" : 				{
					"destination" : [ "obj-134", 0 ],
					"order" : 2,
					"source" : [ "obj-132", 1 ]
				}

			}
, 			{
				"patchline" : 				{
					"destination" : [ "obj-61", 0 ],
					"order" : 1,
					"source" : [ "obj-132", 1 ]
				}

			}
, 			{
				"patchline" : 				{
					"destination" : [ "obj-62", 0 ],
					"order" : 0,
					"source" : [ "obj-132", 1 ]
				}

			}
, 			{
				"patchline" : 				{
					"destination" : [ "obj-135", 0 ],
					"source" : [ "obj-134", 0 ]
				}

			}
, 			{
				"patchline" : 				{
					"destination" : [ "obj-132", 0 ],
					"source" : [ "obj-135", 0 ]
				}

			}
, 			{
				"patchline" : 				{
					"destination" : [ "obj-9", 0 ],
					"source" : [ "obj-15", 0 ]
				}

			}
, 			{
				"patchline" : 				{
					"destination" : [ "obj-19", 0 ],
					"source" : [ "obj-16", 4 ]
				}

			}
, 			{
				"patchline" : 				{
					"destination" : [ "obj-4", 0 ],
					"source" : [ "obj-16", 0 ]
				}

			}
, 			{
				"patchline" : 				{
					"destination" : [ "obj-61", 1 ],
					"source" : [ "obj-16", 2 ]
				}

			}
, 			{
				"patchline" : 				{
					"destination" : [ "obj-62", 1 ],
					"source" : [ "obj-16", 3 ]
				}

			}
, 			{
				"patchline" : 				{
					"destination" : [ "obj-7", 0 ],
					"source" : [ "obj-16", 1 ]
				}

			}
, 			{
				"patchline" : 				{
					"destination" : [ "obj-9", 0 ],
					"source" : [ "obj-17", 0 ]
				}

			}
, 			{
				"patchline" : 				{
					"destination" : [ "obj-31", 0 ],
					"source" : [ "obj-18", 0 ]
				}

			}
, 			{
				"patchline" : 				{
					"destination" : [ "obj-20", 0 ],
					"source" : [ "obj-19", 0 ]
				}

			}
, 			{
				"patchline" : 				{
					"destination" : [ "obj-22", 0 ],
					"source" : [ "obj-19", 1 ]
				}

			}
, 			{
				"patchline" : 				{
					"destination" : [ "obj-16", 0 ],
					"source" : [ "obj-2", 0 ]
				}

			}
, 			{
				"patchline" : 				{
					"destination" : [ "obj-24", 0 ],
					"source" : [ "obj-20", 0 ]
				}

			}
, 			{
				"patchline" : 				{
					"destination" : [ "obj-16", 0 ],
					"source" : [ "obj-21", 0 ]
				}

			}
, 			{
				"patchline" : 				{
					"destination" : [ "obj-20", 0 ],
					"source" : [ "obj-22", 0 ]
				}

			}
, 			{
				"patchline" : 				{
					"destination" : [ "obj-3", 0 ],
					"source" : [ "obj-24", 0 ]
				}

			}
, 			{
				"patchline" : 				{
					"destination" : [ "obj-89", 0 ],
					"source" : [ "obj-25", 1 ]
				}

			}
, 			{
				"patchline" : 				{
					"destination" : [ "obj-9", 0 ],
					"source" : [ "obj-26", 0 ]
				}

			}
, 			{
				"patchline" : 				{
					"destination" : [ "obj-34", 0 ],
					"source" : [ "obj-27", 0 ]
				}

			}
, 			{
				"patchline" : 				{
					"destination" : [ "obj-16", 0 ],
					"source" : [ "obj-28", 0 ]
				}

			}
, 			{
				"patchline" : 				{
					"destination" : [ "obj-30", 0 ],
					"source" : [ "obj-29", 0 ]
				}

			}
, 			{
				"patchline" : 				{
					"destination" : [ "obj-25", 0 ],
					"source" : [ "obj-3", 1 ]
				}

			}
, 			{
				"patchline" : 				{
					"destination" : [ "obj-32", 1 ],
					"source" : [ "obj-30", 0 ]
				}

			}
, 			{
				"patchline" : 				{
					"destination" : [ "obj-29", 0 ],
					"order" : 1,
					"source" : [ "obj-31", 1 ]
				}

			}
, 			{
				"patchline" : 				{
					"destination" : [ "obj-32", 0 ],
					"source" : [ "obj-31", 0 ]
				}

			}
, 			{
				"patchline" : 				{
					"destination" : [ "obj-6", 0 ],
					"order" : 0,
					"source" : [ "obj-31", 1 ]
				}

			}
, 			{
				"patchline" : 				{
					"destination" : [ "obj-21", 0 ],
					"order" : 1,
					"source" : [ "obj-32", 0 ]
				}

			}
, 			{
				"patchline" : 				{
					"destination" : [ "obj-46", 0 ],
					"order" : 0,
					"source" : [ "obj-32", 0 ]
				}

			}
, 			{
				"patchline" : 				{
					"destination" : [ "obj-58", 0 ],
					"source" : [ "obj-33", 0 ]
				}

			}
, 			{
				"patchline" : 				{
					"destination" : [ "obj-21", 0 ],
					"order" : 0,
					"source" : [ "obj-34", 2 ]
				}

			}
, 			{
				"patchline" : 				{
					"destination" : [ "obj-35", 0 ],
					"source" : [ "obj-34", 0 ]
				}

			}
, 			{
				"patchline" : 				{
					"destination" : [ "obj-36", 0 ],
					"source" : [ "obj-34", 1 ]
				}

			}
, 			{
				"patchline" : 				{
					"destination" : [ "obj-51", 0 ],
					"order" : 1,
					"source" : [ "obj-34", 2 ]
				}

			}
, 			{
				"patchline" : 				{
					"destination" : [ "obj-16", 0 ],
					"source" : [ "obj-35", 0 ]
				}

			}
, 			{
				"patchline" : 				{
					"destination" : [ "obj-39", 0 ],
					"source" : [ "obj-36", 0 ]
				}

			}
, 			{
				"patchline" : 				{
					"destination" : [ "obj-35", 0 ],
					"source" : [ "obj-39", 0 ]
				}

			}
, 			{
				"patchline" : 				{
					"destination" : [ "obj-18", 0 ],
					"source" : [ "obj-41", 0 ]
				}

			}
, 			{
				"patchline" : 				{
					"destination" : [ "obj-42", 0 ],
					"source" : [ "obj-41", 1 ]
				}

			}
, 			{
				"patchline" : 				{
					"destination" : [ "obj-44", 0 ],
					"source" : [ "obj-42", 0 ]
				}

			}
, 			{
				"patchline" : 				{
					"destination" : [ "obj-10", 0 ],
					"order" : 1,
					"source" : [ "obj-44", 0 ]
				}

			}
, 			{
				"patchline" : 				{
					"destination" : [ "obj-48", 1 ],
					"order" : 0,
					"source" : [ "obj-44", 0 ]
				}

			}
, 			{
				"patchline" : 				{
					"destination" : [ "obj-93", 3 ],
					"source" : [ "obj-45", 0 ]
				}

			}
, 			{
				"patchline" : 				{
					"destination" : [ "obj-48", 0 ],
					"source" : [ "obj-46", 0 ]
				}

			}
, 			{
				"patchline" : 				{
					"destination" : [ "obj-21", 0 ],
					"order" : 1,
					"source" : [ "obj-47", 0 ]
				}

			}
, 			{
				"patchline" : 				{
					"destination" : [ "obj-48", 0 ],
					"order" : 0,
					"source" : [ "obj-47", 0 ]
				}

			}
, 			{
				"patchline" : 				{
					"destination" : [ "obj-47", 0 ],
					"source" : [ "obj-48", 0 ]
				}

			}
, 			{
				"patchline" : 				{
					"destination" : [ "obj-13", 0 ],
					"source" : [ "obj-49", 1 ]
				}

			}
, 			{
				"patchline" : 				{
					"destination" : [ "obj-16", 1 ],
					"source" : [ "obj-5", 0 ]
				}

			}
, 			{
				"patchline" : 				{
					"destination" : [ "obj-16", 0 ],
					"source" : [ "obj-51", 0 ]
				}

			}
, 			{
				"patchline" : 				{
					"destination" : [ "obj-53", 0 ],
					"source" : [ "obj-52", 0 ]
				}

			}
, 			{
				"patchline" : 				{
					"destination" : [ "obj-51", 0 ],
					"source" : [ "obj-53", 0 ]
				}

			}
, 			{
				"patchline" : 				{
					"destination" : [ "obj-20", 1 ],
					"source" : [ "obj-54", 1 ]
				}

			}
, 			{
				"patchline" : 				{
					"destination" : [ "obj-22", 0 ],
					"order" : 0,
					"source" : [ "obj-54", 0 ]
				}

			}
, 			{
				"patchline" : 				{
					"destination" : [ "obj-41", 0 ],
					"source" : [ "obj-54", 2 ]
				}

			}
, 			{
				"patchline" : 				{
					"destination" : [ "obj-6", 0 ],
					"order" : 1,
					"source" : [ "obj-54", 0 ]
				}

			}
, 			{
				"patchline" : 				{
					"destination" : [ "obj-60", 0 ],
					"source" : [ "obj-58", 0 ]
				}

			}
, 			{
				"patchline" : 				{
					"destination" : [ "obj-3", 0 ],
					"source" : [ "obj-6", 0 ]
				}

			}
, 			{
				"patchline" : 				{
					"destination" : [ "obj-132", 0 ],
					"source" : [ "obj-60", 0 ]
				}

			}
, 			{
				"patchline" : 				{
					"destination" : [ "obj-11", 0 ],
					"source" : [ "obj-61", 0 ]
				}

			}
, 			{
				"patchline" : 				{
					"destination" : [ "obj-12", 0 ],
					"source" : [ "obj-62", 0 ]
				}

			}
, 			{
				"patchline" : 				{
					"destination" : [ "obj-61", 0 ],
					"order" : 1,
					"source" : [ "obj-63", 0 ]
				}

			}
, 			{
				"patchline" : 				{
					"destination" : [ "obj-62", 0 ],
					"order" : 0,
					"source" : [ "obj-63", 0 ]
				}

			}
, 			{
				"patchline" : 				{
					"destination" : [ "obj-52", 0 ],
					"order" : 0,
					"source" : [ "obj-89", 0 ]
				}

			}
, 			{
				"patchline" : 				{
					"destination" : [ "obj-90", 0 ],
					"order" : 1,
					"source" : [ "obj-89", 0 ]
				}

			}
, 			{
				"patchline" : 				{
					"destination" : [ "obj-132", 2 ],
					"source" : [ "obj-93", 7 ]
				}

			}
, 			{
				"patchline" : 				{
					"destination" : [ "obj-132", 1 ],
					"source" : [ "obj-93", 6 ]
				}

			}
, 			{
				"patchline" : 				{
					"destination" : [ "obj-16", 0 ],
					"order" : 1,
					"source" : [ "obj-93", 5 ]
				}

			}
, 			{
				"patchline" : 				{
					"destination" : [ "obj-26", 0 ],
					"order" : 0,
					"source" : [ "obj-93", 2 ]
				}

			}
, 			{
				"patchline" : 				{
					"destination" : [ "obj-3", 0 ],
					"source" : [ "obj-93", 1 ]
				}

			}
, 			{
				"patchline" : 				{
					"destination" : [ "obj-49", 0 ],
					"order" : 1,
					"source" : [ "obj-93", 2 ]
				}

			}
, 			{
				"patchline" : 				{
					"destination" : [ "obj-54", 0 ],
					"order" : 0,
					"source" : [ "obj-93", 5 ]
				}

			}
, 			{
				"patchline" : 				{
					"destination" : [ "obj-9", 0 ],
					"source" : [ "obj-93", 0 ]
				}

			}
 ]
	}

}
