{
	"patcher" : 	{
		"fileversion" : 1,
		"appversion" : 		{
			"major" : 8,
			"minor" : 6,
			"revision" : 2,
			"architecture" : "x64",
			"modernui" : 1
		}
,
		"classnamespace" : "dsp.gen",
		"rect" : [ 59.0, 107.0, 600.0, 450.0 ],
		"bglocked" : 0,
		"openinpresentation" : 0,
		"default_fontsize" : 12.0,
		"default_fontface" : 0,
		"default_fontname" : "Arial",
		"gridonopen" : 1,
		"gridsize" : [ 15.0, 15.0 ],
		"gridsnaponopen" : 1,
		"objectsnaponopen" : 1,
		"statusbarvisible" : 2,
		"toolbarvisible" : 1,
		"lefttoolbarpinned" : 0,
		"toptoolbarpinned" : 0,
		"righttoolbarpinned" : 0,
		"bottomtoolbarpinned" : 0,
		"toolbars_unpinned_last_save" : 0,
		"tallnewobj" : 0,
		"boxanimatetime" : 200,
		"enablehscroll" : 1,
		"enablevscroll" : 1,
		"devicewidth" : 0.0,
		"description" : "",
		"digest" : "",
		"tags" : "",
		"style" : "",
		"subpatcher_template" : "",
		"assistshowspatchername" : 0,
		"boxes" : [ 			{
				"box" : 				{
					"id" : "obj-5",
					"maxclass" : "newobj",
					"numinlets" : 1,
					"numoutlets" : 0,
					"patching_rect" : [ 405.0, 417.0, 35.0, 22.0 ],
					"text" : "out 2"
				}

			}
, 			{
				"box" : 				{
					"id" : "obj-1",
					"maxclass" : "newobj",
					"numinlets" : 0,
					"numoutlets" : 1,
					"outlettype" : [ "" ],
					"patching_rect" : [ 29.0, 6.0, 28.0, 22.0 ],
					"text" : "in 1"
				}

			}
, 			{
				"box" : 				{
					"id" : "obj-2",
					"maxclass" : "newobj",
					"numinlets" : 0,
					"numoutlets" : 1,
					"outlettype" : [ "" ],
					"patching_rect" : [ 357.0, 6.0, 28.0, 22.0 ],
					"text" : "in 2"
				}

			}
, 			{
				"box" : 				{
					"code" : "Data gai(1024);\r\n\r\nParam mode(0); //0=stereo 1=modulation\r\nParam transition(1);\r\nParam midgain(0); //0=0.5+0.5, 1=1+1\r\nParam voicecount(1);\r\nParam voicenum(0);\r\nParam fade(0);\r\n\r\nHistory otm(-1),offset(0.25);\r\n\r\ntm=transition*voicecount+midgain;\r\nif(otm!=tm){\r\n\totm=tm;\r\n\t//fill a lookup table\r\n\toffset = 1 + ((0.25-voicenum)/voicecount);\r\n\tmg=midgain;//0.5+0.5*midgain;\r\n\tp=floor(255.99*transition);\r\n\tp2=256-p;\r\n\tfor(i=0;i<p2;i+=1) poke(gai,i,0);\r\n\tr = mg/p;\r\n\tv=0;\r\n\tfor(i=p2;i<256;i+=1){\r\n\t\tv+=r;\r\n\t\tpoke(gai,v,i);\r\n\t}\r\n\tr2 = (1-mg)/p;\r\n\tfor(i=256;i<256+p;i+=1){\r\n\t\tv+=r2;\r\n\t\tpoke(gai,v,i);\r\n\t}\r\n\tfor(i=256+p;i<768-p;i+=1){\r\n\t\tpoke(gai,1,i);\r\n\t}\r\n\tfor(i=768-p;i<768;i+=1){\r\n\t\tv-=r2;\r\n\t\tpoke(gai,v,i);\r\n\t}\r\n\tfor(i=768;i<768+p;i+=1){\r\n\t\tv-=r;\r\n\t\tpoke(gai,v,i);\r\n\t}\r\n\tfor(i=768+p;i<1024;i+=1){\r\n\t\tpoke(gai,0,i);\r\n\t}\r\n}\r\nf = fade;\r\nif(mode!=0) f+=in2;\r\nf1 = (f+offset)%1;\r\nf = clip((f1*voicecount)*0.5,0,1);\r\ng = peek(gai,f*1024);\r\no2 = (mode==0)?in2:in1;\r\no2 *= g;\r\nout1 = in1*g;\r\nout2 = o2;",
					"fontface" : 0,
					"fontname" : "<Monospaced>",
					"fontsize" : 12.0,
					"id" : "obj-3",
					"maxclass" : "codebox",
					"numinlets" : 2,
					"numoutlets" : 2,
					"outlettype" : [ "", "" ],
					"patching_rect" : [ 29.0, 38.0, 347.0, 388.0 ]
				}

			}
, 			{
				"box" : 				{
					"id" : "obj-4",
					"maxclass" : "newobj",
					"numinlets" : 1,
					"numoutlets" : 0,
					"patching_rect" : [ 29.0, 421.0, 35.0, 22.0 ],
					"text" : "out 1"
				}

			}
 ],
		"lines" : [ 			{
				"patchline" : 				{
					"destination" : [ "obj-3", 0 ],
					"source" : [ "obj-1", 0 ]
				}

			}
, 			{
				"patchline" : 				{
					"destination" : [ "obj-3", 1 ],
					"source" : [ "obj-2", 0 ]
				}

			}
, 			{
				"patchline" : 				{
					"destination" : [ "obj-4", 0 ],
					"source" : [ "obj-3", 0 ]
				}

			}
, 			{
				"patchline" : 				{
					"destination" : [ "obj-5", 0 ],
					"source" : [ "obj-3", 1 ]
				}

			}
 ],
		"autosave" : 0
	}

}
