{
	"patcher" : 	{
		"fileversion" : 1,
		"appversion" : 		{
			"major" : 9,
			"minor" : 0,
			"revision" : 9,
			"architecture" : "x64",
			"modernui" : 1
		}
,
		"classnamespace" : "dsp.gen",
		"rect" : [ 34.0, 76.0, 1221.0, 701.0 ],
		"gridsize" : [ 15.0, 15.0 ],
		"boxes" : [ 			{
				"box" : 				{
					"id" : "obj-7",
					"maxclass" : "newobj",
					"numinlets" : 1,
					"numoutlets" : 0,
					"patching_rect" : [ 1077.0, 651.0, 35.0, 22.0 ],
					"text" : "out 2"
				}

			}
, 			{
				"box" : 				{
					"id" : "obj-1",
					"maxclass" : "newobj",
					"numinlets" : 0,
					"numoutlets" : 1,
					"outlettype" : [ "" ],
					"patching_rect" : [ 50.0, 14.0, 28.0, 22.0 ],
					"text" : "in 1"
				}

			}
, 			{
				"box" : 				{
					"id" : "obj-2",
					"maxclass" : "newobj",
					"numinlets" : 0,
					"numoutlets" : 1,
					"outlettype" : [ "" ],
					"patching_rect" : [ 1077.0, 5.0, 28.0, 22.0 ],
					"text" : "in 2"
				}

			}
, 			{
				"box" : 				{
					"code" : "require \"sm_sallenkey_functions\";\r\nrequire \"osc_functions\";\r\n//require \"filter_functions\";\r\nBuffer shape(\"osc_shape_lookup\");\r\nBuffer mtof_lookup(\"mtof_lookup\");\r\nBuffer prm(\"voice_parameter_buffer\");\r\nBuffer detuning(\"detuning\");\r\nBuffer changed_flags(\"changed_flags\");\r\n\r\nHistory cursor_s(0);\r\nHistory cursor_p(0);\r\nHistory ws,range,p_unstab,s_unstab,detune,fmmode,ou2,cr,sr,porta,sha,expfm,sha_off(0),mgain;\r\nHistory at,su,de,cu,lo,ve,ac,cu_t(0),cu_f(0),cu_ta(0);\r\nHistory ov(0);  //last non-zero velocity\r\nHistory oov(0); //just for detect change\r\nHistory otrig(0); //likewise\r\nHistory op(0); //old pitch\r\nHistory env(0);\r\nHistory attdone(1); \r\nHistory decdone(1); \r\nHistory target(0);\r\nHistory attrate(0.00001),attrate2(0.00002); \r\nHistory decrate(0.00001);\r\n\r\nHistory p_at,p_su,p_de,p_cu,p_lo,p_ve,p_ac,p_cu_t(0),p_cu_f(0),p_cu_ta(0);\r\nHistory p_ov(0);  //last non-zero velocity\r\nHistory p_oov(0); //just for detect change\r\nHistory p_otrig(0); //likewise\r\nHistory p_op(0); //old pitch\r\nHistory p_env(0);\r\nHistory p_attdone(1); \r\nHistory p_decdone(1); \r\nHistory p_target(0);\r\nHistory p_attrate(0.00001);\r\nHistory p_decrate(0.00001);\r\nHistory p_amt(1);\r\nHistory upda(0);\r\n\r\nHistory c,res,cmod,fmixl,fmixh,fmixb,kf,modtarget,ffb, ffb_b,ffb_l,topo;\r\n\r\nParam voice_offset(0);\r\nParam voice_is(0, min=0,default=0,max=4096);\r\nParam p(0,min=0,default=64,max=128);\r\nParam v(0);\r\nParam panic(0);\r\nParam latch(0);\r\nParam cont(1);\r\n\r\n\r\nif(upda<=0){\r\n\tupda = vectorsize;\r\n\tif(peek(changed_flags,voice_is,0)>0){\r\n\t\tchanged_flags.poke(0,voice_is);\r\n\t\tws = peek(prm,0+voice_offset, 0, channels=1);\r\n\t\trange = 12 * floor((peek(prm,1+voice_offset, 0, channels=1)*18 - 16));\r\n\t\tp_unstab = peek(prm,2+voice_offset, 0);\r\n\t\tp_unstab *= p_unstab*p_unstab*20;\r\n\t\tcr = p_unstab/(voice_is*5180+1000);\r\n\t\ts_unstab = peek(prm,3+voice_offset, 0);\r\n\t\ts_unstab *= s_unstab;\r\n\t\tsr = s_unstab/(voice_is*3260+4200);\r\n\t\tdetune = 48 * (peek(prm,4+voice_offset, 0)-0.5);\r\n\t\tfmmode = peek(prm,5+voice_offset, 0);\r\n\t\tat = peek(prm, 6+voice_offset, 0, channels=1);\r\n\t\tat = (pow(1000,clip(at,0,1))-1+0.0000000001)*60.06006006006006006006006006006;\r\n\t\tsu = peek(prm, 7+voice_offset, 0, channels=1);\r\n\t\tde = peek(prm, 8+voice_offset, 0, channels=1);\r\n\t\tde = (pow(1000,clip(de,0,1))-1+0.0000000001)*60.06006006006006006006006006006;\r\n\t\tcu = peek(prm, 9+voice_offset, 0, channels=1);\r\n\t\tlo = peek(prm, 10+voice_offset, 0, channels=1);\r\n\t\tve = peek(prm, 11+voice_offset, 0, channels=1)*2 - 1;\r\n\t\tac = peek(prm, 12+voice_offset, 0, channels=1)*2 - 1;\t\r\n\t\tporta = 100*peek(prm,13+voice_offset,0, channels=1);\r\n\t\tp_at = peek(prm, 14+voice_offset, 0, channels=1);\r\n\t\tp_at = (pow(1000,clip(p_at,0,1))-1+0.0000000001)*60.06006006006006006006006006006;\r\n\t\tp_su = peek(prm, 15+voice_offset, 0, channels=1);\r\n\t\tp_de = peek(prm, 16+voice_offset, 0, channels=1);\r\n\t\tp_de = (pow(1000,clip(p_de,0,1))-1+0.0000000001)*60.06006006006006006006006006006;\r\n\t\tp_cu = peek(prm, 17+voice_offset, 0, channels=1);\r\n\t\tp_lo = peek(prm, 18+voice_offset, 0, channels=1);\r\n\t\tp_ve = peek(prm, 19+voice_offset, 0, channels=1)*2 - 1;\r\n\t\tp_ac = peek(prm, 20+voice_offset, 0, channels=1)*2 - 1;\t\r\n\t\tp_amt = 4*peek(prm,21+voice_offset,0, channels=1)-2;\r\n\t\tmgain = 4*peek(prm,22+voice_offset,0, channels=1)-2;\r\n\t\tsame1 = peek(prm,23+voice_offset,0, channels=1)>0.5;\r\n\t\tsame2 = peek(prm,24+voice_offset,0, channels=1)>0.5;\r\n\t\tmodtarget = peek(prm,25+voice_offset,0, channels=1)*3;\r\n\t\tc = peek(prm,26+voice_offset,0, channels=1);\r\n\t\tres = clip(peek(prm,27+voice_offset,0, channels=1),0,0.99);\r\n\t\tfmix = peek(prm,28+voice_offset,0, channels=1)*3;\r\n\t\tkf = peek(prm,29+voice_offset,0, channels=1)*2 - 1;\r\n\t\tffb = peek(prm,30+voice_offset,0, channels=1)*2 - 1;\r\n\t\ttopo = peek(prm,31+voice_offset,0, channels=1)>=0.5;\r\n\t\tffb_b = (ffb<0) ? -ffb : 0;\r\n\t\tffb_l = (ffb>0) ? ffb : 0;\r\n\t\tkf/=64;\r\n\t\tif(fmix<1){\r\n\t\t\tfmixh = fmix;\r\n\t\t\tfmixl = 1 - fmix;\r\n\t\t\tfmixb = 0;\r\n\t\t}else if(fmix<2){\r\n\t\t\tfmixl = 0;\r\n\t\t\tfmixh = 2 - fmix;\r\n\t\t\tfmixb = fmix - 1;\r\n\t\t}else{\r\n\t\t\tfmixh = 0;\r\n\t\t\tfmixb = 3-fmix;\r\n\t\t\tfmixl = fmix - 2;\r\n\t\t}\r\n\t\texpfm = ((fmmode>=0.25)&&(fmmode<0.5)) * 128;\t\r\n\t\tcu_f=cu*4;\t\r\n\t\tcu_t=floor(cu_f);\r\n\t\tcu_f-=cu_t;\r\n\t\tcu_t+=1;\r\n\t\tcu_ta = same1 ? cu_t : (5-cu_t);\r\n\t\tt=1+abs(cu-0.45)*23;\r\n\t\tattrate=t/mstosamps(at);\r\n\t\tdecrate=-t/mstosamps(de);\t\r\n\t\tp_cu_f=p_cu*4;\t\r\n\t\tp_cu_t=floor(p_cu_f);\r\n\t\tp_cu_f-=p_cu_t;\r\n\t\tp_cu_t+=1;\r\n\t\tp_cu_ta = same2 ? p_cu_t : (5-p_cu_t);\r\n\t\tt=1+abs(p_cu-0.45)*23;\r\n\t\tp_attrate=t/mstosamps(p_at);\r\n\t\tp_decrate=-t/mstosamps(p_de);\t\r\n\t\tporta = porta*porta;\r\n\t\tporta = mstosamps(porta);\t\r\n\t}\r\n}\r\n\r\nupda -= cont;\r\n\r\n\r\nvi=0;\r\np_vi=0;\r\np_trig=0;\r\ntrig=0;\r\nif((delta(lo>0)>0)&&(env==0)){\r\n\ttrig=1;\r\n\tupda = 0;\r\n}\r\nif((delta(p_lo>0)>0)&&(p_env==0)){\r\n\tp_trig=1;\r\n\tupda=0;\r\n}\r\np_levscale = 0;\r\nlevscale = 0;\r\n\r\nif(v>0){\r\n\tlevscale = v * ve + (1-clip(ve,0,2));\r\n\tattrate2 = attrate * (1 + v*ve*0.5);\r\n\tp_levscale = v * p_ve + (1-clip(p_ve,0,2));\r\n}else if(v<0){\r\n\tlevscale = -v * ve + (1-clip(ve,0,2));\r\n\tattrate2 = attrate * (1 - v*ve*0.5);\r\n\tp_levscale = -v * p_ve + (1-clip(p_ve,0,2));\r\n\tsu = 0; p_su=0;\r\n}\t\r\nnewnote = 0;\r\nif(su>0){\r\n\tvi += levscale; \r\n\tif(vi!=oov){ //follow behaviour\r\n\t\toov=vi;\r\n\t\tov=vi;\r\n\t\ttarget=vi;\r\n\t\tif(target<=env){\r\n\t\t\tattdone=1;\r\n\t\t\tdecdone=0;\r\n\t\t\tif((target == 0)&&(latch>2)) upda = 0;\r\n\t\t}else{\r\n\t\t\tdecdone=1;\r\n\t\t\tattdone=0;\r\n\t\t\tif(attdone && (at<10)) newnote = (target*0.35)>(env); //if the jump is bigger up than the current env then a phase reset is a smaller click than not (is my theory)\r\n\t\t\tif((latch+(env==0))>1) upda = 0;\r\n\t\t}\r\n\t}\r\n}else{\r\n\ttrig += levscale;\r\n\tif((v!=oov)||(p!=op)){//(delta(trig>0)==1)){//trigger behaviour\r\n\t\tif(trig>0){\r\n\t\t\top=p;\r\n\t\t\tif(latch != 0) upda = 0;\r\n\t\t\toov=v;\r\n\t\t\tov = levscale+ac*env;\r\n\t\t\tov = clip(ov,-4,4);\r\n\t\t\tov = ov - (ov*ov*ov*0.04166666);\r\n\t\t\ttarget=ov;\t\r\n\t\t\tif(attdone && (at<20)) newnote = (target*0.35)>(env); //if the jump is bigger up than the current env then a phase reset is a smaller click than not (is my theory)\r\n\t\t\tattdone = 0;\r\n\t\t\tdecdone = 1;\r\n\t\t}\r\n\t}\r\n}\r\n\r\nif(p_su>0){\r\n\tp_vi += p_levscale; \r\n\tif(p_vi!= p_oov){ //follow behaviour\r\n\t\tp_oov=p_vi;\r\n\t\tp_ov=p_vi;\r\n\t\tp_target=p_vi;\r\n\t\tif(p_target <= p_env){\r\n\t\t\tp_attdone=1;\r\n\t\t\tp_decdone=0;\r\n\t\t}else{\r\n\t\t\tp_decdone=1;\r\n\t\t\tp_attdone=0;\r\n\t\t}\r\n\t}\r\n}else{\r\n\tp_trig += p_levscale;\r\n\tif((v!= p_oov)||(p!= p_op)){//(delta(trig>0)==1)){//trigger behaviour\r\n\t\tif(p_trig!=0){\r\n\t\t\tp_op=p;\r\n\t\t\tp_attdone=0;\r\n\t\t\tp_decdone=1;\r\n\t\t\tp_oov=v;\r\n\t\t\tp_ov = p_levscale+clip(p_ac*p_env,-1,1);\r\n\t\t\t//p_ov = clip(p_ov,-4,4);\r\n\t\t\tp_ov = p_ov - (p_ov*p_ov*p_ov*0.125);//04166666);\r\n\t\t\tp_target=p_ov;\r\n\t\t}\r\n\t}\r\n}\r\n\r\nif(panic) {\r\n\ttarget=0;\r\n\tdecdone=0;\r\n\tdecrate=-0.001;\r\n\tenv*=0.999;\r\n\tp_target=0;\r\n\tp_decdone=0;\r\n\tp_decrate=-0.001;\r\n\tp_env*=0.999;\r\n}\r\n\r\ntto=0;\r\n\r\nif(!attdone){\r\n\tt=clip(target-env,0,0.9999);\r\n\ttto=t;\r\n\tif(t>0.0001){\r\n\t\tdx = selector(cu_ta,(1-t)*(1-t*cu_f),1+t*(cu_f-1),1+cu_f*(t-1),(t+0.01)*(1+cu_f*(t-0.99)));//,(t+0.1)*(t+0.01));\r\n\t\tdx*=attrate;\r\n\t\tdx=clip(dx,0.0000001,t);\r\n\t\tenv+=dx;\r\n\t}else{\r\n\t\tenv=target;\r\n\t\tattdone=1;\r\n\t\tdecdone=0;\r\n\t\ttarget = su* v;\r\n\t}\r\n}\r\nif(!decdone){\r\n\tt=clip(target-env,-0.999,0.9999);\r\n\tif(t<-0.001){\r\n\t\tdx = selector(cu_t,((t+1)*(t+1)-1)*(1-cu_f)+cu_f*t,t-cu_f*(t+1),-1-cu_f*t,-1-t*(1+cu_f+cu_f*t));\r\n\t\tdx*= -decrate;\r\n\t\tdx=clip(dx,t,-0.0000001);\r\n\t\tenv+=dx;\r\n\t}else{\r\n\t\tenv=target;\r\n\t\tif(target==0){\r\n\t\t\tdecdone=1;\r\n\t\t\tif(lo){\r\n\t\t\t\tov = ov*lo;\r\n\t\t\t\tif(ov>0.001){\r\n\t\t\t\t\tattdone=0;\r\n\t\t\t\t\ttarget=ov*lo;\r\n\t\t\t\t}\r\n\t\t\t}\r\n\t\t}else{\r\n\t\t\tdecdone=0.5;\r\n\t\t}\r\n\t}\r\n}\r\n\r\n\r\nif(!p_attdone){\r\n\tt=clip(p_target-p_env,-0.9999,0.9999);\r\n\tif(t>0.0001){\r\n\t\tdx = selector(p_cu_ta,(1-t)*(1-t*p_cu_f),1+t*(p_cu_f-1),1+p_cu_f*(t-1),(t+0.01)*(1+p_cu_f*(t-0.99)));//,(t+0.1)*(t+0.01));\r\n\t\tdx*=p_attrate;\r\n\t\tdx=clip(dx,0.0000001,t);\r\n\t\tp_env+=dx;\r\n\t}else{\r\n\t\tp_env=p_target;\r\n\t\tp_attdone=1;\r\n\t\tp_decdone=0;\r\n\t\tp_target = (p_su)* v;\r\n\t}\r\n}\r\nif(!p_decdone){\r\n\tt=clip(p_target-p_env,-0.9993,0.9999); //i think this is fine tuned so it slightly latches just once in a while\r\n\tdebug = t*1000;\r\n\tif(t<-0.001){\r\n\t\tdx = selector(p_cu_t,((t+1)*(t+1)-1)*(1-p_cu_f)+p_cu_f*t,t-p_cu_f*(t+1),-1-p_cu_f*t,-1-t*(1+p_cu_f+p_cu_f*t));\r\n\t\tdx*= -p_decrate;\r\n\t\tdx=clip(dx,t,-0.0000000001);\r\n\t\tp_env+=dx;\r\n\t}else{\r\n\t\tp_env=p_target;\r\n\t\tp_decdone=1;\r\n\t\tif(p_lo){\r\n\t\t\tp_ov = p_ov*p_lo;\r\n\t\t\tif(p_ov>0.001){\r\n\t\t\t\tp_attdone=0;\r\n\t\t\t\tp_target=p_ov*p_lo;\r\n\t\t\t}\r\n\t\t}\r\n\t}\r\n}\r\n\r\ncursor_p += 0.000001*cr;\r\ncursor_s += sr;\r\ncursor_p=wrap(cursor_p);\r\ncursor_s=wrap(cursor_s);\r\n\r\npink_s = sample(detuning,cursor_s,0);\r\npink_p = sample(detuning,cursor_p,0);\r\n\r\nsh = ws + s_unstab*pink_s;\r\n\r\nffm = 1 + ffb;\r\n\r\nif(modtarget<1){\r\n\tsh += in2;\r\n}else if(modtarget<2){\r\n\tffm += in2;\r\n}\r\n\r\n\r\nsdif = sh+sha_off - sha;\r\nif(sdif>0.5) sha_off-=1;\r\nif(sdif<-0.5) sha_off+=1;\r\nsha = slide(sh + sha_off,100,100);\r\nsin_l, tri_l, rec_l, pw = sample(shape, wrap(sh) , 0, channels=4);\r\n\r\n\r\npitch = slide(p,porta,porta) + (slide(p_unstab,100,100)*pink_p)+range+(slide(detune,100,100)) + expfm * in1;\r\n//pitch = slide(p,porta,porta) + 12 * (p_env*p_amt + expfm*in1 +  (slide(p_unstab,100,100)*pink_p/2)+(slide(detune,100,100)*4)+range);\r\ntra=1;\r\nif(pitch<0){\r\n\ttra = floor(-pitch/12)+1;\r\n\tpitch += 12*tra;\r\n\ttra = pow(2, -tra);\r\n}else{\r\n\tif(pitch>128) pitch=128;\r\n}\r\n//pit = tra*peek(mtof_lookup,pitch, (voice_is % 8), channels=1, interp = \"linear\");\r\n//pit = tra * peek(mtof_lookup,pitch, (voice_is % 8), channels=1, interp = \"cubic\");\r\npit = tra*peek(mtof_lookup,pitch, (voice_is % 8), channels=1, interp = \"linear\");\r\n\r\nrec=0; sinph=0; saw=0;\r\ndelt = (attdone||newnote) && (decdone == 1);\r\nif(fmmode<0.2){\r\n\trec =  eptr_rect2(pit,in1,pw, delt);\r\n\tsinph = phasor(pit*(1+in1),delt);\r\n\tsaw =  integrator_saw(rec, pit*(1+in1), pw, delt);\r\n}else if(fmmode<0.4){\r\n\trec =  eptr_rect2(pit,0,pw, delt);\r\n\tsinph = phasor(pit,delt);\r\n\tsaw =  integrator_saw(rec, pit, pw, delt);\r\n}else if(fmmode<0.6){\r\n\trec =  eptr_rect(pit,0,pw, sync=1);\r\n\tdelt = delt || delta(in1!=0)>0;\r\n\tsinph = phasor(pit,delt);\r\n\tsaw =  integrator_saw(rec, pit*(1+in1), pw, delt);\r\n}else if(fmmode<0.8){ \r\n\trec =  eptr_rect(pit,in1,pw, sync=2);\r\n\tdelt = delt || delta(in1!=0)>0;\r\n\tsinph = phasor(pit*(1+in1),delt);\r\n\tsaw =  integrator_saw(rec, pit*(1+in1), pw, delt);\r\n}else{\r\n\tffm += in1;\r\n\trec =  eptr_rect2(pit,0,pw, delt);\r\n\tsinph = phasor(pit,delt);\r\n\tsaw =  integrator_saw(rec, pit, pw, delt);\r\n}\r\nosc =  sin_l * cycle(sinph+0.75,index = \"phase\");\r\nosc += tri_l * saw + rec_l * rec;\r\nosc *= slide(mgain,1000,1000);\r\n\r\nif(topo) osc *= env;\r\nif(modtarget>=2) osc += in2;\r\n\r\ncut = clip(55*pow(2,ffm*(slide(c,1000,1000)+p_amt*p_env+kf*(pitch-64))*16-8), 1, 20000);\r\n\r\nflp,fbp,fhp = skfTanNltoCoefMulti(osc,cut,slide(res,1000,1000),1);\r\nffb = flp*slide(ffb_l,1000,1000) + fbp*slide(ffb_b,1000,1000);\r\n\r\nfilts = slide(fmixl,1000,1000)*flp + slide(fmixb,1000,1000)*fbp + slide(fmixh,1000,1000)*fhp;\r\nif(!topo) filts *= env;\r\nout1 = filts;\r\nout2 = p_env+env;\r\n",
					"fontface" : 0,
					"fontname" : "<Monospaced>",
					"fontsize" : 12.0,
					"id" : "obj-3",
					"maxclass" : "codebox",
					"numinlets" : 2,
					"numoutlets" : 2,
					"outlettype" : [ "", "" ],
					"patching_rect" : [ 50.0, 41.0, 1046.0, 597.0 ]
				}

			}
, 			{
				"box" : 				{
					"id" : "obj-4",
					"maxclass" : "newobj",
					"numinlets" : 1,
					"numoutlets" : 0,
					"patching_rect" : [ 50.0, 646.0, 35.0, 22.0 ],
					"text" : "out 1"
				}

			}
 ],
		"lines" : [ 			{
				"patchline" : 				{
					"destination" : [ "obj-3", 0 ],
					"source" : [ "obj-1", 0 ]
				}

			}
, 			{
				"patchline" : 				{
					"destination" : [ "obj-3", 1 ],
					"source" : [ "obj-2", 0 ]
				}

			}
, 			{
				"patchline" : 				{
					"destination" : [ "obj-4", 0 ],
					"source" : [ "obj-3", 0 ]
				}

			}
, 			{
				"patchline" : 				{
					"destination" : [ "obj-7", 0 ],
					"source" : [ "obj-3", 1 ]
				}

			}
 ],
		"autosave" : 0
	}

}
