{
	"patcher" : 	{
		"fileversion" : 1,
		"appversion" : 		{
			"major" : 8,
			"minor" : 6,
			"revision" : 1,
			"architecture" : "x64",
			"modernui" : 1
		}
,
		"classnamespace" : "dsp.gen",
		"rect" : [ 34.0, 76.0, 1061.0, 595.0 ],
		"bglocked" : 0,
		"openinpresentation" : 0,
		"default_fontsize" : 12.0,
		"default_fontface" : 0,
		"default_fontname" : "Arial",
		"gridonopen" : 1,
		"gridsize" : [ 15.0, 15.0 ],
		"gridsnaponopen" : 1,
		"objectsnaponopen" : 1,
		"statusbarvisible" : 2,
		"toolbarvisible" : 1,
		"lefttoolbarpinned" : 0,
		"toptoolbarpinned" : 0,
		"righttoolbarpinned" : 0,
		"bottomtoolbarpinned" : 0,
		"toolbars_unpinned_last_save" : 0,
		"tallnewobj" : 0,
		"boxanimatetime" : 200,
		"enablehscroll" : 1,
		"enablevscroll" : 1,
		"devicewidth" : 0.0,
		"description" : "",
		"digest" : "",
		"tags" : "",
		"style" : "",
		"subpatcher_template" : "",
		"assistshowspatchername" : 0,
		"boxes" : [ 			{
				"box" : 				{
					"id" : "obj-3",
					"maxclass" : "newobj",
					"numinlets" : 1,
					"numoutlets" : 0,
					"patching_rect" : [ 614.0, 573.0, 35.0, 22.0 ],
					"text" : "out 2"
				}

			}
, 			{
				"box" : 				{
					"code" : "require \"filter_functions\";\r\nBuffer prm(\"voice_parameter_buffer\");\r\n\r\nHistory mult,asym,harm,modt,upda(0);\r\n\r\nParam param0(0, min=0, default=0, max=128); //divide or freq\r\nParam param1(0, min=0, default=64, max=128); //mode\r\nParam param2(0, min=0, default=96, max=128); //filter mix\r\n\r\nParam voice_offset(0);\r\nx=0;\r\nif(upda<=0){\r\n\tupda = vectorsize+3;\r\n\tmult = peek(prm,0+voice_offset, 0, channels=1);\r\n\tasym = peek(prm,1+voice_offset, 0, channels=1);\r\n\tharm = peek(prm,2+voice_offset, 0, channels=1);\r\n\tmodt = peek(prm,4+voice_offset, 0, channels=1);\r\n}\r\nupda-=1;\r\n\r\nif(modt<0.33){\r\n\tx = fold_multistage(in1, slide(mult*4, 1000, 1000)+in2+1, slide(asym,1000,1000), slide(harm*2,1000,1000)+0.8);\r\n}else if(modt<0.67){\r\n\tx = fold_multistage(in1, slide(mult*4, 1000, 1000)+1, slide(asym,1000,1000)+in2, slide(harm*2,1000,1000)+0.8);\t\r\n}else{\r\n\tx = fold_multistage(in1, slide(mult*4, 1000, 1000)+1, slide(asym,1000,1000), slide(harm*2,1000,1000)+0.8+in2);\t\r\n}\r\nout1 = x;\r\nout2 = 0;\r\n",
					"fontface" : 0,
					"fontname" : "<Monospaced>",
					"fontsize" : 12.0,
					"id" : "obj-5",
					"maxclass" : "codebox",
					"numinlets" : 2,
					"numoutlets" : 2,
					"outlettype" : [ "", "" ],
					"patching_rect" : [ 50.0, 46.0, 583.0, 512.0 ]
				}

			}
, 			{
				"box" : 				{
					"id" : "obj-1",
					"maxclass" : "newobj",
					"numinlets" : 0,
					"numoutlets" : 1,
					"outlettype" : [ "" ],
					"patching_rect" : [ 50.0, 14.0, 28.0, 22.0 ],
					"text" : "in 1"
				}

			}
, 			{
				"box" : 				{
					"id" : "obj-2",
					"maxclass" : "newobj",
					"numinlets" : 0,
					"numoutlets" : 1,
					"outlettype" : [ "" ],
					"patching_rect" : [ 614.0, 14.0, 28.0, 22.0 ],
					"text" : "in 2"
				}

			}
, 			{
				"box" : 				{
					"id" : "obj-4",
					"maxclass" : "newobj",
					"numinlets" : 1,
					"numoutlets" : 0,
					"patching_rect" : [ 46.5, 573.0, 35.0, 22.0 ],
					"text" : "out 1"
				}

			}
 ],
		"lines" : [ 			{
				"patchline" : 				{
					"destination" : [ "obj-5", 0 ],
					"source" : [ "obj-1", 0 ]
				}

			}
, 			{
				"patchline" : 				{
					"destination" : [ "obj-5", 1 ],
					"source" : [ "obj-2", 0 ]
				}

			}
, 			{
				"patchline" : 				{
					"destination" : [ "obj-3", 0 ],
					"source" : [ "obj-5", 1 ]
				}

			}
, 			{
				"patchline" : 				{
					"destination" : [ "obj-4", 0 ],
					"source" : [ "obj-5", 0 ]
				}

			}
 ]
	}

}
